{
.appVersion = "3260";
.formatVersion = 3;
axes = (
{
name = Weight;
tag = wght;
}
);
date = "2023-02-18 16:26:14 +0000";
familyName = "Xianzhou Seal";
featurePrefixes = (
{
automatic = 1;
code = "languagesystem DFLT dflt;
";
name = Languagesystems;
}
);
features = (
{
automatic = 1;
code = "feature calt;
";
tag = aalt;
},
{
code = "# Lowercase letters have a shorter width,
# so use \"thinspace\" after all lowercase letters and \"thinspace\". 
sub	[a b c d e f g h i j k l m n o p q r s t u v w x y z thinspace] space'
by thinspace;
";
tag = calt;
}
);
fontMaster = (
{
axesValues = (
50
);
customParameters = (
{
name = "Master Icon Glyph Name";
value = K;
}
);
iconName = SemiLight;
id = m01;
metricValues = (
{
pos = 3360;
},
{
pos = 2800;
},
{
},
{
pos = -560;
}
);
name = Light;
userData = {
GSCornerRadius = 15;
GSOffsetCapStyle = 2;
GSOffsetHorizontal = 40;
GSOffsetKeepCompatible = 1;
GSOffsetMakeStroke = 1;
GSOffsetProportional = 1;
GSOffsetVertical = 10;
};
},
{
axesValues = (
150
);
customParameters = (
{
name = "Master Icon Glyph Name";
value = K;
}
);
iconName = SemiBold;
id = "C4A30611-87D3-4B41-A69F-FBC49DBA4127";
metricValues = (
{
pos = 3360;
},
{
pos = 2800;
},
{
},
{
pos = -560;
}
);
name = Bold;
userData = {
GSCornerRadius = 15;
GSOffsetCapStyle = 2;
GSOffsetHorizontal = 200;
GSOffsetKeepCompatible = 1;
GSOffsetMakeStroke = 1;
GSOffsetProportional = 1;
GSOffsetVertical = 10;
};
}
);
glyphs = (
{
glyphname = A;
lastChange = "2023-06-27 09:03:21 +0000";
layers = (
{
layerId = m01;
shapes = (
{
closed = 1;
nodes = (
(1802,138,o),
(1752,243,o),
(1650,337,cs),
(1153,811,o),
(871,1543,o),
(871,2280,cs),
(871,2427,o),
(721,2648,o),
(623,2648,cs),
(538,2648,o),
(443,2518,o),
(301,2406,cs),
(291,2399,o),
(285,2388,o),
(285,2375,cs),
(285,2353,o),
(303,2335,o),
(325,2335,cs),
(335,2335,o),
(343,2338,o),
(350,2343,cs),
(496,2456,o),
(579,2568,o),
(623,2568,cs),
(670,2568,o),
(791,2399,o),
(791,2280,cs),
(791,1527,o),
(1084,766,o),
(1596,279,cs),
(1685,196,o),
(1724,115,o),
(1730,3,cs),
(1730,-18,o),
(1748,-36,o),
(1770,-36,cs),
(1792,-36,o),
(1810,-18,o),
(1810,5,cs)
);
},
{
closed = 1;
nodes = (
(557,379,o),
(763,754,o),
(1126,1086,cs),
(1440,1373,o),
(1590,1721,o),
(1631,2136,cs),
(1634,2159,o),
(1615,2180,o),
(1592,2180,cs),
(1571,2180,o),
(1554,2164,o),
(1552,2144,cs),
(1512,1743,o),
(1373,1420,o),
(1072,1146,cs),
(699,804,o),
(478,403,o),
(464,37,cs),
(464,14,o),
(482,-4,o),
(504,-4,cs),
(526,-4,o),
(544,14,o),
(544,35,cs)
);
},
{
closed = 1;
nodes = (
(1262,1802,o),
(1384,2243,o),
(1430,2497,cs),
(1448,2599,o),
(1494,2640,o),
(1559,2640,cs),
(1609,2640,o),
(1657,2572,o),
(1723,2506,cs),
(1730,2499,o),
(1740,2494,o),
(1752,2494,cs),
(1774,2494,o),
(1792,2512,o),
(1792,2535,cs),
(1792,2545,o),
(1787,2555,o),
(1780,2562,cs),
(1716,2629,o),
(1649,2720,o),
(1559,2720,cs),
(1459,2720,o),
(1375,2645,o),
(1352,2511,cs),
(1305,2261,o),
(1191,1845,o),
(923,1601,cs),
(915,1594,o),
(910,1583,o),
(910,1572,cs),
(910,1550,o),
(928,1532,o),
(950,1532,cs),
(960,1532,o),
(970,1536,o),
(977,1542,cs)
);
}
);
width = 2200;
},
{
layerId = "C4A30611-87D3-4B41-A69F-FBC49DBA4127";
shapes = (
{
closed = 1;
nodes = (
(1954,276,o),
(1894,364,o),
(1814,440,cs),
(1338,892,o),
(1078,1568,o),
(1078,2280,cs),
(1078,2480,o),
(894,2788,o),
(690,2788,cs),
(558,2788,o),
(498,2704,o),
(397,2615,cs),
(330,2556,o),
(310,2508,o),
(310,2452,cs),
(310,2356,o),
(390,2272,o),
(490,2272,cs),
(534,2272,o),
(578,2292,o),
(610,2320,cs),
(654,2360,o),
(654,2428,o),
(678,2428,cs),
(710,2428,o),
(718,2348,o),
(718,2280,cs),
(718,1492,o),
(1026,692,o),
(1566,176,cs),
(1610,136,o),
(1634,108,o),
(1646,68,cs),
(1670,-4,o),
(1738,-56,o),
(1818,-56,cs),
(1962,-56,o),
(2018,96,o),
(1986,180,c)
);
},
{
closed = 1;
nodes = (
(802,412,o),
(978,700,o),
(1286,984,cs),
(1598,1264,o),
(1768,1594,o),
(1877,1913,cs),
(1927,2060,o),
(1824,2166,o),
(1712,2166,cs),
(1624,2166,o),
(1565,2092,o),
(1536,2014,cs),
(1424,1710,o),
(1294,1476,o),
(1046,1248,cs),
(694,928,o),
(466,552,o),
(406,192,cs),
(390,80,o),
(474,-20,o),
(582,-20,cs),
(674,-20,o),
(746,48,o),
(762,132,cs)
);
},
{
closed = 1;
nodes = (
(1390,1836,o),
(1494,2236,o),
(1530,2424,cs),
(1538,2464,o),
(1550,2480,o),
(1563,2478,cs),
(1571,2482,o),
(1579,2468,o),
(1594,2460,cs),
(1607,2454,o),
(1620,2448,o),
(1650,2448,cs),
(1738,2448,o),
(1814,2524,o),
(1814,2612,cs),
(1814,2668,o),
(1786,2708,o),
(1750,2744,cs),
(1698,2800,o),
(1622,2860,o),
(1530,2860,cs),
(1362,2860,o),
(1218,2736,o),
(1186,2536,cs),
(1146,2316,o),
(1058,2000,o),
(870,1780,cs),
(846,1748,o),
(830,1708,o),
(830,1664,cs),
(830,1564,o),
(910,1484,o),
(1010,1484,cs),
(1062,1484,o),
(1114,1508,o),
(1146,1548,cs)
);
}
);
width = 2300;
}
);
unicode = 65;
},
{
glyphname = B;
lastChange = "2023-06-27 09:03:30 +0000";
layers = (
{
layerId = m01;
shapes = (
{
closed = 1;
nodes = (
(918,-36,o),
(927,-33,o),
(934,-26,cs),
(1257,256,o),
(1341,353,o),
(1341,916,cs),
(1341,1363,o),
(1371,1401,o),
(1509,1531,cs),
(1624,1647,o),
(1781,1632,o),
(1781,1848,cs),
(1781,2004,o),
(1735,2078,o),
(1586,2166,cs),
(1568,2176,o),
(1542,2169,o),
(1533,2152,cs),
(1523,2134,o),
(1533,2104,o),
(1545,2097,cs),
(1675,2022,o),
(1701,1976,o),
(1701,1848,cs),
(1701,1702,o),
(1607,1742,o),
(1453,1589,cs),
(1309,1453,o),
(1261,1395,o),
(1261,916,cs),
(1261,387,o),
(1201,313,o),
(882,34,cs),
(873,26,o),
(868,16,o),
(868,4,cs),
(868,-18,o),
(886,-36,o),
(908,-36,cs)
);
},
{
closed = 1;
nodes = (
(588,-8,o),
(606,9,o),
(606,32,cs),
(606,43,o),
(601,54,o),
(593,61,cs),
(278,350,o),
(339,975,o),
(615,1431,cs),
(853,1827,o),
(859,2338,o),
(559,2758,cs),
(552,2768,o),
(540,2775,o),
(526,2775,cs),
(504,2775,o),
(486,2757,o),
(486,2735,cs),
(486,2726,o),
(489,2718,o),
(494,2712,cs),
(777,2316,o),
(772,1846,o),
(547,1473,cs),
(259,998,o),
(191,322,o),
(539,2,cs),
(546,-4,o),
(555,-8,o),
(566,-8,cs)
);
},
{
closed = 1;
nodes = (
(268,1532,o),
(280,1539,o),
(287,1548,cs),
(516,1854,o),
(516,2253,o),
(295,2555,cs),
(288,2565,o),
(276,2571,o),
(263,2571,cs),
(241,2571,o),
(223,2554,o),
(223,2531,cs),
(223,2523,o),
(226,2514,o),
(231,2508,cs),
(434,2231,o),
(434,1876,o),
(223,1596,cs),
(218,1590,o),
(215,1581,o),
(215,1572,cs),
(215,1550,o),
(233,1532,o),
(255,1532,cs)
);
},
{
closed = 1;
nodes = (
(1608,5,o),
(1619,12,o),
(1627,22,cs),
(1819,288,o),
(1985,580,o),
(1985,1028,cs),
(1985,1469,o),
(1895,1608,o),
(1737,1707,cs),
(1731,1711,o),
(1724,1714,o),
(1716,1714,cs),
(1694,1714,o),
(1676,1696,o),
(1676,1674,cs),
(1676,1659,o),
(1683,1647,o),
(1695,1640,cs),
(1836,1551,o),
(1905,1438,o),
(1905,1028,cs),
(1905,603,o),
(1751,330,o),
(1562,69,cs),
(1557,62,o),
(1554,54,o),
(1554,45,cs),
(1554,23,o),
(1572,5,o),
(1594,5,cs)
);
},
{
closed = 1;
nodes = (
(1072,1523,o),
(1088,1535,o),
(1093,1552,cs),
(1155,1784,o),
(1248,1912,o),
(1376,2003,cs),
(1510,2097,o),
(1785,2110,o),
(1785,2400,cs),
(1785,2605,o),
(1677,2704,o),
(1457,2704,cs),
(1241,2704,o),
(1095,2595,o),
(961,2433,c),
(955,2427,o),
(952,2418,o),
(952,2408,cs),
(952,2386,o),
(970,2368,o),
(992,2368,cs),
(1004,2368,o),
(1015,2374,o),
(1022,2383,cs),
(1148,2534,o),
(1270,2624,o),
(1457,2624,cs),
(1638,2624,o),
(1705,2566,o),
(1705,2400,cs),
(1705,2180,o),
(1489,2179,o),
(1330,2069,cs),
(1189,1968,o),
(1082,1821,o),
(1015,1573,cs),
(1009,1548,o),
(1028,1523,o),
(1054,1523,cs)
);
}
);
width = 2200;
},
{
layerId = "C4A30611-87D3-4B41-A69F-FBC49DBA4127";
shapes = (
{
closed = 1;
nodes = (
(1144,-92,o),
(1188,-76,o),
(1220,-44,cs),
(1476,188,o),
(1576,348,o),
(1576,916,cs),
(1576,1316,o),
(1576,1312,o),
(1700,1432,cs),
(1820,1552,o),
(2016,1572,o),
(2016,1848,cs),
(2016,1988,o),
(1984,2088,o),
(1912,2164,cs),
(1860,2224,o),
(1772,2248,o),
(1708,2220,cs),
(1628,2184,o),
(1604,2128,o),
(1604,2048,cs),
(1604,1960,o),
(1664,1940,o),
(1668,1848,cs),
(1668,1788,o),
(1536,1768,o),
(1452,1688,cs),
(1296,1540,o),
(1216,1460,o),
(1216,916,cs),
(1216,496,o),
(1200,424,o),
(976,220,cs),
(940,188,o),
(916,140,o),
(916,88,cs),
(916,-12,o),
(1000,-92,o),
(1096,-92,cs)
);
},
{
closed = 1;
nodes = (
(620,-56,o),
(700,24,o),
(700,124,cs),
(700,164,o),
(688,200,o),
(664,232,cs),
(472,492,o),
(536,964,o),
(776,1360,cs),
(1016,1760,o),
(1044,2276,o),
(788,2720,cs),
(760,2772,o),
(700,2808,o),
(632,2808,cs),
(536,2808,o),
(452,2728,o),
(452,2628,cs),
(452,2596,o),
(464,2564,o),
(480,2540,cs),
(672,2208,o),
(652,1856,o),
(464,1544,cs),
(184,1080,o),
(92,424,o),
(376,20,cs),
(408,-24,o),
(460,-56,o),
(520,-56,cs)
);
},
{
closed = 1;
nodes = (
(328,1496,o),
(384,1536,o),
(416,1592,cs),
(572,1880,o),
(572,2220,o),
(424,2508,cs),
(392,2568,o),
(332,2604,o),
(264,2604,cs),
(164,2604,o),
(84,2524,o),
(84,2428,cs),
(84,2396,o),
(92,2364,o),
(108,2340,cs),
(212,2152,o),
(212,1952,o),
(104,1764,cs),
(88,1740,o),
(80,1708,o),
(80,1676,cs),
(80,1580,o),
(160,1496,o),
(260,1496,cs)
);
},
{
closed = 1;
nodes = (
(1824,-32,o),
(1880,0,o),
(1912,48,cs),
(2080,300,o),
(2220,604,o),
(2220,1028,cs),
(2220,1400,o),
(2152,1596,o),
(2040,1720,cs),
(2004,1756,o),
(1960,1776,o),
(1908,1776,cs),
(1808,1776,o),
(1728,1696,o),
(1728,1600,cs),
(1728,1548,o),
(1748,1504,o),
(1780,1472,cs),
(1844,1408,o),
(1860,1312,o),
(1860,1028,cs),
(1860,688,o),
(1760,468,o),
(1612,248,cs),
(1592,220,o),
(1580,184,o),
(1580,148,cs),
(1580,48,o),
(1660,-32,o),
(1760,-32,cs)
);
},
{
closed = 1;
nodes = (
(1224,1504,o),
(1292,1552,o),
(1316,1620,cs),
(1364,1756,o),
(1424,1828,o),
(1512,1888,cs),
(1684,2008,o),
(1980,2028,o),
(1980,2400,cs),
(1980,2668,o),
(1824,2844,o),
(1512,2844,cs),
(1296,2844,o),
(1140,2756,o),
(1008,2628,cs),
(972,2596,o),
(952,2552,o),
(952,2500,cs),
(952,2400,o),
(1032,2320,o),
(1132,2320,cs),
(1180,2320,o),
(1224,2340,o),
(1256,2376,cs),
(1336,2452,o),
(1404,2484,o),
(1512,2484,cs),
(1620,2484,o),
(1620,2484,o),
(1620,2400,cs),
(1620,2296,o),
(1512,2328,o),
(1304,2184,cs),
(1168,2084,o),
(1056,1948,o),
(980,1744,cs),
(940,1644,o),
(1008,1504,o),
(1148,1504,cs)
);
}
);
width = 2300;
}
);
unicode = 66;
},
{
glyphname = C;
lastChange = "2023-06-27 09:08:46 +0000";
layers = (
{
background = {
shapes = (
{
closed = 0;
nodes = (
(525,2796,l),
(901,2332,o),
(1309,2332,o),
(1681,1928,cs),
(1973,1608,o),
(1625,996,o),
(2125,488,cs)
);
},
{
closed = 0;
nodes = (
(825,2496,l),
(825,876,ls),
(825,496,o),
(737,256,o),
(521,0,cs)
);
},
{
closed = 0;
nodes = (
(1425,2136,l),
(1425,1244,ls),
(1425,904,o),
(1461,696,o),
(1625,512,cs)
);
},
{
closed = 0;
nodes = (
(1733,396,l),
(1873,244,o),
(2025,112,o),
(2193,0,cs)
);
}
);
};
layerId = m01;
shapes = (
{
closed = 1;
nodes = (
(1898,474,o),
(1916,492,o),
(1916,514,cs),
(1916,525,o),
(1912,534,o),
(1906,541,cs),
(1460,1026,o),
(1795,1616,o),
(1486,1955,cs),
(1105,2369,o),
(717,2366,o),
(354,2794,cs),
(347,2803,o),
(336,2808,o),
(324,2808,cs),
(302,2808,o),
(284,2790,o),
(284,2768,cs),
(284,2758,o),
(288,2749,o),
(293,2742,cs),
(674,2292,o),
(1075,2284,o),
(1428,1901,cs),
(1695,1608,o),
(1363,1010,o),
(1847,487,cs),
(1854,479,o),
(1865,474,o),
(1876,474,cs)
);
},
{
closed = 1;
nodes = (
(332,-12,o),
(344,-6,o),
(351,3,cs),
(556,255,o),
(641,501,o),
(641,876,cs),
(641,2476,ls),
(641,2498,o),
(623,2516,o),
(601,2516,cs),
(579,2516,o),
(561,2498,o),
(561,2476,cs),
(561,876,ls),
(561,517,o),
(484,293,o),
(289,53,cs),
(283,46,o),
(280,37,o),
(280,28,cs),
(280,6,o),
(298,-12,o),
(320,-12,cs)
);
},
{
closed = 1;
nodes = (
(1961,-20,o),
(1979,-2,o),
(1979,20,cs),
(1979,34,o),
(1972,46,o),
(1962,53,cs),
(1817,153,o),
(1686,267,o),
(1563,397,cs),
(1555,405,o),
(1545,410,o),
(1534,410,cs),
(1511,410,o),
(1494,392,o),
(1494,370,cs),
(1494,359,o),
(1498,349,o),
(1504,342,cs),
(1631,209,o),
(1768,90,o),
(1917,-13,cs),
(1923,-17,o),
(1931,-20,o),
(1939,-20,cs)
);
},
{
closed = 1;
nodes = (
(1400,499,o),
(1418,517,o),
(1418,539,cs),
(1418,549,o),
(1414,558,o),
(1409,565,cs),
(1271,733,o),
(1241,924,o),
(1241,1244,cs),
(1241,2116,ls),
(1241,2138,o),
(1223,2156,o),
(1201,2156,cs),
(1179,2156,o),
(1161,2138,o),
(1161,2116,cs),
(1161,1244,ls),
(1161,916,o),
(1195,701,o),
(1347,514,cs),
(1354,505,o),
(1365,499,o),
(1378,499,cs)
);
}
);
width = 2200;
},
{
layerId = "C4A30611-87D3-4B41-A69F-FBC49DBA4127";
shapes = (
{
closed = 1;
nodes = (
(1908,496,o),
(1988,576,o),
(1988,676,cs),
(1988,716,o),
(1976,752,o),
(1956,780,cs),
(1700,1132,o),
(2004,1644,o),
(1632,2048,cs),
(1220,2496,o),
(896,2488,o),
(580,2804,cs),
(548,2836,o),
(504,2856,o),
(452,2856,cs),
(352,2856,o),
(272,2776,o),
(272,2676,cs),
(272,2624,o),
(292,2580,o),
(324,2548,cs),
(708,2148,o),
(1080,2120,o),
(1368,1808,cs),
(1556,1600,o),
(1272,1060,o),
(1660,568,cs),
(1696,524,o),
(1748,496,o),
(1808,496,cs)
);
},
{
closed = 1;
nodes = (
(500,-52,o),
(556,-20,o),
(588,28,cs),
(752,268,o),
(824,524,o),
(824,876,cs),
(824,2432,ls),
(824,2528,o),
(744,2612,o),
(644,2612,cs),
(544,2612,o),
(464,2528,o),
(464,2432,cs),
(464,876,ls),
(464,588,o),
(420,412,o),
(292,232,cs),
(272,200,o),
(260,168,o),
(260,128,cs),
(260,28,o),
(340,-52,o),
(440,-52,cs)
);
},
{
closed = 1;
nodes = (
(1852,-64,o),
(1932,16,o),
(1932,116,cs),
(1932,172,o),
(1904,224,o),
(1860,256,cs),
(1792,312,o),
(1728,368,o),
(1664,428,cs),
(1628,460,o),
(1584,480,o),
(1536,480,cs),
(1436,480,o),
(1356,400,o),
(1356,300,cs),
(1356,248,o),
(1380,204,o),
(1412,172,cs),
(1484,100,o),
(1564,32,o),
(1644,-28,cs),
(1672,-52,o),
(1712,-64,o),
(1752,-64,cs)
);
},
{
closed = 1;
nodes = (
(1364,464,o),
(1444,544,o),
(1444,644,cs),
(1444,676,o),
(1439,705,o),
(1424,732,cs),
(1359,850,o),
(1340,992,o),
(1340,1244,cs),
(1340,2092,ls),
(1340,2188,o),
(1260,2272,o),
(1160,2272,cs),
(1060,2272,o),
(980,2188,o),
(980,2092,cs),
(980,1244,ls),
(980,964,o),
(1004,748,o),
(1108,556,cs),
(1140,500,o),
(1200,464,o),
(1268,464,cs)
);
}
);
width = 2300;
}
);
unicode = 67;
},
{
glyphname = D;
lastChange = "2023-06-27 09:09:17 +0000";
layers = (
{
layerId = m01;
shapes = (
{
closed = 1;
nodes = (
(1903,-36,o),
(1921,-18,o),
(1921,4,cs),
(1918,745,o),
(1836,1031,o),
(1679,1293,cs),
(1512,1568,o),
(1368,1660,o),
(977,1660,cs),
(755,1660,o),
(643,1646,o),
(581,1705,cs),
(524,1759,o),
(605,1973,o),
(605,2256,cs),
(605,2527,o),
(522,2654,o),
(423,2790,cs),
(415,2800,o),
(404,2807,o),
(390,2807,cs),
(368,2807,o),
(350,2789,o),
(350,2767,cs),
(350,2758,o),
(353,2750,o),
(358,2743,cs),
(455,2609,o),
(525,2501,o),
(525,2256,cs),
(525,1977,o),
(428,1739,o),
(525,1647,cs),
(616,1562,o),
(759,1580,o),
(977,1580,cs),
(1341,1580,o),
(1456,1507,o),
(1611,1251,cs),
(1761,1000,o),
(1839,731,o),
(1841,4,cs),
(1841,-18,o),
(1859,-36,o),
(1881,-36,cs)
);
},
{
closed = 1;
nodes = (
(583,-36,o),
(601,-18,o),
(601,4,cs),
(606,465,o),
(716,962,o),
(1498,1823,cs),
(1505,1830,o),
(1509,1839,o),
(1509,1849,cs),
(1509,1871,o),
(1491,1889,o),
(1469,1889,cs),
(1457,1889,o),
(1446,1884,o),
(1439,1876,cs),
(640,996,o),
(526,476,o),
(521,4,cs),
(521,-18,o),
(539,-36,o),
(561,-36,cs)
);
},
{
closed = 1;
nodes = (
(1103,324,o),
(1121,342,o),
(1121,364,cs),
(1128,746,o),
(1246,929,o),
(1574,1359,cs),
(1579,1366,o),
(1582,1374,o),
(1582,1383,cs),
(1582,1405,o),
(1565,1423,o),
(1542,1423,cs),
(1529,1423,o),
(1518,1417,o),
(1510,1407,cs),
(1179,974,o),
(1049,771,o),
(1041,364,cs),
(1041,342,o),
(1059,324,o),
(1081,324,cs)
);
},
{
closed = 1;
nodes = (
(1283,1962,o),
(1613,2057,o),
(1613,2344,cs),
(1613,2630,o),
(1368,2765,o),
(537,2579,cs),
(519,2575,o),
(506,2559,o),
(506,2540,cs),
(506,2515,o),
(530,2495,o),
(555,2501,cs),
(1345,2678,o),
(1533,2573,o),
(1533,2344,cs),
(1533,2122,o),
(1266,2043,o),
(574,2088,cs),
(551,2090,o),
(531,2071,o),
(531,2048,cs),
(531,2027,o),
(547,2010,o),
(568,2009,cs)
);
}
);
width = 2200;
},
{
layerId = "C4A30611-87D3-4B41-A69F-FBC49DBA4127";
shapes = (
{
closed = 1;
nodes = (
(2000,-52,o),
(2080,32,o),
(2080,132,cs),
(2068,808,o),
(1980,1056,o),
(1820,1324,cs),
(1628,1636,o),
(1444,1760,o),
(996,1760,cs),
(764,1760,o),
(712,1792,o),
(696,1808,cs),
(792,1712,o),
(764,1772,o),
(764,2256,cs),
(764,2488,o),
(704,2640,o),
(632,2756,cs),
(604,2808,o),
(544,2844,o),
(480,2844,cs),
(380,2844,o),
(300,2764,o),
(300,2664,cs),
(300,2628,o),
(308,2596,o),
(328,2568,cs),
(380,2484,o),
(404,2404,o),
(404,2256,cs),
(404,1924,o),
(284,1660,o),
(448,1504,cs),
(576,1384,o),
(716,1400,o),
(996,1400,cs),
(1320,1400,o),
(1372,1368,o),
(1508,1140,cs),
(1644,920,o),
(1708,740,o),
(1720,128,cs),
(1720,32,o),
(1800,-52,o),
(1900,-52,cs)
);
},
{
closed = 1;
nodes = (
(680,-52,o),
(760,24,o),
(764,120,cs),
(788,512,o),
(920,932,o),
(1452,1540,cs),
(1480,1572,o),
(1496,1612,o),
(1496,1660,cs),
(1496,1760,o),
(1416,1840,o),
(1316,1840,cs),
(1260,1840,o),
(1212,1816,o),
(1180,1780,cs),
(588,1096,o),
(432,584,o),
(404,140,cs),
(400,40,o),
(480,-52,o),
(584,-52,cs)
);
},
{
closed = 1;
nodes = (
(1280,228,o),
(1356,300,o),
(1368,392,cs),
(1388,636,o),
(1476,788,o),
(1692,1080,cs),
(1716,1108,o),
(1728,1148,o),
(1728,1188,cs),
(1728,1284,o),
(1648,1368,o),
(1548,1368,cs),
(1488,1368,o),
(1436,1336,o),
(1404,1292,cs),
(1168,972,o),
(1040,756,o),
(1008,428,cs),
(1000,320,o),
(1080,228,o),
(1188,228,cs)
);
},
{
closed = 1;
nodes = (
(1464,1832,o),
(1772,1992,o),
(1772,2344,cs),
(1772,2692,o),
(1516,2908,o),
(672,2748,cs),
(588,2732,o),
(528,2656,o),
(528,2572,cs),
(528,2456,o),
(632,2372,o),
(744,2396,cs),
(1348,2528,o),
(1412,2484,o),
(1412,2344,cs),
(1412,2236,o),
(1284,2188,o),
(752,2220,cs),
(652,2228,o),
(560,2148,o),
(560,2040,cs),
(560,1944,o),
(636,1868,o),
(732,1864,cs)
);
}
);
width = 2300;
}
);
unicode = 68;
},
{
glyphname = E;
lastChange = "2023-06-27 09:09:30 +0000";
layers = (
{
layerId = m01;
shapes = (
{
closed = 1;
nodes = (
(571,198,o),
(633,316,o),
(633,824,cs),
(633,2080,ls),
(633,2467,o),
(563,2597,o),
(313,2765,c),
(307,2770,o),
(299,2772,o),
(291,2772,cs),
(269,2772,o),
(251,2754,o),
(251,2732,cs),
(251,2718,o),
(258,2706,o),
(269,2699,cs),
(500,2544,o),
(553,2442,o),
(553,2080,cs),
(553,824,ls),
(553,343,o),
(506,245,o),
(344,69,cs),
(338,62,o),
(334,53,o),
(334,42,cs),
(334,20,o),
(351,2,o),
(374,2,cs),
(385,2,o),
(396,7,o),
(403,15,cs)
);
},
{
closed = 1;
nodes = (
(1229,867,o),
(1229,1076,o),
(1229,1496,cs),
(1229,2177,o),
(1062,2383,o),
(583,2438,cs),
(561,2441,o),
(539,2423,o),
(539,2398,cs),
(539,2378,o),
(554,2361,o),
(574,2359,cs),
(1017,2309,o),
(1149,2140,o),
(1149,1496,cs),
(1149,1075,o),
(1149,839,o),
(1419,518,cs),
(1426,509,o),
(1437,503,o),
(1450,503,cs),
(1472,503,o),
(1490,521,o),
(1490,543,cs),
(1490,553,o),
(1486,562,o),
(1480,569,cs)
);
},
{
closed = 1;
nodes = (
(1893,153,o),
(1762,267,o),
(1639,397,cs),
(1631,405,o),
(1621,410,o),
(1610,410,cs),
(1587,410,o),
(1570,392,o),
(1570,370,cs),
(1570,359,o),
(1574,349,o),
(1580,342,cs),
(1707,209,o),
(1844,90,o),
(1993,-13,cs),
(1999,-17,o),
(2007,-20,o),
(2015,-20,cs),
(2037,-20,o),
(2055,-2,o),
(2055,20,cs),
(2055,34,o),
(2048,46,o),
(2038,53,cs)
);
},
{
closed = 1;
nodes = (
(1536,1062,o),
(1503,1297,o),
(1563,2730,cs),
(1564,2753,o),
(1546,2772,o),
(1523,2772,cs),
(1502,2772,o),
(1484,2755,o),
(1484,2734,cs),
(1423,1288,o),
(1459,1021,o),
(1860,695,cs),
(1867,690,o),
(1875,686,o),
(1885,686,cs),
(1907,686,o),
(1925,704,o),
(1925,726,cs),
(1925,739,o),
(1919,750,o),
(1910,758,cs)
);
}
);
width = 2200;
},
{
layerId = "C4A30611-87D3-4B41-A69F-FBC49DBA4127";
shapes = (
{
closed = 1;
nodes = (
(738,184,o),
(790,364,o),
(790,816,cs),
(790,2108,ls),
(790,2484,o),
(718,2660,o),
(522,2824,cs),
(490,2852,o),
(454,2864,o),
(410,2864,cs),
(310,2864,o),
(230,2784,o),
(230,2688,cs),
(230,2632,o),
(258,2580,o),
(298,2548,cs),
(418,2452,o),
(430,2376,o),
(430,2108,cs),
(430,816,ls),
(430,456,o),
(414,352,o),
(330,240,cs),
(306,208,o),
(294,172,o),
(294,128,cs),
(294,32,o),
(374,-48,o),
(470,-48,cs),
(530,-48,o),
(582,-20,o),
(614,20,cs)
);
},
{
closed = 1;
nodes = (
(1386,960,o),
(1386,1128,o),
(1386,1496,cs),
(1386,2176,o),
(1206,2460,o),
(706,2568,cs),
(598,2592,o),
(490,2512,o),
(490,2392,cs),
(490,2308,o),
(554,2232,o),
(638,2216,cs),
(974,2152,o),
(1026,2024,o),
(1026,1496,cs),
(1026,1116,o),
(1026,852,o),
(1242,540,cs),
(1274,492,o),
(1330,464,o),
(1390,464,cs),
(1490,464,o),
(1570,544,o),
(1570,644,cs),
(1570,680,o),
(1558,716,o),
(1538,748,cs)
);
},
{
closed = 1;
nodes = (
(1954,312,o),
(1890,368,o),
(1826,428,cs),
(1790,460,o),
(1746,480,o),
(1698,480,cs),
(1598,480,o),
(1518,400,o),
(1518,300,cs),
(1518,248,o),
(1542,204,o),
(1574,172,cs),
(1646,100,o),
(1726,32,o),
(1806,-28,cs),
(1834,-52,o),
(1874,-64,o),
(1914,-64,cs),
(2014,-64,o),
(2094,16,o),
(2094,116,cs),
(2094,172,o),
(2066,224,o),
(2022,256,cs)
);
},
{
closed = 1;
nodes = (
(1846,1168,o),
(1826,1420,o),
(1874,2600,cs),
(1878,2696,o),
(1802,2788,o),
(1694,2788,cs),
(1598,2788,o),
(1518,2708,o),
(1514,2612,cs),
(1466,1368,o),
(1502,1004,o),
(1842,680,cs),
(1874,648,o),
(1918,628,o),
(1966,628,cs),
(2066,628,o),
(2146,708,o),
(2146,808,cs),
(2146,860,o),
(2126,908,o),
(2090,940,cs)
);
}
);
width = 2300;
}
);
unicode = 69;
},
{
glyphname = F;
lastChange = "2023-06-27 09:11:30 +0000";
layers = (
{
layerId = m01;
shapes = (
{
closed = 1;
nodes = (
(1586,2783,o),
(563,2784,o),
(14,2457,cs),
(2,2450,o),
(-5,2438,o),
(-5,2423,cs),
(-5,2401,o),
(13,2383,o),
(35,2383,cs),
(42,2383,o),
(49,2385,o),
(55,2389,cs),
(580,2702,o),
(1569,2702,o),
(2145,2387,cs),
(2151,2383,o),
(2158,2382,o),
(2165,2382,cs),
(2187,2382,o),
(2205,2400,o),
(2205,2422,cs),
(2205,2437,o),
(2196,2450,o),
(2184,2457,cs)
);
},
{
closed = 1;
nodes = (
(1144,1548,ls),
(1144,1570,o),
(1126,1588,o),
(1104,1588,cs),
(1082,1588,o),
(1064,1570,o),
(1064,1548,cs),
(1064,656,ls),
(1064,634,o),
(1082,616,o),
(1104,616,cs),
(1126,616,o),
(1144,634,o),
(1144,656,cs)
);
},
{
closed = 1;
nodes = (
(528,180,o),
(780,52,o),
(1192,52,cs),
(1538,52,o),
(1904,301,o),
(1904,1012,cs),
(1904,1675,o),
(1710,1860,o),
(1300,1860,cs),
(874,1860,o),
(774,2009,o),
(824,2452,cs),
(826,2474,o),
(808,2496,o),
(784,2496,cs),
(763,2496,o),
(746,2481,o),
(744,2461,cs),
(692,1983,o),
(823,1780,o),
(1300,1780,cs),
(1672,1780,o),
(1824,1635,o),
(1824,1012,cs),
(1824,349,o),
(1508,132,o),
(1192,132,cs),
(805,132,o),
(607,236,o),
(600,940,cs),
(600,962,o),
(582,980,o),
(560,980,cs),
(538,980,o),
(520,962,o),
(520,940,cs)
);
},
{
closed = 1;
nodes = (
(1516,2614,ls),
(1516,2636,o),
(1498,2654,o),
(1476,2654,cs),
(1454,2654,o),
(1436,2636,o),
(1436,2614,cs),
(1436,1820,ls),
(1436,1798,o),
(1454,1780,o),
(1476,1780,cs),
(1498,1780,o),
(1516,1798,o),
(1516,1820,cs)
);
}
);
width = 2200;
},
{
layerId = "C4A30611-87D3-4B41-A69F-FBC49DBA4127";
shapes = (
{
closed = 1;
nodes = (
(1576,2932,o),
(688,2932,o),
(120,2668,cs),
(60,2640,o),
(16,2576,o),
(16,2504,cs),
(16,2408,o),
(100,2328,o),
(196,2328,cs),
(224,2328,o),
(252,2332,o),
(276,2344,cs),
(748,2572,o),
(1516,2568,o),
(2032,2336,cs),
(2052,2328,o),
(2076,2320,o),
(2104,2320,cs),
(2204,2320,o),
(2284,2404,o),
(2284,2500,cs),
(2284,2576,o),
(2240,2636,o),
(2176,2664,cs)
);
},
{
closed = 1;
nodes = (
(1368,1388,ls),
(1368,1484,o),
(1288,1568,o),
(1188,1568,cs),
(1088,1568,o),
(1008,1484,o),
(1008,1388,cs),
(1008,748,ls),
(1008,648,o),
(1088,568,o),
(1188,568,cs),
(1288,568,o),
(1368,648,o),
(1368,748,cs)
);
},
{
closed = 1;
nodes = (
(476,80,o),
(800,-64,o),
(1244,-64,cs),
(1652,-64,o),
(2096,232,o),
(2096,1036,cs),
(2096,1784,o),
(1836,2024,o),
(1352,2024,cs),
(1044,2024,o),
(980,2060,o),
(984,2256,cs),
(984,2356,o),
(900,2448,o),
(796,2448,cs),
(700,2448,o),
(624,2372,o),
(624,2276,cs),
(632,1900,o),
(828,1664,o),
(1352,1664,cs),
(1668,1664,o),
(1736,1600,o),
(1736,1036,cs),
(1736,448,o),
(1516,296,o),
(1244,296,cs),
(916,296,o),
(812,340,o),
(796,844,cs),
(792,940,o),
(712,1020,o),
(616,1020,cs),
(508,1020,o),
(432,928,o),
(436,828,cs)
);
},
{
closed = 1;
nodes = (
(1708,2484,ls),
(1708,2580,o),
(1628,2664,o),
(1528,2664,cs),
(1428,2664,o),
(1348,2580,o),
(1348,2484,cs),
(1348,1992,ls),
(1348,1892,o),
(1428,1812,o),
(1528,1812,cs),
(1628,1812,o),
(1708,1892,o),
(1708,1992,cs)
);
}
);
width = 2300;
}
);
unicode = 70;
},
{
glyphname = G;
lastChange = "2023-06-27 09:17:48 +0000";
layers = (
{
layerId = m01;
shapes = (
{
closed = 1;
nodes = (
(1826,224,o),
(1754,112,o),
(1638,150,cs),
(1296,264,o),
(1118,692,o),
(1118,1452,cs),
(1118,1679,o),
(1150,1708,o),
(1390,1708,cs),
(1697,1708,o),
(1802,1879,o),
(1802,2076,cs),
(1802,2317,o),
(1602,2540,o),
(1274,2540,cs),
(987,2540,o),
(863,2496,o),
(590,2496,cs),
(340,2496,o),
(279,2559,o),
(344,2815,cs),
(350,2840,o),
(331,2865,o),
(305,2865,cs),
(286,2865,o),
(270,2852,o),
(266,2835,cs),
(192,2530,o),
(296,2416,o),
(590,2416,cs),
(877,2416,o),
(1001,2460,o),
(1274,2460,cs),
(1560,2460,o),
(1722,2281,o),
(1722,2076,cs),
(1722,1907,o),
(1648,1788,o),
(1390,1788,cs),
(1112,1788,o),
(1038,1720,o),
(1038,1452,cs),
(1038,671,o),
(1232,201,o),
(1614,74,cs),
(1790,17,o),
(1904,49,o),
(1906,1132,cs),
(1906,1154,o),
(1888,1172,o),
(1866,1172,cs),
(1844,1172,o),
(1826,1154,o),
(1826,1132,cs)
);
},
{
closed = 1;
nodes = (
(522,136,ls),
(249,136,o),
(210,186,o),
(210,320,cs),
(210,441,o),
(216,479,o),
(389,686,cs),
(576,911,o),
(638,1145,o),
(638,1636,cs),
(638,2408,ls),
(638,2430,o),
(620,2448,o),
(598,2448,cs),
(576,2448,o),
(558,2430,o),
(558,2408,cs),
(558,1636,ls),
(558,1157,o),
(502,947,o),
(327,738,cs),
(137,510,o),
(130,448,o),
(130,320,cs),
(130,152,o),
(203,56,o),
(522,56,cs),
(1102,56,ls),
(1124,56,o),
(1142,74,o),
(1142,96,cs),
(1142,118,o),
(1124,136,o),
(1102,136,cs)
);
}
);
width = 2200;
},
{
layerId = "C4A30611-87D3-4B41-A69F-FBC49DBA4127";
shapes = (
{
closed = 1;
nodes = (
(1826,356,o),
(1806,312,o),
(1710,340,cs),
(1542,396,o),
(1398,740,o),
(1398,1472,cs),
(1398,1588,o),
(1398,1588,o),
(1530,1588,cs),
(1930,1588,o),
(2082,1840,o),
(2082,2096,cs),
(2082,2408,o),
(1822,2700,o),
(1414,2700,cs),
(1102,2700,o),
(982,2656,o),
(730,2656,cs),
(626,2656,o),
(594,2656,o),
(614,2748,cs),
(638,2848,o),
(558,2940,o),
(454,2940,cs),
(362,2940,o),
(282,2868,o),
(270,2776,cs),
(226,2444,o),
(398,2296,o),
(730,2296,cs),
(1042,2296,o),
(1162,2340,o),
(1414,2340,cs),
(1638,2340,o),
(1722,2248,o),
(1722,2096,cs),
(1722,1968,o),
(1710,1948,o),
(1530,1948,cs),
(1174,1948,o),
(1038,1824,o),
(1038,1472,cs),
(1038,648,o),
(1250,112,o),
(1710,-40,cs),
(1974,-124,o),
(2166,-88,o),
(2186,1024,cs),
(2186,1124,o),
(2106,1208,o),
(2006,1208,cs),
(1906,1208,o),
(1826,1124,o),
(1826,1028,cs)
);
},
{
closed = 1;
nodes = (
(662,296,ls),
(490,296,o),
(490,296,o),
(490,340,cs),
(490,440,o),
(490,440,o),
(638,616,cs),
(846,872,o),
(918,1140,o),
(918,1656,cs),
(918,2304,ls),
(918,2400,o),
(838,2484,o),
(738,2484,cs),
(638,2484,o),
(558,2400,o),
(558,2304,cs),
(558,1656,ls),
(558,1196,o),
(514,1032,o),
(358,848,cs),
(138,580,o),
(130,484,o),
(130,340,cs),
(130,136,o),
(218,-64,o),
(662,-64,cs),
(1118,-64,ls),
(1214,-64,o),
(1298,16,o),
(1298,116,cs),
(1298,216,o),
(1214,296,o),
(1118,296,cs)
);
}
);
width = 2300;
}
);
unicode = 71;
},
{
glyphname = H;
lastChange = "2023-06-27 09:20:43 +0000";
layers = (
{
background = {
shapes = (
{
pos = (224,0);
ref = "bone-H";
}
);
};
layerId = m01;
shapes = (
{
closed = 1;
nodes = (
(2044,-32,o),
(2069,-13,o),
(2069,13,cs),
(2069,32,o),
(2057,47,o),
(2040,52,cs),
(1325,243,o),
(1208,701,o),
(1208,1452,cs),
(1208,1679,o),
(1240,1708,o),
(1480,1708,cs),
(1787,1708,o),
(1892,1879,o),
(1892,2076,cs),
(1892,2317,o),
(1692,2540,o),
(1364,2540,cs),
(1077,2540,o),
(953,2496,o),
(680,2496,cs),
(430,2496,o),
(369,2559,o),
(434,2815,cs),
(440,2840,o),
(421,2865,o),
(395,2865,cs),
(376,2865,o),
(360,2852,o),
(356,2835,cs),
(282,2530,o),
(386,2416,o),
(680,2416,cs),
(967,2416,o),
(1091,2460,o),
(1364,2460,cs),
(1650,2460,o),
(1812,2281,o),
(1812,2076,cs),
(1812,1907,o),
(1738,1788,o),
(1480,1788,cs),
(1202,1788,o),
(1128,1720,o),
(1128,1452,cs),
(1128,688,o),
(1256,179,o),
(2019,-26,cs)
);
},
{
closed = 1;
nodes = (
(1192,56,ls),
(1214,56,o),
(1232,74,o),
(1232,96,cs),
(1232,118,o),
(1214,136,o),
(1192,136,cs),
(612,136,ls),
(339,136,o),
(300,186,o),
(300,320,cs),
(300,441,o),
(306,479,o),
(479,686,cs),
(666,911,o),
(728,1145,o),
(728,1636,cs),
(728,2408,ls),
(728,2430,o),
(710,2448,o),
(688,2448,cs),
(666,2448,o),
(648,2430,o),
(648,2408,cs),
(648,1636,ls),
(648,1157,o),
(592,947,o),
(417,738,cs),
(227,510,o),
(220,448,o),
(220,320,cs),
(220,152,o),
(293,56,o),
(612,56,cs)
);
},
{
closed = 1;
nodes = (
(1128,1364,ls),
(1150,1364,o),
(1168,1382,o),
(1168,1404,cs),
(1168,1426,o),
(1150,1444,o),
(1128,1444,cs),
(260,1444,ls),
(238,1444,o),
(220,1426,o),
(220,1404,cs),
(220,1382,o),
(238,1364,o),
(260,1364,cs)
);
}
);
width = 2200;
},
{
layerId = "C4A30611-87D3-4B41-A69F-FBC49DBA4127";
shapes = (
{
closed = 1;
nodes = (
(2010,-124,o),
(2158,-64,o),
(2158,76,cs),
(2158,156,o),
(2106,224,o),
(2038,248,cs),
(1498,428,o),
(1418,792,o),
(1418,1480,cs),
(1418,1596,o),
(1418,1596,o),
(1550,1596,cs),
(1950,1596,o),
(2102,1848,o),
(2102,2134,cs),
(2102,2416,o),
(1842,2708,o),
(1434,2708,cs),
(1122,2708,o),
(1002,2664,o),
(750,2664,cs),
(646,2664,o),
(614,2664,o),
(630,2764,cs),
(646,2864,o),
(566,2956,o),
(462,2956,cs),
(370,2956,o),
(290,2884,o),
(282,2792,cs),
(246,2452,o),
(418,2304,o),
(750,2304,cs),
(1062,2304,o),
(1182,2348,o),
(1434,2348,cs),
(1658,2348,o),
(1742,2256,o),
(1742,2134,cs),
(1742,1996,o),
(1700,1956,o),
(1550,1956,cs),
(1194,1956,o),
(1058,1832,o),
(1058,1480,cs),
(1058,728,o),
(1190,160,o),
(1922,-92,cs)
);
},
{
closed = 1;
nodes = (
(1138,-56,ls),
(1234,-56,o),
(1318,24,o),
(1318,124,cs),
(1318,224,o),
(1234,304,o),
(1138,304,cs),
(682,304,ls),
(510,304,o),
(510,304,o),
(510,348,cs),
(510,448,o),
(510,448,o),
(658,624,cs),
(866,880,o),
(938,1148,o),
(938,1664,cs),
(938,2392,ls),
(938,2488,o),
(858,2572,o),
(758,2572,cs),
(658,2572,o),
(578,2488,o),
(578,2392,cs),
(578,1664,ls),
(578,1204,o),
(534,1040,o),
(378,856,cs),
(158,588,o),
(150,492,o),
(150,348,cs),
(150,144,o),
(238,-56,o),
(682,-56,cs)
);
},
{
closed = 1;
nodes = (
(1164,1252,ls),
(1260,1252,o),
(1344,1332,o),
(1344,1432,cs),
(1344,1532,o),
(1260,1612,o),
(1164,1612,cs),
(348,1612,ls),
(248,1612,o),
(168,1532,o),
(168,1432,cs),
(168,1332,o),
(248,1252,o),
(348,1252,cs)
);
}
);
width = 2300;
}
);
unicode = 72;
},
{
glyphname = I;
lastChange = "2023-06-27 09:23:12 +0000";
layers = (
{
layerId = m01;
shapes = (
{
closed = 1;
nodes = (
(516,241,o),
(725,32,o),
(1095,32,cs),
(1553,32,o),
(1662,336,o),
(1662,784,cs),
(1662,1353,ls),
(1662,1463,o),
(1651,1566,o),
(1563,1663,cs),
(1491,1742,o),
(1347,1659,o),
(1195,1536,cs),
(1095,1456,o),
(992,1382,o),
(884,1382,cs),
(783,1382,o),
(721,1437,o),
(721,1567,cs),
(721,1747,o),
(835,1838,o),
(1113,1976,cs),
(1292,2065,o),
(1490,2154,o),
(1490,2342,cs),
(1490,2536,o),
(1275,2716,o),
(1067,2844,cs),
(1061,2847,o),
(1054,2849,o),
(1046,2849,cs),
(1024,2849,o),
(1006,2832,o),
(1006,2809,cs),
(1006,2795,o),
(1013,2782,o),
(1025,2775,cs),
(1224,2653,o),
(1410,2497,o),
(1410,2342,cs),
(1410,2207,o),
(1257,2137,o),
(1077,2048,cs),
(789,1905,o),
(641,1788,o),
(641,1567,cs),
(641,1395,o),
(747,1302,o),
(884,1302,cs),
(1019,1302,o),
(1142,1391,o),
(1245,1474,cs),
(1374,1578,o),
(1476,1640,o),
(1503,1609,cs),
(1574,1533,o),
(1582,1457,o),
(1582,1353,cs),
(1582,784,ls),
(1582,354,o),
(1493,112,o),
(1095,112,cs),
(764,112,o),
(595,281,o),
(587,799,cs),
(587,821,o),
(569,839,o),
(547,839,cs),
(525,839,o),
(507,821,o),
(507,799,cs)
);
},
{
closed = 1;
nodes = (
(515,2174,o),
(762,2371,o),
(1294,2553,cs),
(1310,2558,o),
(1321,2573,o),
(1321,2590,cs),
(1321,2613,o),
(1303,2630,o),
(1281,2630,cs),
(1276,2630,o),
(1272,2630,o),
(1268,2628,c),
(719,2440,o),
(438,2218,o),
(415,1911,cs),
(413,1888,o),
(431,1868,o),
(454,1868,cs),
(476,1868,o),
(493,1884,o),
(494,1905,cs)
);
}
);
width = 2200;
},
{
layerId = "C4A30611-87D3-4B41-A69F-FBC49DBA4127";
shapes = (
{
closed = 1;
nodes = (
(422,133,o),
(690,-98,o),
(1110,-98,cs),
(1692,-98,o),
(1837,321,o),
(1837,814,cs),
(1837,1283,ls),
(1837,1444,o),
(1808,1578,o),
(1696,1701,cs),
(1555,1855,o),
(1348,1784,o),
(1110,1591,cs),
(1013,1513,o),
(969,1492,o),
(940,1492,cs),
(914,1492,o),
(896,1506,o),
(896,1546,cs),
(896,1588,o),
(936,1632,o),
(1199,1763,cs),
(1463,1894,o),
(1665,2013,o),
(1665,2372,cs),
(1665,2585,o),
(1508,2770,o),
(1297,2922,cs),
(1264,2946,o),
(1224,2960,o),
(1180,2960,cs),
(1070,2960,o),
(981,2871,o),
(981,2761,cs),
(981,2693,o),
(1015,2633,o),
(1067,2598,cs),
(1189,2513,o),
(1265,2436,o),
(1265,2372,cs),
(1265,2310,o),
(1203,2212,o),
(1021,2121,cs),
(652,1938,o),
(496,1770,o),
(496,1497,cs),
(496,1239,o),
(673,1072,o),
(899,1072,cs),
(1076,1072,o),
(1224,1169,o),
(1360,1279,cs),
(1461,1360,o),
(1486,1353,o),
(1453,1375,cs),
(1405,1407,o),
(1437,1375,o),
(1437,1283,cs),
(1437,814,ls),
(1437,413,o),
(1396,302,o),
(1110,302,cs),
(875,302,o),
(785,363,o),
(766,698,cs),
(760,802,o),
(674,885,o),
(568,885,cs),
(449,885,o),
(360,782,o),
(371,668,cs)
);
},
{
closed = 1;
nodes = (
(736,2148,o),
(892,2259,o),
(1231,2385,cs),
(1306,2413,o),
(1360,2486,o),
(1360,2572,cs),
(1360,2682,o),
(1271,2771,o),
(1161,2771,cs),
(1136,2771,o),
(1111,2766,o),
(1089,2758,cs),
(680,2599,o),
(415,2406,o),
(314,2149,cs),
(263,2020,o),
(358,1878,o),
(499,1878,cs),
(585,1878,o),
(659,1933,o),
(686,2010,cs)
);
}
);
width = 2300;
}
);
unicode = 73;
},
{
glyphname = J;
lastChange = "2023-06-27 09:24:06 +0000";
layers = (
{
layerId = m01;
shapes = (
{
closed = 1;
nodes = (
(1976,-64,o),
(1994,-46,o),
(1994,-24,cs),
(1991,868,o),
(1877,968,o),
(1306,968,cs),
(1072,968,o),
(970,1024,o),
(970,1228,cs),
(970,1506,o),
(1103,1512,o),
(1656,1478,cs),
(1679,1477,o),
(1698,1495,o),
(1698,1518,cs),
(1698,1539,o),
(1681,1557,o),
(1660,1558,cs),
(1098,1592,o),
(890,1587,o),
(890,1228,cs),
(890,972,o),
(1046,888,o),
(1306,888,cs),
(1839,888,o),
(1912,825,o),
(1914,-24,cs),
(1914,-46,o),
(1932,-64,o),
(1954,-64,cs)
);
},
{
closed = 1;
nodes = (
(204,42,o),
(216,49,o),
(224,59,c),
(373,283,o),
(487,594,o),
(526,878,cs),
(569,1187,o),
(605,2072,o),
(572,2826,cs),
(571,2847,o),
(553,2864,o),
(532,2864,cs),
(509,2864,o),
(491,2845,o),
(492,2822,cs),
(525,2072,o),
(489,1195,o),
(446,890,cs),
(409,614,o),
(300,318,o),
(157,104,cs),
(153,98,o),
(150,90,o),
(150,82,cs),
(150,60,o),
(168,42,o),
(190,42,cs)
);
},
{
closed = 1;
nodes = (
(888,1644,o),
(906,1661,o),
(907,1682,cs),
(916,1882,o),
(1014,1956,o),
(1178,1956,cs),
(1450,1956,ls),
(1698,1956,o),
(1814,2096,o),
(1814,2296,cs),
(1814,2493,o),
(1702,2612,o),
(1450,2612,cs),
(590,2612,ls),
(568,2612,o),
(550,2594,o),
(550,2572,cs),
(550,2550,o),
(568,2532,o),
(590,2532,cs),
(1450,2532,ls),
(1658,2532,o),
(1734,2459,o),
(1734,2296,cs),
(1734,2130,o),
(1655,2036,o),
(1450,2036,cs),
(1178,2036,ls),
(980,2036,o),
(840,1928,o),
(827,1686,cs),
(826,1663,o),
(844,1644,o),
(867,1644,cs)
);
}
);
width = 2200;
},
{
layerId = "C4A30611-87D3-4B41-A69F-FBC49DBA4127";
shapes = (
{
closed = 1;
nodes = (
(2070,-76,o),
(2146,8,o),
(2146,104,cs),
(2126,972,o),
(1934,1108,o),
(1318,1108,cs),
(1122,1108,o),
(1122,1108,o),
(1122,1228,cs),
(1122,1356,o),
(1122,1372,o),
(1534,1348,cs),
(1634,1340,o),
(1726,1420,o),
(1726,1524,cs),
(1726,1620,o),
(1646,1700,o),
(1550,1704,cs),
(970,1724,o),
(762,1636,o),
(762,1228,cs),
(762,920,o),
(950,748,o),
(1318,748,cs),
(1754,748,o),
(1782,748,o),
(1786,100,cs),
(1786,4,o),
(1866,-76,o),
(1966,-76,cs)
);
},
{
closed = 1;
nodes = (
(334,8,o),
(394,48,o),
(426,104,cs),
(550,328,o),
(642,604,o),
(678,860,cs),
(718,1156,o),
(754,1972,o),
(730,2704,cs),
(726,2800,o),
(646,2880,o),
(550,2880,cs),
(442,2880,o),
(366,2788,o),
(370,2692,cs),
(394,1980,o),
(358,1192,o),
(318,908,cs),
(290,688,o),
(214,460,o),
(110,276,cs),
(98,252,o),
(90,220,o),
(90,188,cs),
(90,88,o),
(170,8,o),
(266,8,cs)
);
},
{
closed = 1;
nodes = (
(1022,1672,o),
(1090,1728,o),
(1106,1772,cs),
(1118,1812,o),
(1150,1816,o),
(1230,1816,cs),
(1462,1816,ls),
(1794,1816,o),
(1966,2028,o),
(1966,2296,cs),
(1966,2556,o),
(1806,2752,o),
(1462,2752,cs),
(730,2752,ls),
(630,2752,o),
(550,2672,o),
(550,2572,cs),
(550,2472,o),
(630,2392,o),
(730,2392,cs),
(1462,2392,ls),
(1606,2392,o),
(1606,2392,o),
(1606,2296,cs),
(1606,2180,o),
(1602,2176,o),
(1462,2176,cs),
(1230,2176,ls),
(1014,2176,o),
(834,2068,o),
(786,1928,cs),
(734,1784,o),
(818,1672,o),
(938,1672,cs)
);
}
);
width = 2300;
}
);
unicode = 74;
},
{
glyphname = K;
lastChange = "2023-06-27 09:24:24 +0000";
layers = (
{
layerId = m01;
shapes = (
{
closed = 1;
nodes = (
(551,-4,o),
(569,16,o),
(568,38,cs),
(501,1081,o),
(597,1364,o),
(1003,1697,cs),
(1270,1914,o),
(1406,2104,o),
(1406,2276,cs),
(1406,2459,o),
(1227,2536,o),
(830,2540,cs),
(808,2540,o),
(790,2522,o),
(790,2500,cs),
(790,2478,o),
(808,2460,o),
(830,2460,cs),
(1202,2457,o),
(1326,2401,o),
(1326,2276,cs),
(1326,2133,o),
(1209,1968,o),
(953,1759,cs),
(526,1409,o),
(420,1096,o),
(488,33,cs),
(489,12,o),
(506,-4,o),
(528,-4,cs)
);
},
{
closed = 1;
nodes = (
(2032,428,o),
(2050,446,o),
(2050,468,cs),
(2050,490,o),
(2032,508,o),
(2010,508,cs),
(1342,508,o),
(1176,511,o),
(771,686,cs),
(742,699,o),
(715,677,o),
(715,650,cs),
(715,633,o),
(725,619,o),
(739,613,cs),
(1159,431,o),
(1341,428,o),
(2010,428,cs)
);
},
{
closed = 1;
nodes = (
(1380,468,o),
(1398,486,o),
(1398,508,cs),
(1398,1634,ls),
(1398,1656,o),
(1380,1674,o),
(1358,1674,cs),
(1336,1674,o),
(1318,1656,o),
(1318,1634,cs),
(1318,508,ls),
(1318,486,o),
(1336,468,o),
(1358,468,cs)
);
},
{
closed = 1;
nodes = (
(2036,988,o),
(2054,1006,o),
(2054,1028,cs),
(2054,1050,o),
(2036,1068,o),
(2014,1068,cs),
(1340,1069,o),
(1092,1089,o),
(680,1299,cs),
(675,1302,o),
(669,1303,o),
(662,1303,cs),
(640,1303,o),
(622,1286,o),
(622,1263,cs),
(622,1248,o),
(631,1234,o),
(644,1228,cs),
(1071,1010,o),
(1336,989,o),
(2014,988,cs)
);
},
{
closed = 1;
nodes = (
(121,1762,o),
(127,1764,o),
(133,1768,cs),
(628,2059,o),
(858,2337,o),
(914,2820,cs),
(917,2842,o),
(899,2864,o),
(874,2864,cs),
(854,2864,o),
(837,2849,o),
(834,2829,cs),
(782,2373,o),
(572,2119,o),
(93,1837,cs),
(81,1830,o),
(73,1817,o),
(73,1802,cs),
(73,1780,o),
(91,1762,o),
(113,1762,cs)
);
},
{
closed = 1;
nodes = (
(2068,1568,o),
(2086,1586,o),
(2086,1608,cs),
(2086,1630,o),
(2068,1648,o),
(2046,1648,cs),
(1332,1650,o),
(938,1713,o),
(527,2052,cs),
(520,2057,o),
(511,2061,o),
(502,2061,cs),
(479,2061,o),
(462,2043,o),
(462,2021,cs),
(462,2008,o),
(467,1997,o),
(476,1990,cs),
(905,1636,o),
(1323,1570,o),
(2046,1568,cs)
);
}
);
width = 2200;
},
{
layerId = "C4A30611-87D3-4B41-A69F-FBC49DBA4127";
shapes = (
{
closed = 1;
nodes = (
(664,-52,o),
(744,40,o),
(736,140,cs),
(688,1048,o),
(772,1264,o),
(1128,1556,cs),
(1420,1792,o),
(1584,2016,o),
(1584,2244,cs),
(1584,2480,o),
(1412,2616,o),
(1004,2644,cs),
(900,2648,o),
(812,2568,o),
(812,2464,cs),
(812,2368,o),
(892,2288,o),
(992,2288,cs),
(1212,2284,o),
(1224,2272,o),
(1224,2244,cs),
(1224,2144,o),
(1144,2032,o),
(904,1836,cs),
(456,1468,o),
(324,1128,o),
(380,120,cs),
(384,24,o),
(464,-52,o),
(560,-52,cs)
);
},
{
closed = 1;
nodes = (
(2020,256,o),
(2104,336,o),
(2104,436,cs),
(2104,536,o),
(2020,616,o),
(1924,616,cs),
(1424,616,o),
(1236,624,o),
(1020,712,cs),
(920,752,o),
(772,692,o),
(772,544,cs),
(772,468,o),
(820,404,o),
(888,376,cs),
(1172,260,o),
(1408,256,o),
(1920,256,cs)
);
},
{
closed = 1;
nodes = (
(1496,444,o),
(1576,524,o),
(1576,624,cs),
(1576,1448,ls),
(1576,1544,o),
(1496,1628,o),
(1396,1628,cs),
(1296,1628,o),
(1216,1544,o),
(1216,1448,cs),
(1216,624,ls),
(1216,524,o),
(1296,444,o),
(1396,444,cs)
);
},
{
closed = 1;
nodes = (
(2024,816,o),
(2108,896,o),
(2108,996,cs),
(2108,1096,o),
(2024,1176,o),
(1928,1176,cs),
(1408,1176,o),
(1184,1192,o),
(888,1336,c),
(864,1344,o),
(840,1352,o),
(812,1352,cs),
(712,1352,o),
(632,1272,o),
(632,1172,cs),
(632,1100,o),
(672,1040,o),
(732,1012,cs),
(1100,832,o),
(1392,816,o),
(1924,816,cs)
);
},
{
closed = 1;
nodes = (
(296,1656,o),
(328,1668,o),
(356,1684,cs),
(760,1944,o),
(988,2220,o),
(1068,2632,cs),
(1092,2740,o),
(1008,2848,o),
(892,2848,cs),
(804,2848,o),
(732,2784,o),
(716,2700,cs),
(656,2388,o),
(504,2204,o),
(164,1988,cs),
(112,1956,o),
(80,1900,o),
(80,1836,cs),
(80,1736,o),
(160,1656,o),
(260,1656,cs)
);
},
{
closed = 1;
nodes = (
(2056,1396,o),
(2140,1476,o),
(2140,1576,cs),
(2140,1676,o),
(2056,1756,o),
(1960,1756,cs),
(1392,1764,o),
(1068,1820,o),
(744,2056,cs),
(716,2080,o),
(680,2092,o),
(640,2092,cs),
(540,2092,o),
(460,2012,o),
(460,1912,cs),
(460,1852,o),
(488,1800,o),
(532,1764,cs),
(932,1476,o),
(1344,1408,o),
(1956,1396,cs)
);
}
);
width = 2300;
}
);
unicode = 75;
},
{
glyphname = L;
lastChange = "2023-06-27 09:25:10 +0000";
layers = (
{
layerId = m01;
shapes = (
{
closed = 1;
nodes = (
(279,282,o),
(405,592,o),
(471,875,cs),
(547,1187,o),
(533,2073,o),
(479,2827,cs),
(477,2848,o),
(460,2864,o),
(439,2864,cs),
(416,2864,o),
(397,2844,o),
(399,2821,cs),
(453,2070,o),
(467,1196,o),
(393,893,cs),
(329,617,o),
(208,319,o),
(63,104,cs),
(59,98,o),
(56,90,o),
(56,82,cs),
(56,60,o),
(74,42,o),
(96,42,cs),
(110,42,o),
(122,49,o),
(130,59,c)
);
},
{
closed = 1;
nodes = (
(810,1865,o),
(927,1936,o),
(1096,1936,cs),
(1448,1936,ls),
(1709,1936,o),
(1896,2045,o),
(1896,2252,cs),
(1896,2448,o),
(1793,2568,o),
(1536,2568,cs),
(508,2568,ls),
(486,2568,o),
(468,2550,o),
(468,2528,cs),
(468,2506,o),
(486,2488,o),
(508,2488,cs),
(1536,2488,ls),
(1747,2488,o),
(1816,2416,o),
(1816,2252,cs),
(1816,2095,o),
(1681,2016,o),
(1448,2016,cs),
(1096,2016,ls),
(898,2016,o),
(733,1916,o),
(721,1610,cs),
(720,1587,o),
(738,1568,o),
(761,1568,cs),
(782,1568,o),
(800,1585,o),
(801,1606,cs)
);
},
{
closed = 1;
nodes = (
(692,1280,ls),
(670,1280,o),
(652,1262,o),
(652,1240,cs),
(652,1218,o),
(670,1200,o),
(692,1200,cs),
(2120,1200,ls),
(2142,1200,o),
(2160,1218,o),
(2160,1240,cs),
(2160,1262,o),
(2142,1280,o),
(2120,1280,cs)
);
},
{
closed = 1;
nodes = (
(1630,576,o),
(1469,1115,o),
(1445,1797,cs),
(1444,1819,o),
(1427,1836,o),
(1405,1836,cs),
(1383,1836,o),
(1364,1817,o),
(1365,1795,cs),
(1390,1100,o),
(1558,535,o),
(2062,48,cs),
(2069,41,o),
(2079,37,o),
(2090,37,cs),
(2112,37,o),
(2130,55,o),
(2130,77,cs),
(2130,88,o),
(2125,98,o),
(2118,106,c)
);
}
);
width = 2200;
},
{
layerId = "C4A30611-87D3-4B41-A69F-FBC49DBA4127";
shapes = (
{
closed = 1;
nodes = (
(512,276,o),
(616,552,o),
(676,800,cs),
(752,1112,o),
(744,1936,o),
(696,2664,cs),
(688,2760,o),
(612,2836,o),
(516,2836,cs),
(412,2836,o),
(328,2748,o),
(336,2644,cs),
(380,1928,o),
(392,1152,o),
(324,880,cs),
(272,656,o),
(184,424,o),
(76,236,cs),
(60,208,o),
(52,176,o),
(52,144,cs),
(52,44,o),
(132,-36,o),
(232,-36,cs),
(296,-36,o),
(356,0,o),
(388,56,cs)
);
},
{
closed = 1;
nodes = (
(1140,1744,o),
(1176,1752,o),
(1276,1752,cs),
(1516,1752,ls),
(1892,1752,o),
(2104,1944,o),
(2104,2208,cs),
(2104,2472,o),
(1892,2664,o),
(1516,2664,cs),
(704,2664,ls),
(604,2664,o),
(524,2584,o),
(524,2484,cs),
(524,2384,o),
(604,2304,o),
(704,2304,cs),
(1516,2304,ls),
(1712,2304,o),
(1744,2284,o),
(1744,2208,cs),
(1744,2132,o),
(1712,2112,o),
(1516,2112,cs),
(1276,2112,ls),
(1056,2112,o),
(848,2004,o),
(780,1724,cs),
(756,1616,o),
(836,1508,o),
(952,1508,cs),
(1040,1508,o),
(1116,1572,o),
(1128,1660,cs)
);
},
{
closed = 1;
nodes = (
(952,1376,ls),
(852,1376,o),
(772,1296,o),
(772,1196,cs),
(772,1096,o),
(852,1016,o),
(952,1016,cs),
(2064,1016,ls),
(2160,1016,o),
(2244,1096,o),
(2244,1196,cs),
(2244,1296,o),
(2160,1376,o),
(2064,1376,cs)
);
},
{
closed = 1;
nodes = (
(1832,640,o),
(1692,1076,o),
(1664,1548,cs),
(1660,1644,o),
(1584,1720,o),
(1488,1720,cs),
(1384,1720,o),
(1300,1632,o),
(1308,1528,cs),
(1340,996,o),
(1508,464,o),
(1940,0,cs),
(1972,-36,o),
(2016,-56,o),
(2068,-56,cs),
(2168,-56,o),
(2248,24,o),
(2248,124,cs),
(2248,172,o),
(2232,212,o),
(2200,244,cs)
);
}
);
width = 2300;
}
);
unicode = 76;
},
{
glyphname = M;
lastChange = "2023-06-27 09:25:55 +0000";
layers = (
{
layerId = m01;
shapes = (
{
closed = 1;
nodes = (
(796,2712,ls),
(774,2712,o),
(756,2694,o),
(756,2672,cs),
(756,2650,o),
(774,2632,o),
(796,2632,cs),
(1948,2632,ls),
(1970,2632,o),
(1988,2650,o),
(1988,2672,cs),
(1988,2694,o),
(1970,2712,o),
(1948,2712,cs)
);
},
{
closed = 1;
nodes = (
(1707,2177,o),
(1563,2020,o),
(1384,2020,cs),
(1200,2020,o),
(1049,2178,o),
(986,2481,cs),
(982,2499,o),
(966,2513,o),
(947,2513,cs),
(922,2513,o),
(903,2489,o),
(908,2464,cs),
(977,2134,o),
(1161,1940,o),
(1384,1940,cs),
(1603,1940,o),
(1780,2134,o),
(1834,2466,cs),
(1838,2490,o),
(1819,2512,o),
(1795,2512,cs),
(1775,2512,o),
(1758,2498,o),
(1755,2479,cs)
);
},
{
closed = 1;
nodes = (
(1344,-24,ls),
(1344,-46,o),
(1362,-64,o),
(1384,-64,cs),
(1406,-64,o),
(1424,-46,o),
(1424,-24,cs),
(1424,1948,ls),
(1424,1970,o),
(1406,1988,o),
(1384,1988,cs),
(1362,1988,o),
(1344,1970,o),
(1344,1948,cs)
);
},
{
closed = 1;
nodes = (
(1916,392,o),
(1918,750,o),
(1863,1036,cs),
(1805,1334,o),
(1678,1564,o),
(1384,1564,cs),
(1001,1564,o),
(957,1275,o),
(916,957,cs),
(886,711,o),
(852,442,o),
(679,216,cs),
(674,210,o),
(671,201,o),
(671,192,cs),
(671,170,o),
(688,152,o),
(710,152,cs),
(723,152,o),
(735,158,o),
(742,168,cs),
(929,411,o),
(965,701,o),
(996,947,cs),
(1036,1262,o),
(1070,1484,o),
(1384,1484,cs),
(1629,1484,o),
(1730,1302,o),
(1785,1020,cs),
(1838,743,o),
(1836,390,o),
(1854,74,cs),
(1855,53,o),
(1873,36,o),
(1894,36,cs),
(1917,36,o),
(1935,56,o),
(1934,78,cs)
);
},
{
closed = 1;
nodes = (
(405,260,o),
(512,444,o),
(512,832,cs),
(512,2764,ls),
(512,2786,o),
(494,2804,o),
(472,2804,cs),
(450,2804,o),
(432,2786,o),
(432,2764,cs),
(432,832,ls),
(432,469,o),
(340,310,o),
(105,102,cs),
(96,94,o),
(91,84,o),
(91,72,cs),
(91,50,o),
(109,32,o),
(131,32,cs),
(141,32,o),
(151,35,o),
(158,42,cs)
);
}
);
width = 2200;
},
{
layerId = "C4A30611-87D3-4B41-A69F-FBC49DBA4127";
shapes = (
{
closed = 1;
nodes = (
(950,2864,ls),
(850,2864,o),
(770,2784,o),
(770,2684,cs),
(770,2584,o),
(850,2504,o),
(950,2504,cs),
(1850,2504,ls),
(1946,2504,o),
(2030,2584,o),
(2030,2684,cs),
(2030,2784,o),
(1946,2864,o),
(1850,2864,cs)
);
},
{
closed = 1;
nodes = (
(1578,2176,o),
(1510,2116,o),
(1410,2116,cs),
(1306,2116,o),
(1226,2180,o),
(1178,2312,cs),
(1154,2384,o),
(1086,2440,o),
(1002,2440,cs),
(862,2440,o),
(806,2296,o),
(838,2204,cs),
(938,1940,o),
(1150,1756,o),
(1410,1756,cs),
(1666,1756,o),
(1874,1944,o),
(1962,2208,cs),
(1998,2324,o),
(1914,2436,o),
(1794,2436,cs),
(1710,2436,o),
(1642,2380,o),
(1618,2300,cs)
);
},
{
closed = 1;
nodes = (
(1230,104,ls),
(1230,4,o),
(1310,-76,o),
(1410,-76,cs),
(1510,-76,o),
(1590,4,o),
(1590,104,cs),
(1590,1824,ls),
(1590,1920,o),
(1510,2004,o),
(1410,2004,cs),
(1310,2004,o),
(1230,1920,o),
(1230,1824,cs)
);
},
{
closed = 1;
nodes = (
(2082,492,o),
(2078,804,o),
(2026,1064,cs),
(1962,1396,o),
(1798,1704,o),
(1410,1704,cs),
(966,1704,o),
(858,1404,o),
(802,976,cs),
(778,764,o),
(754,564,o),
(650,388,cs),
(634,360,o),
(626,328,o),
(626,296,cs),
(626,196,o),
(706,116,o),
(806,116,cs),
(874,116,o),
(930,152,o),
(962,208,cs),
(1102,452,o),
(1134,720,o),
(1162,928,cs),
(1202,1244,o),
(1218,1344,o),
(1410,1344,cs),
(1574,1344,o),
(1622,1252,o),
(1674,992,cs),
(1718,764,o),
(1722,476,o),
(1734,196,cs),
(1738,100,o),
(1818,20,o),
(1914,20,cs),
(2018,20,o),
(2098,112,o),
(2094,208,cs)
);
},
{
closed = 1;
nodes = (
(558,240,o),
(658,456,o),
(658,832,cs),
(658,2680,ls),
(658,2776,o),
(578,2860,o),
(478,2860,cs),
(378,2860,o),
(298,2776,o),
(298,2680,cs),
(298,832,ls),
(298,556,o),
(254,436,o),
(102,284,cs),
(70,252,o),
(50,208,o),
(50,156,cs),
(50,60,o),
(130,-24,o),
(230,-24,cs),
(278,-24,o),
(326,0,o),
(358,32,cs)
);
}
);
width = 2300;
}
);
unicode = 77;
},
{
glyphname = N;
lastChange = "2023-06-27 09:26:15 +0000";
layers = (
{
layerId = m01;
shapes = (
{
closed = 1;
nodes = (
(373,2712,ls),
(351,2712,o),
(333,2694,o),
(333,2672,cs),
(333,2650,o),
(351,2632,o),
(373,2632,cs),
(1829,2632,ls),
(1851,2632,o),
(1869,2650,o),
(1869,2672,cs),
(1869,2694,o),
(1851,2712,o),
(1829,2712,cs)
);
},
{
closed = 1;
nodes = (
(1530,2180,o),
(1345,2020,o),
(1117,2020,cs),
(877,2020,o),
(687,2181,o),
(608,2483,cs),
(604,2500,o),
(588,2513,o),
(570,2513,cs),
(543,2513,o),
(524,2488,o),
(531,2463,cs),
(618,2132,o),
(843,1940,o),
(1117,1940,cs),
(1380,1940,o),
(1601,2132,o),
(1670,2465,cs),
(1675,2489,o),
(1656,2513,o),
(1630,2513,cs),
(1611,2513,o),
(1595,2499,o),
(1591,2481,cs)
);
},
{
closed = 1;
nodes = (
(1077,-24,ls),
(1077,-46,o),
(1095,-64,o),
(1117,-64,cs),
(1139,-64,o),
(1157,-46,o),
(1157,-24,cs),
(1157,1948,ls),
(1157,1970,o),
(1139,1988,o),
(1117,1988,cs),
(1095,1988,o),
(1077,1970,o),
(1077,1948,cs)
);
},
{
closed = 1;
nodes = (
(1770,392,o),
(1774,751,o),
(1704,1037,cs),
(1633,1337,o),
(1473,1564,o),
(1117,1564,cs),
(643,1564,o),
(594,1275,o),
(542,959,cs),
(499,711,o),
(458,443,o),
(242,217,cs),
(235,210,o),
(230,200,o),
(230,189,cs),
(230,167,o),
(248,150,o),
(270,150,cs),
(282,150,o),
(292,154,o),
(299,162,cs),
(534,406,o),
(578,698,o),
(620,945,cs),
(672,1261,o),
(711,1484,o),
(1117,1484,cs),
(1428,1484,o),
(1560,1299,o),
(1626,1019,cs),
(1694,742,o),
(1689,390,o),
(1711,73,cs),
(1712,52,o),
(1729,36,o),
(1750,36,cs),
(1773,36,o),
(1792,56,o),
(1790,79,cs)
);
}
);
width = 2200;
},
{
layerId = "C4A30611-87D3-4B41-A69F-FBC49DBA4127";
shapes = (
{
closed = 1;
nodes = (
(523,2864,ls),
(423,2864,o),
(343,2784,o),
(343,2684,cs),
(343,2584,o),
(423,2504,o),
(523,2504,cs),
(1727,2504,ls),
(1823,2504,o),
(1907,2584,o),
(1907,2684,cs),
(1907,2784,o),
(1823,2864,o),
(1727,2864,cs)
);
},
{
closed = 1;
nodes = (
(1395,2172,o),
(1291,2100,o),
(1139,2100,cs),
(979,2100,o),
(867,2172,o),
(795,2356,cs),
(771,2424,o),
(707,2472,o),
(631,2472,cs),
(483,2472,o),
(431,2352,o),
(467,2228,cs),
(591,1920,o),
(843,1740,o),
(1139,1740,cs),
(1431,1740,o),
(1675,1924,o),
(1787,2232,cs),
(1827,2336,o),
(1755,2472,o),
(1619,2472,cs),
(1539,2472,o),
(1475,2420,o),
(1451,2348,cs)
);
},
{
closed = 1;
nodes = (
(959,104,ls),
(959,4,o),
(1039,-76,o),
(1139,-76,cs),
(1239,-76,o),
(1319,4,o),
(1319,104,cs),
(1319,1824,ls),
(1319,1920,o),
(1239,2004,o),
(1139,2004,cs),
(1039,2004,o),
(959,1920,o),
(959,1824,cs)
);
},
{
closed = 1;
nodes = (
(1931,492,o),
(1927,808,o),
(1863,1072,cs),
(1783,1408,o),
(1579,1704,o),
(1139,1704,cs),
(547,1704,o),
(479,1300,o),
(427,980,cs),
(387,768,o),
(359,568,o),
(227,392,cs),
(207,364,o),
(195,324,o),
(195,284,cs),
(195,188,o),
(275,104,o),
(375,104,cs),
(431,104,o),
(487,136,o),
(519,180,cs),
(703,432,o),
(743,708,o),
(779,924,cs),
(831,1240,o),
(851,1344,o),
(1139,1344,cs),
(1379,1344,o),
(1451,1240,o),
(1511,984,cs),
(1567,760,o),
(1571,476,o),
(1587,192,cs),
(1591,96,o),
(1667,20,o),
(1767,20,cs),
(1871,20,o),
(1951,112,o),
(1947,212,cs)
);
}
);
width = 2300;
}
);
unicode = 78;
},
{
glyphname = O;
lastChange = "2023-06-27 09:26:33 +0000";
layers = (
{
layerId = m01;
shapes = (
{
closed = 1;
nodes = (
(1749,-160,o),
(1767,-143,o),
(1768,-122,cs),
(1820,881,o),
(1723,1150,o),
(1181,1451,cs),
(502,1831,o),
(546,2049,o),
(1042,2756,cs),
(1047,2762,o),
(1049,2770,o),
(1049,2779,cs),
(1049,2801,o),
(1031,2819,o),
(1009,2819,cs),
(996,2819,o),
(984,2812,o),
(977,2802,cs),
(468,2076,o),
(406,1793,o),
(1143,1381,cs),
(1655,1096,o),
(1740,864,o),
(1688,-118,cs),
(1687,-141,o),
(1705,-160,o),
(1728,-160,cs)
);
},
{
closed = 1;
nodes = (
(700,104,o),
(910,486,o),
(1087,1417,cs),
(1091,1442,o),
(1072,1465,o),
(1047,1465,cs),
(1028,1465,o),
(1012,1451,o),
(1008,1432,cs),
(835,521,o),
(647,184,o),
(394,184,cs),
(238,184,o),
(214,249,o),
(233,316,cs),
(240,341,o),
(221,366,o),
(195,366,cs),
(176,366,o),
(160,353,o),
(156,335,cs),
(131,229,o),
(179,104,o),
(394,104,cs)
);
},
{
closed = 1;
nodes = (
(1320,-32,o),
(1336,-18,o),
(1339,2,cs),
(1377,260,o),
(1393,553,o),
(1394,820,cs),
(1394,842,o),
(1376,860,o),
(1354,860,cs),
(1332,860,o),
(1314,842,o),
(1314,820,cs),
(1313,555,o),
(1298,268,o),
(1260,13,cs),
(1256,-10,o),
(1274,-32,o),
(1299,-32,cs)
);
},
{
closed = 1;
nodes = (
(1912,1578,o),
(1930,1596,o),
(1930,1618,cs),
(1930,1626,o),
(1927,1634,o),
(1923,1640,cs),
(1595,2126,o),
(1355,2256,o),
(722,2256,cs),
(330,2256,o),
(228,2400,o),
(394,2816,c),
(402,2837,o),
(389,2871,o),
(356,2871,cs),
(340,2871,o),
(325,2860,o),
(319,2845,cs),
(137,2383,o),
(279,2176,o),
(722,2176,cs),
(1331,2176,o),
(1541,2063,o),
(1857,1596,cs),
(1864,1585,o),
(1876,1578,o),
(1890,1578,cs)
);
}
);
width = 2200;
},
{
layerId = "C4A30611-87D3-4B41-A69F-FBC49DBA4127";
shapes = (
{
closed = 1;
nodes = (
(1981,-176,o),
(2061,-96,o),
(2065,0,cs),
(2101,940,o),
(1977,1252,o),
(1401,1572,cs),
(845,1884,o),
(829,1984,o),
(1237,2572,cs),
(1257,2604,o),
(1269,2636,o),
(1269,2676,cs),
(1269,2776,o),
(1189,2856,o),
(1089,2856,cs),
(1025,2856,o),
(973,2824,o),
(941,2776,cs),
(473,2080,o),
(425,1704,o),
(1225,1260,cs),
(1669,1012,o),
(1745,856,o),
(1705,12,cs),
(1701,-84,o),
(1781,-176,o),
(1885,-176,cs)
);
},
{
closed = 1;
nodes = (
(933,-36,o),
(1169,380,o),
(1349,1264,cs),
(1373,1372,o),
(1293,1480,o),
(1173,1480,cs),
(1085,1480,o),
(1013,1420,o),
(997,1336,cs),
(841,548,o),
(709,324,o),
(545,324,cs),
(457,324,o),
(437,352,o),
(449,396,cs),
(469,484,o),
(453,536,o),
(377,564,cs),
(309,592,o),
(253,548,o),
(209,468,cs),
(93,264,o),
(177,-36,o),
(545,-36,cs)
);
},
{
closed = 1;
nodes = (
(1501,-48,o),
(1577,24,o),
(1585,112,cs),
(1609,300,o),
(1621,500,o),
(1625,692,cs),
(1625,788,o),
(1545,876,o),
(1445,876,cs),
(1345,876,o),
(1265,796,o),
(1265,696,cs),
(1261,516,o),
(1249,328,o),
(1229,152,cs),
(1217,48,o),
(1301,-48,o),
(1405,-48,cs)
);
},
{
closed = 1;
nodes = (
(2069,1540,o),
(2149,1620,o),
(2149,1720,cs),
(2149,1760,o),
(2137,1796,o),
(2113,1828,cs),
(1793,2264,o),
(1505,2396,o),
(873,2396,cs),
(593,2396,o),
(541,2416,o),
(629,2652,cs),
(665,2744,o),
(609,2892,o),
(465,2892,cs),
(385,2892,o),
(317,2840,o),
(293,2764,cs),
(141,2236,o),
(437,2036,o),
(873,2036,cs),
(1401,2036,o),
(1569,1968,o),
(1825,1616,cs),
(1857,1572,o),
(1909,1540,o),
(1969,1540,cs)
);
}
);
width = 2300;
}
);
unicode = 79;
},
{
glyphname = P;
lastChange = "2023-06-27 09:32:31 +0000";
layers = (
{
layerId = m01;
shapes = (
{
closed = 1;
nodes = (
(1015,1096,o),
(1194,956,o),
(1440,956,cs),
(1686,956,o),
(1800,829,o),
(1800,548,cs),
(1800,244,o),
(1679,156,o),
(1372,156,cs),
(936,156,ls),
(595,156,o),
(464,322,o),
(464,704,cs),
(464,1264,ls),
(464,1609,o),
(591,1716,o),
(872,1716,cs),
(1288,1716,ls),
(1551,1716,o),
(1696,1782,o),
(1696,2016,cs),
(1696,2241,o),
(1560,2396,o),
(1288,2396,cs),
(720,2396,ls),
(415,2396,o),
(377,2477,o),
(500,2788,cs),
(509,2811,o),
(495,2843,o),
(463,2843,cs),
(446,2843,o),
(431,2832,o),
(425,2817,cs),
(290,2468,o),
(353,2316,o),
(720,2316,cs),
(1288,2316,ls),
(1518,2316,o),
(1616,2205,o),
(1616,2016,cs),
(1616,1837,o),
(1527,1796,o),
(1288,1796,cs),
(872,1796,ls),
(556,1796,o),
(384,1652,o),
(384,1264,cs),
(384,704,ls),
(384,288,o),
(552,76,o),
(936,76,cs),
(1372,76,ls),
(1711,76,o),
(1880,199,o),
(1880,548,cs),
(1880,867,o),
(1725,1036,o),
(1440,1036,cs),
(1228,1036,o),
(1092,1141,o),
(1081,1394,cs),
(1080,1415,o),
(1062,1432,o),
(1041,1432,cs),
(1018,1432,o),
(1000,1413,o),
(1001,1390,cs)
);
}
);
width = 2200;
},
{
layerId = "C4A30611-87D3-4B41-A69F-FBC49DBA4127";
shapes = (
{
closed = 1;
nodes = (
(983,960,o),
(1199,820,o),
(1467,820,cs),
(1651,820,o),
(1687,780,o),
(1687,552,cs),
(1687,320,o),
(1659,300,o),
(1399,300,cs),
(963,300,ls),
(691,300,o),
(631,376,o),
(631,708,cs),
(631,1268,ls),
(631,1548,o),
(667,1580,o),
(899,1580,cs),
(1315,1580,ls),
(1711,1580,o),
(1863,1748,o),
(1863,2020,cs),
(1863,2316,o),
(1671,2540,o),
(1315,2540,cs),
(747,2540,ls),
(619,2540,o),
(587,2540,o),
(619,2668,cs),
(651,2796,o),
(603,2864,o),
(507,2892,cs),
(407,2920,o),
(299,2844,o),
(275,2744,cs),
(183,2388,o),
(315,2180,o),
(747,2180,cs),
(1315,2180,ls),
(1483,2180,o),
(1503,2156,o),
(1503,2020,cs),
(1503,1940,o),
(1503,1940,o),
(1315,1940,cs),
(899,1940,ls),
(511,1940,o),
(271,1740,o),
(271,1268,cs),
(271,708,ls),
(271,224,o),
(491,-60,o),
(963,-60,cs),
(1399,-60,ls),
(1803,-60,o),
(2047,112,o),
(2047,552,cs),
(2047,944,o),
(1835,1180,o),
(1467,1180,cs),
(1335,1180,o),
(1275,1204,o),
(1255,1308,cs),
(1239,1392,o),
(1167,1452,o),
(1083,1452,cs),
(967,1452,o),
(883,1340,o),
(911,1232,cs)
);
}
);
width = 2300;
}
);
unicode = 80;
},
{
glyphname = Q;
lastChange = "2023-06-27 09:33:11 +0000";
layers = (
{
layerId = m01;
shapes = (
{
closed = 1;
nodes = (
(1398,24,o),
(1790,251,o),
(1790,652,cs),
(1790,978,o),
(1609,1211,o),
(1215,1299,cs),
(906,1366,o),
(662,1463,o),
(662,1784,cs),
(662,2177,o),
(723,2411,o),
(1037,2734,cs),
(1044,2742,o),
(1049,2752,o),
(1049,2762,cs),
(1049,2784,o),
(1031,2802,o),
(1009,2802,cs),
(997,2802,o),
(987,2798,o),
(980,2790,cs),
(649,2450,o),
(582,2189,o),
(582,1784,cs),
(582,1407,o),
(880,1290,o),
(1197,1221,cs),
(1559,1140,o),
(1710,946,o),
(1710,652,cs),
(1710,302,o),
(1369,104,o),
(758,96,cs),
(736,96,o),
(718,78,o),
(718,56,cs),
(718,34,o),
(736,16,o),
(758,16,cs)
);
},
{
closed = 1;
nodes = (
(1609,1752,o),
(1325,1928,o),
(854,1928,cs),
(422,1928,o),
(303,1989,o),
(298,2532,cs),
(298,2554,o),
(280,2572,o),
(258,2572,cs),
(236,2572,o),
(218,2554,o),
(218,2532,cs),
(225,1933,o),
(396,1848,o),
(854,1848,cs),
(1298,1848,o),
(1549,1694,o),
(1723,1305,cs),
(1729,1291,o),
(1743,1281,o),
(1760,1281,cs),
(1793,1281,o),
(1807,1314,o),
(1796,1337,cs)
);
},
{
closed = 1;
nodes = (
(1632,2203,o),
(1132,2351,o),
(718,2312,cs),
(698,2310,o),
(682,2293,o),
(682,2272,cs),
(682,2247,o),
(703,2230,o),
(726,2232,cs),
(1121,2270,o),
(1583,2132,o),
(1758,1861,cs),
(1765,1850,o),
(1777,1843,o),
(1792,1843,cs),
(1814,1843,o),
(1832,1861,o),
(1832,1883,cs),
(1832,1891,o),
(1829,1898,o),
(1825,1905,cs)
);
},
{
closed = 1;
nodes = (
(889,518,o),
(1047,739,o),
(1054,1276,cs),
(1054,1298,o),
(1036,1316,o),
(1014,1316,cs),
(992,1316,o),
(974,1298,o),
(974,1276,cs),
(968,768,o),
(827,570,o),
(225,86,cs),
(216,78,o),
(210,67,o),
(210,55,cs),
(210,32,o),
(228,15,o),
(250,15,cs),
(260,15,o),
(268,18,o),
(275,23,cs)
);
}
);
width = 2200;
},
{
layerId = "C4A30611-87D3-4B41-A69F-FBC49DBA4127";
shapes = (
{
closed = 1;
nodes = (
(1552,-28,o),
(1968,200,o),
(1968,668,cs),
(1968,1060,o),
(1744,1348,o),
(1284,1452,cs),
(984,1516,o),
(840,1576,o),
(840,1800,cs),
(840,2136,o),
(876,2320,o),
(1096,2568,cs),
(1124,2600,o),
(1140,2640,o),
(1140,2688,cs),
(1140,2784,o),
(1060,2864,o),
(960,2864,cs),
(908,2864,o),
(860,2840,o),
(824,2804,c),
(544,2476,o),
(480,2192,o),
(480,1800,cs),
(480,1320,o),
(872,1172,o),
(1204,1100,cs),
(1516,1032,o),
(1608,916,o),
(1608,668,cs),
(1608,416,o),
(1400,316,o),
(1032,292,cs),
(936,288,o),
(860,208,o),
(860,112,cs),
(860,8,o),
(952,-72,o),
(1052,-64,cs)
);
},
{
closed = 1;
nodes = (
(1708,1904,o),
(1448,2084,o),
(1032,2084,cs),
(552,2084,o),
(484,2088,o),
(476,2428,cs),
(476,2524,o),
(396,2604,o),
(300,2604,cs),
(196,2604,o),
(116,2512,o),
(120,2412,cs),
(160,1832,o),
(424,1724,o),
(1032,1724,cs),
(1312,1724,o),
(1448,1644,o),
(1552,1456,cs),
(1580,1400,o),
(1644,1360,o),
(1712,1360,cs),
(1864,1360,o),
(1924,1516,o),
(1868,1616,cs)
);
},
{
closed = 1;
nodes = (
(1724,2436,o),
(1328,2556,o),
(844,2552,cs),
(744,2552,o),
(664,2472,o),
(664,2376,cs),
(664,2276,o),
(744,2196,o),
(848,2196,cs),
(1260,2200,o),
(1548,2112,o),
(1704,1952,cs),
(1736,1920,o),
(1780,1896,o),
(1832,1896,cs),
(1932,1896,o),
(2012,1976,o),
(2012,2076,cs),
(2012,2124,o),
(1988,2172,o),
(1956,2204,cs)
);
},
{
closed = 1;
nodes = (
(1012,432,o),
(1192,688,o),
(1224,1208,cs),
(1232,1312,o),
(1152,1404,o),
(1048,1404,cs),
(952,1404,o),
(872,1328,o),
(868,1232,cs),
(848,824,o),
(724,660,o),
(272,288,cs),
(232,256,o),
(204,204,o),
(204,148,cs),
(204,52,o),
(288,-28,o),
(384,-28,cs),
(428,-28,o),
(468,-16,o),
(500,12,cs)
);
}
);
width = 2300;
}
);
unicode = 81;
},
{
glyphname = R;
lastChange = "2023-06-27 09:34:09 +0000";
layers = (
{
layerId = m01;
shapes = (
{
closed = 1;
nodes = (
(1906,368,o),
(1886,505,o),
(1886,824,cs),
(1886,1532,ls),
(1886,2089,o),
(1658,2272,o),
(1206,2272,cs),
(722,2272,ls),
(343,2272,o),
(245,2427,o),
(238,2756,cs),
(238,2778,o),
(220,2796,o),
(198,2796,cs),
(176,2796,o),
(158,2777,o),
(158,2755,cs),
(166,2398,o),
(292,2192,o),
(722,2192,cs),
(1206,2192,ls),
(1624,2192,o),
(1806,2045,o),
(1806,1532,cs),
(1806,824,ls),
(1806,497,o),
(1830,332,o),
(2112,56,cs),
(2119,49,o),
(2129,45,o),
(2140,45,cs),
(2162,45,o),
(2180,63,o),
(2180,85,cs),
(2180,96,o),
(2175,106,o),
(2168,114,c)
);
},
{
closed = 1;
nodes = (
(1206,1872,ls),
(1526,1872,o),
(1754,1965,o),
(1754,2244,cs),
(1754,2515,o),
(1624,2640,o),
(1206,2640,cs),
(614,2640,ls),
(592,2640,o),
(574,2622,o),
(574,2600,cs),
(574,2578,o),
(592,2560,o),
(614,2560,cs),
(1206,2560,ls),
(1586,2560,o),
(1674,2475,o),
(1674,2244,cs),
(1674,2023,o),
(1506,1952,o),
(1206,1952,cs),
(310,1952,ls),
(288,1952,o),
(270,1934,o),
(270,1912,cs),
(270,1890,o),
(288,1872,o),
(310,1872,cs)
);
},
{
closed = 1;
nodes = (
(857,201,o),
(818,315,o),
(818,500,cs),
(818,723,o),
(1018,843,o),
(1118,939,cs),
(1208,1026,o),
(1478,1137,o),
(1478,1328,cs),
(1478,1515,o),
(1352,1632,o),
(1054,1632,cs),
(685,1632,o),
(475,1422,o),
(29,857,cs),
(24,850,o),
(20,842,o),
(20,832,cs),
(20,810,o),
(38,792,o),
(60,792,cs),
(73,792,o),
(84,798,o),
(92,807,cs),
(534,1368,o),
(720,1552,o),
(1054,1552,cs),
(1314,1552,o),
(1398,1475,o),
(1398,1328,cs),
(1398,1191,o),
(1164,1094,o),
(1062,997,cs),
(969,908,o),
(738,766,o),
(738,500,cs),
(738,299,o),
(786,158,o),
(996,-30,cs),
(1003,-36,o),
(1013,-40,o),
(1023,-40,cs),
(1045,-40,o),
(1063,-22,o),
(1063,0,cs),
(1063,12,o),
(1058,22,o),
(1050,30,cs)
);
}
);
width = 2200;
},
{
layerId = "C4A30611-87D3-4B41-A69F-FBC49DBA4127";
shapes = (
{
closed = 1;
nodes = (
(2088,500,o),
(2080,596,o),
(2080,864,cs),
(2080,1572,ls),
(2080,2216,o),
(1784,2452,o),
(1260,2452,cs),
(776,2452,ls),
(520,2452,o),
(452,2496,o),
(436,2688,cs),
(428,2780,o),
(352,2852,o),
(260,2852,cs),
(152,2852,o),
(68,2756,o),
(84,2648,cs),
(128,2312,o),
(316,2092,o),
(776,2092,cs),
(1260,2092,ls),
(1628,2092,o),
(1720,2020,o),
(1720,1572,cs),
(1720,864,ls),
(1720,560,o),
(1740,360,o),
(1972,96,cs),
(2004,60,o),
(2052,36,o),
(2108,36,cs),
(2204,36,o),
(2288,116,o),
(2288,216,cs),
(2288,260,o),
(2268,304,o),
(2240,336,cs)
);
},
{
closed = 1;
nodes = (
(1260,1676,ls),
(1704,1676,o),
(1948,1952,o),
(1948,2284,cs),
(1948,2632,o),
(1760,2864,o),
(1260,2864,cs),
(796,2864,ls),
(696,2864,o),
(616,2784,o),
(616,2684,cs),
(616,2584,o),
(696,2504,o),
(796,2504,cs),
(1260,2504,ls),
(1584,2504,o),
(1588,2456,o),
(1588,2284,cs),
(1588,2156,o),
(1532,2036,o),
(1260,2036,cs),
(492,2036,ls),
(392,2036,o),
(312,1956,o),
(312,1856,cs),
(312,1756,o),
(392,1676,o),
(492,1676,cs)
);
},
{
closed = 1;
nodes = (
(1024,156,o),
(1012,220,o),
(1012,348,cs),
(1012,496,o),
(1156,576,o),
(1268,688,cs),
(1396,808,o),
(1672,900,o),
(1672,1176,cs),
(1672,1424,o),
(1504,1620,o),
(1108,1620,cs),
(700,1620,o),
(460,1400,o),
(52,892,cs),
(28,860,o),
(12,820,o),
(12,780,cs),
(12,680,o),
(92,600,o),
(192,600,cs),
(248,600,o),
(300,624,o),
(332,668,cs),
(708,1140,o),
(848,1260,o),
(1108,1260,cs),
(1312,1260,o),
(1312,1260,o),
(1312,1176,cs),
(1312,1132,o),
(1140,1060,o),
(1020,944,cs),
(936,868,o),
(652,692,o),
(652,348,cs),
(652,148,o),
(696,-8,o),
(856,-184,cs),
(888,-220,o),
(936,-244,o),
(988,-244,cs),
(1088,-244,o),
(1168,-164,o),
(1168,-64,cs),
(1168,-16,o),
(1148,24,o),
(1116,56,cs)
);
}
);
width = 2300;
}
);
unicode = 82;
},
{
glyphname = S;
lastChange = "2023-06-27 09:34:37 +0000";
layers = (
{
layerId = m01;
shapes = (
{
closed = 1;
nodes = (
(1782,2631,o),
(1479,2724,o),
(1083,2724,cs),
(670,2724,o),
(385,2630,o),
(177,2482,cs),
(167,2475,o),
(160,2463,o),
(160,2449,cs),
(160,2427,o),
(178,2409,o),
(200,2409,cs),
(209,2409,o),
(217,2412,o),
(223,2417,cs),
(420,2557,o),
(685,2644,o),
(1083,2644,cs),
(1466,2644,o),
(1748,2557,o),
(1935,2418,cs),
(1941,2413,o),
(1950,2410,o),
(1959,2410,cs),
(1981,2410,o),
(1999,2428,o),
(1999,2450,cs),
(1999,2463,o),
(1992,2475,o),
(1982,2482,cs)
);
},
{
closed = 1;
nodes = (
(330,1374,o),
(433,1545,o),
(711,1811,cs),
(1011,2095,o),
(1126,2246,o),
(1004,2657,cs),
(999,2674,o),
(984,2686,o),
(966,2686,cs),
(939,2686,o),
(920,2660,o),
(927,2634,cs),
(1038,2264,o),
(948,2146,o),
(655,1869,cs),
(367,1593,o),
(248,1399,o),
(344,73,cs),
(346,52,o),
(363,36,o),
(384,36,cs),
(407,36,o),
(426,56,o),
(424,79,cs)
);
},
{
closed = 1;
nodes = (
(826,1334,o),
(929,1505,o),
(1207,1771,cs),
(1507,2056,o),
(1622,2206,o),
(1500,2629,cs),
(1495,2645,o),
(1480,2658,o),
(1461,2658,cs),
(1435,2658,o),
(1416,2632,o),
(1423,2606,cs),
(1534,2225,o),
(1444,2107,o),
(1151,1829,cs),
(863,1553,o),
(744,1359,o),
(840,33,cs),
(842,12,o),
(859,-4,o),
(880,-4,cs),
(903,-4,o),
(922,16,o),
(920,39,cs)
);
},
{
closed = 1;
nodes = (
(1921,1433,o),
(1829,1648,o),
(1359,1943,cs),
(1353,1947,o),
(1345,1949,o),
(1338,1949,cs),
(1315,1949,o),
(1298,1931,o),
(1298,1909,cs),
(1298,1895,o),
(1305,1882,o),
(1316,1875,cs),
(1763,1595,o),
(1841,1409,o),
(1820,88,cs),
(1820,66,o),
(1838,48,o),
(1860,48,cs),
(1882,48,o),
(1900,66,o),
(1900,88,cs)
);
}
);
width = 2200;
},
{
layerId = "C4A30611-87D3-4B41-A69F-FBC49DBA4127";
shapes = (
{
closed = 1;
nodes = (
(1763,2796,o),
(1475,2864,o),
(1123,2864,cs),
(755,2864,o),
(475,2792,o),
(259,2672,cs),
(203,2644,o),
(167,2584,o),
(167,2516,cs),
(167,2416,o),
(247,2336,o),
(347,2336,cs),
(379,2336,o),
(407,2344,o),
(435,2360,cs),
(599,2452,o),
(807,2504,o),
(1123,2504,cs),
(1427,2504,o),
(1647,2452,o),
(1807,2360,cs),
(1831,2348,o),
(1863,2340,o),
(1895,2340,cs),
(1991,2340,o),
(2071,2420,o),
(2071,2516,cs),
(2071,2584,o),
(2035,2644,o),
(1979,2676,cs)
);
},
{
closed = 1;
nodes = (
(519,1348,o),
(591,1464,o),
(847,1708,cs),
(1131,1980,o),
(1287,2168,o),
(1211,2572,cs),
(1195,2652,o),
(1123,2716,o),
(1035,2716,cs),
(923,2716,o),
(839,2612,o),
(863,2500,cs),
(911,2276,o),
(843,2204,o),
(599,1972,cs),
(299,1680,o),
(155,1464,o),
(239,168,cs),
(243,76,o),
(319,0,o),
(415,0,cs),
(519,0,o),
(603,92,o),
(595,192,cs)
);
},
{
closed = 1;
nodes = (
(1035,1308,o),
(1107,1424,o),
(1363,1668,cs),
(1651,1940,o),
(1807,2128,o),
(1727,2568,cs),
(1711,2648,o),
(1639,2712,o),
(1551,2712,cs),
(1439,2712,o),
(1351,2608,o),
(1375,2496,cs),
(1427,2236,o),
(1363,2164,o),
(1115,1932,cs),
(815,1640,o),
(671,1424,o),
(755,104,cs),
(759,12,o),
(835,-64,o),
(931,-64,cs),
(1035,-64,o),
(1119,28,o),
(1111,128,cs)
);
},
{
closed = 1;
nodes = (
(2095,1396,o),
(1991,1700,o),
(1587,1988,cs),
(1555,2008,o),
(1519,2020,o),
(1483,2020,cs),
(1383,2020,o),
(1303,1940,o),
(1303,1840,cs),
(1303,1780,o),
(1335,1724,o),
(1379,1692,cs),
(1691,1480,o),
(1735,1280,o),
(1719,184,cs),
(1719,84,o),
(1799,0,o),
(1899,0,cs),
(1995,0,o),
(2079,84,o),
(2079,180,cs)
);
}
);
width = 2300;
}
);
unicode = 83;
},
{
glyphname = T;
lastChange = "2023-06-28 20:47:32 +0000";
layers = (
{
layerId = m01;
shapes = (
{
closed = 1;
nodes = (
(491,1884,o),
(793,2000,o),
(1401,2000,cs),
(1750,2000,o),
(1965,2072,o),
(1965,2300,cs),
(1965,2519,o),
(1859,2772,o),
(1459,2772,cs),
(1128,2772,o),
(805,2721,o),
(349,2508,cs),
(335,2501,o),
(326,2487,o),
(326,2471,cs),
(326,2444,o),
(354,2422,o),
(383,2435,c),
(828,2644,o),
(1135,2692,o),
(1459,2692,cs),
(1821,2692,o),
(1885,2479,o),
(1885,2300,cs),
(1885,2133,o),
(1730,2080,o),
(1401,2080,cs),
(776,2080,o),
(451,1955,o),
(114,1666,cs),
(106,1659,o),
(100,1648,o),
(100,1636,cs),
(100,1614,o),
(118,1596,o),
(140,1596,cs),
(150,1596,o),
(159,1599,o),
(166,1605,cs)
);
},
{
closed = 1;
nodes = (
(494,392,o),
(504,591,o),
(594,813,cs),
(799,1330,o),
(1167,1710,o),
(1217,2067,cs),
(1245,2277,o),
(1151,2496,o),
(987,2697,cs),
(980,2706,o),
(968,2712,o),
(956,2712,cs),
(934,2712,o),
(916,2694,o),
(916,2672,cs),
(916,2663,o),
(919,2654,o),
(925,2647,cs),
(1080,2458,o),
(1162,2264,o),
(1137,2077,cs),
(1091,1744,o),
(732,1376,o),
(520,843,cs),
(424,608,o),
(414,395,o),
(413,36,cs),
(413,14,o),
(431,-4,o),
(453,-4,cs),
(475,-4,o),
(493,14,o),
(493,36,cs)
);
},
{
closed = 1;
nodes = (
(1964,976,o),
(1906,1416,o),
(1341,1790,cs),
(1335,1794,o),
(1327,1796,o),
(1319,1796,cs),
(1297,1796,o),
(1279,1778,o),
(1279,1756,cs),
(1279,1742,o),
(1286,1730,o),
(1297,1723,cs),
(1830,1370,o),
(1884,967,o),
(1885,36,cs),
(1885,14,o),
(1903,-4,o),
(1925,-4,cs),
(1947,-4,o),
(1965,14,o),
(1965,36,cs)
);
}
);
width = 2200;
},
{
layerId = "C4A30611-87D3-4B41-A69F-FBC49DBA4127";
shapes = (
{
closed = 1;
nodes = (
(650,1728,o),
(910,1808,o),
(1434,1808,cs),
(1878,1808,o),
(2138,2010,o),
(2138,2318,cs),
(2138,2614,o),
(1876,2860,o),
(1442,2860,cs),
(1170,2860,o),
(858,2816,o),
(442,2636,cs),
(378,2608,o),
(334,2544,o),
(334,2472,cs),
(334,2324,o),
(486,2264,o),
(586,2304,cs),
(950,2464,o),
(1202,2500,o),
(1442,2500,cs),
(1708,2500,o),
(1778,2438,o),
(1778,2318,cs),
(1778,2210,o),
(1692,2168,o),
(1434,2168,cs),
(838,2168,o),
(486,2052,o),
(162,1804,cs),
(118,1772,o),
(90,1720,o),
(90,1664,cs),
(90,1564,o),
(170,1484,o),
(270,1484,cs),
(310,1484,o),
(350,1496,o),
(382,1520,cs)
);
},
{
closed = 1;
nodes = (
(670,380,o),
(686,532,o),
(758,708,cs),
(954,1200,o),
(1334,1592,o),
(1390,1996,cs),
(1418,2204,o),
(1346,2416,o),
(1174,2659,cs),
(1142,2704,o),
(1086,2740,o),
(1022,2740,cs),
(922,2740,o),
(842,2656,o),
(842,2560,cs),
(842,2524,o),
(854,2488,o),
(873,2463,cs),
(1010,2280,o),
(1046,2164,o),
(1030,2044,cs),
(990,1748,o),
(650,1412,o),
(422,844,cs),
(330,616,o),
(310,408,o),
(306,112,cs),
(306,12,o),
(386,-72,o),
(486,-72,cs),
(586,-72,o),
(666,12,o),
(666,108,cs)
);
},
{
closed = 1;
nodes = (
(2130,928,o),
(2042,1400,o),
(1622,1724,c),
(1590,1744,o),
(1550,1760,o),
(1510,1760,cs),
(1410,1760,o),
(1330,1680,o),
(1330,1580,cs),
(1330,1520,o),
(1358,1472,o),
(1402,1436,cs),
(1702,1208,o),
(1774,876,o),
(1778,108,cs),
(1778,12,o),
(1858,-72,o),
(1958,-72,cs),
(2058,-72,o),
(2138,12,o),
(2138,112,cs)
);
}
);
width = 2300;
}
);
unicode = 84;
},
{
glyphname = U;
lastChange = "2023-06-27 09:44:22 +0000";
layers = (
{
layerId = m01;
shapes = (
{
closed = 1;
nodes = (
(270,2762,ls),
(248,2762,o),
(230,2744,o),
(230,2722,cs),
(230,2700,o),
(248,2682,o),
(270,2682,cs),
(1961,2682,ls),
(1983,2682,o),
(2001,2700,o),
(2001,2722,cs),
(2001,2744,o),
(1983,2762,o),
(1961,2762,cs)
);
},
{
closed = 1;
nodes = (
(245,334,o),
(589,63,o),
(1034,63,cs),
(1447,63,o),
(1851,399,o),
(1851,954,cs),
(1851,1512,o),
(1623,1669,o),
(1062,1668,cs),
(575,1668,o),
(485,1739,o),
(485,1868,cs),
(485,1998,o),
(568,2071,o),
(687,2071,cs),
(818,2071,o),
(994,2044,o),
(1217,2044,cs),
(1649,2044,o),
(1703,2364,o),
(1578,2721,cs),
(1572,2737,o),
(1557,2748,o),
(1539,2748,cs),
(1517,2748,o),
(1499,2730,o),
(1499,2708,cs),
(1499,2704,o),
(1501,2699,o),
(1502,2695,cs),
(1619,2368,o),
(1578,2124,o),
(1217,2124,cs),
(1000,2124,o),
(824,2151,o),
(687,2151,cs),
(532,2151,o),
(405,2038,o),
(405,1868,cs),
(405,1693,o),
(539,1588,o),
(1062,1588,cs),
(1592,1589,o),
(1771,1465,o),
(1771,954,cs),
(1771,441,o),
(1412,143,o),
(1034,143,cs),
(623,143,o),
(324,379,o),
(314,1104,cs),
(314,1126,o),
(296,1144,o),
(274,1144,cs),
(252,1144,o),
(234,1126,o),
(234,1104,cs)
);
},
{
closed = 1;
nodes = (
(1073,1258,ls),
(1073,1280,o),
(1055,1298,o),
(1033,1298,cs),
(1011,1298,o),
(993,1280,o),
(993,1258,cs),
(993,638,ls),
(993,616,o),
(1011,598,o),
(1033,598,cs),
(1055,598,o),
(1073,616,o),
(1073,638,cs)
);
}
);
width = 2200;
},
{
layerId = "C4A30611-87D3-4B41-A69F-FBC49DBA4127";
shapes = (
{
closed = 1;
nodes = (
(444,2922,ls),
(334,2922,o),
(244,2832,o),
(244,2722,cs),
(244,2612,o),
(334,2522,o),
(444,2522,cs),
(1947,2522,ls),
(2057,2522,o),
(2147,2612,o),
(2147,2722,cs),
(2147,2832,o),
(2057,2922,o),
(1947,2922,cs)
);
},
{
closed = 1;
nodes = (
(239,191,o),
(643,-97,o),
(1134,-97,cs),
(1633,-97,o),
(2111,308,o),
(2111,954,cs),
(2111,1615,o),
(1798,1829,o),
(1162,1828,cs),
(805,1827,o),
(745,1838,o),
(745,1898,cs),
(745,1961,o),
(805,1971,o),
(867,1971,cs),
(946,1971,o),
(1082,1944,o),
(1317,1944,cs),
(1748,1944,o),
(1954,2224,o),
(1864,2642,cs),
(1845,2732,o),
(1765,2801,o),
(1669,2801,cs),
(1561,2801,o),
(1473,2712,o),
(1473,2604,cs),
(1473,2586,o),
(1475,2569,o),
(1480,2553,cs),
(1531,2392,o),
(1502,2344,o),
(1317,2344,cs),
(1112,2344,o),
(937,2371,o),
(787,2371,cs),
(543,2371,o),
(345,2186,o),
(345,1868,cs),
(345,1626,o),
(495,1428,o),
(1162,1428,cs),
(1642,1429,o),
(1711,1381,o),
(1711,954,cs),
(1711,516,o),
(1454,303,o),
(1134,303,cs),
(805,303,o),
(610,436,o),
(579,973,cs),
(573,1077,o),
(486,1160,o),
(380,1160,cs),
(261,1160,o),
(173,1059,o),
(181,946,cs)
);
},
{
closed = 1;
nodes = (
(1333,1054,ls),
(1333,1164,o),
(1243,1254,o),
(1133,1254,cs),
(1023,1254,o),
(933,1164,o),
(933,1054,cs),
(933,722,ls),
(933,612,o),
(1023,522,o),
(1133,522,cs),
(1243,522,o),
(1333,612,o),
(1333,722,cs)
);
}
);
width = 2300;
}
);
unicode = 85;
},
{
glyphname = V;
lastChange = "2023-06-27 09:46:53 +0000";
layers = (
{
layerId = m01;
shapes = (
{
closed = 1;
nodes = (
(1312,2687,ls),
(1639,2687,o),
(1738,2596,o),
(1738,2414,cs),
(1738,2228,o),
(1638,2105,o),
(1382,2124,cs),
(1002,2151,o),
(918,2047,o),
(918,1895,cs),
(918,1723,o),
(1011,1647,o),
(1315,1615,cs),
(1676,1577,o),
(1933,1460,o),
(1933,954,cs),
(1933,441,o),
(1574,143,o),
(1196,143,cs),
(785,143,o),
(486,379,o),
(476,1104,cs),
(476,1126,o),
(458,1144,o),
(436,1144,cs),
(414,1144,o),
(396,1126,o),
(396,1104,cs),
(407,334,o),
(751,63,o),
(1196,63,cs),
(1609,63,o),
(2013,399,o),
(2013,954,cs),
(2013,1515,o),
(1702,1655,o),
(1323,1695,cs),
(1051,1724,o),
(998,1766,o),
(998,1895,cs),
(998,2011,o),
(1046,2068,o),
(1376,2044,cs),
(1680,2022,o),
(1818,2194,o),
(1818,2414,cs),
(1818,2638,o),
(1675,2767,o),
(1312,2767,cs),
(175,2767,ls),
(153,2767,o),
(135,2749,o),
(135,2727,cs),
(135,2705,o),
(153,2687,o),
(175,2687,cs)
);
},
{
closed = 1;
nodes = (
(523,1968,ls),
(523,1599,o),
(385,1527,o),
(193,1456,cs),
(178,1450,o),
(167,1436,o),
(167,1418,cs),
(167,1396,o),
(185,1378,o),
(207,1378,cs),
(212,1378,o),
(216,1379,o),
(221,1381,cs),
(419,1454,o),
(603,1545,o),
(603,1968,cs),
(603,2490,ls),
(603,2512,o),
(585,2530,o),
(563,2530,cs),
(541,2530,o),
(523,2512,o),
(523,2490,cs)
);
}
);
width = 2200;
},
{
layerId = "C4A30611-87D3-4B41-A69F-FBC49DBA4127";
shapes = (
{
closed = 1;
nodes = (
(1354,2527,ls),
(1499,2527,o),
(1530,2496,o),
(1530,2414,cs),
(1530,2305,o),
(1459,2274,o),
(1345,2283,cs),
(907,2321,o),
(800,2096,o),
(800,1895,cs),
(800,1667,o),
(918,1501,o),
(1250,1456,cs),
(1586,1421,o),
(1725,1357,o),
(1725,954,cs),
(1725,516,o),
(1468,303,o),
(1148,303,cs),
(819,303,o),
(624,436,o),
(593,973,cs),
(587,1077,o),
(500,1160,o),
(394,1160,cs),
(275,1160,o),
(187,1059,o),
(195,946,cs),
(253,191,o),
(657,-97,o),
(1148,-97,cs),
(1647,-97,o),
(2125,308,o),
(2125,954,cs),
(2125,1631,o),
(1707,1775,o),
(1282,1834,cs),
(1210,1844,o),
(1170,1850,o),
(1170,1882,cs),
(1170,1911,o),
(1210,1913,o),
(1327,1905,cs),
(1724,1878,o),
(1930,2102,o),
(1930,2414,cs),
(1930,2684,o),
(1769,2927,o),
(1264,2927,cs),
(271,2927,ls),
(161,2927,o),
(71,2837,o),
(71,2727,cs),
(71,2617,o),
(161,2527,o),
(271,2527,cs)
);
},
{
closed = 1;
nodes = (
(295,1978,ls),
(295,1776,o),
(269,1710,o),
(176,1661,cs),
(113,1627,o),
(70,1561,o),
(70,1485,cs),
(70,1374,o),
(160,1285,o),
(270,1285,cs),
(304,1285,o),
(337,1294,o),
(365,1310,cs),
(535,1402,o),
(695,1572,o),
(695,1978,cs),
(695,2196,ls),
(695,2306,o),
(605,2396,o),
(495,2396,cs),
(385,2396,o),
(295,2306,o),
(295,2196,cs)
);
}
);
width = 2300;
}
);
unicode = 86;
},
{
glyphname = W;
lastChange = "2023-06-27 09:47:10 +0000";
layers = (
{
layerId = m01;
shapes = (
{
closed = 1;
nodes = (
(2030,2200,ls),
(2030,2597,o),
(1870,2728,o),
(1374,2728,cs),
(242,2728,ls),
(220,2728,o),
(202,2710,o),
(202,2688,cs),
(202,2666,o),
(220,2648,o),
(242,2648,cs),
(1374,2648,ls),
(1836,2648,o),
(1950,2553,o),
(1950,2200,cs),
(1950,1696,ls),
(1950,1674,o),
(1968,1656,o),
(1990,1656,cs),
(2012,1656,o),
(2030,1674,o),
(2030,1696,cs)
);
},
{
closed = 1;
nodes = (
(395,307,o),
(661,44,o),
(998,44,cs),
(1324,44,o),
(1618,316,o),
(1618,1092,cs),
(1618,2660,ls),
(1618,2682,o),
(1600,2700,o),
(1578,2700,cs),
(1556,2700,o),
(1538,2682,o),
(1538,2660,cs),
(1538,1092,ls),
(1538,357,o),
(1286,124,o),
(998,124,cs),
(700,124,o),
(473,349,o),
(466,1056,cs),
(466,1078,o),
(448,1096,o),
(426,1096,cs),
(404,1096,o),
(386,1078,o),
(386,1056,cs)
);
},
{
closed = 1;
nodes = (
(516,1360,o),
(700,1595,o),
(652,2442,cs),
(651,2463,o),
(633,2480,o),
(612,2480,cs),
(589,2480,o),
(571,2461,o),
(572,2438,cs),
(618,1633,o),
(470,1436,o),
(223,1421,cs),
(203,1420,o),
(186,1402,o),
(186,1381,cs),
(186,1358,o),
(206,1340,o),
(229,1341,cs)
);
}
);
width = 2200;
},
{
layerId = "C4A30611-87D3-4B41-A69F-FBC49DBA4127";
shapes = (
{
closed = 1;
nodes = (
(2218,2200,ls),
(2218,2684,o),
(1990,2868,o),
(1422,2868,cs),
(314,2868,ls),
(214,2868,o),
(134,2788,o),
(134,2688,cs),
(134,2588,o),
(214,2508,o),
(314,2508,cs),
(1422,2508,ls),
(1834,2508,o),
(1858,2488,o),
(1858,2200,cs),
(1858,1824,ls),
(1858,1724,o),
(1938,1644,o),
(2038,1644,cs),
(2138,1644,o),
(2218,1724,o),
(2218,1824,cs)
);
},
{
closed = 1;
nodes = (
(238,220,o),
(550,-64,o),
(942,-64,cs),
(1342,-64,o),
(1702,260,o),
(1702,1124,cs),
(1702,2548,ls),
(1702,2644,o),
(1622,2728,o),
(1522,2728,cs),
(1422,2728,o),
(1342,2644,o),
(1342,2548,cs),
(1342,1124,ls),
(1342,452,o),
(1174,296,o),
(942,296,cs),
(718,296,o),
(574,424,o),
(554,968,cs),
(550,1064,o),
(470,1144,o),
(374,1144,cs),
(266,1144,o),
(190,1052,o),
(194,952,cs)
);
},
{
closed = 1;
nodes = (
(606,1348,o),
(762,1644,o),
(742,2252,cs),
(738,2348,o),
(658,2428,o),
(562,2428,cs),
(458,2428,o),
(378,2336,o),
(382,2240,cs),
(406,1784,o),
(358,1628,o),
(234,1588,cs),
(162,1564,o),
(110,1500,o),
(110,1420,cs),
(110,1280,o),
(254,1212,o),
(354,1252,cs)
);
}
);
width = 2300;
}
);
unicode = 87;
},
{
glyphname = X;
lastChange = "2023-06-27 09:47:20 +0000";
layers = (
{
layerId = m01;
shapes = (
{
closed = 1;
nodes = (
(381,1052,ls),
(381,1608,o),
(729,1736,o),
(729,2116,cs),
(729,2372,o),
(589,2543,o),
(335,2784,cs),
(328,2791,o),
(318,2795,o),
(307,2795,cs),
(285,2795,o),
(267,2777,o),
(267,2755,cs),
(267,2744,o),
(272,2734,o),
(280,2726,cs),
(528,2490,o),
(649,2342,o),
(649,2116,cs),
(649,1786,o),
(301,1670,o),
(301,1052,cs),
(301,32,ls),
(301,10,o),
(319,-8,o),
(341,-8,cs),
(363,-8,o),
(381,10,o),
(381,32,cs)
);
},
{
closed = 1;
nodes = (
(782,2688,o),
(652,2684,o),
(516,2605,cs),
(504,2599,o),
(496,2586,o),
(496,2571,cs),
(496,2537,o),
(532,2523,o),
(556,2536,cs),
(674,2604,o),
(788,2608,o),
(1533,2608,cs),
(1555,2608,o),
(1573,2626,o),
(1573,2648,cs),
(1573,2670,o),
(1555,2688,o),
(1533,2688,cs)
);
},
{
closed = 1;
nodes = (
(1145,730,o),
(961,1109,o),
(961,1492,cs),
(961,1644,o),
(961,1644,o),
(1269,1644,cs),
(1542,1644,o),
(1713,1745,o),
(1713,1976,cs),
(1713,2206,o),
(1543,2316,o),
(1269,2316,cs),
(701,2316,ls),
(679,2316,o),
(661,2298,o),
(661,2276,cs),
(661,2254,o),
(679,2236,o),
(701,2236,cs),
(1269,2236,ls),
(1513,2236,o),
(1633,2158,o),
(1633,1976,cs),
(1633,1795,o),
(1514,1724,o),
(1269,1724,cs),
(912,1724,o),
(881,1680,o),
(881,1492,cs),
(881,1087,o),
(1078,680,o),
(2036,-11,cs),
(2043,-16,o),
(2051,-19,o),
(2060,-19,cs),
(2082,-19,o),
(2100,-1,o),
(2100,21,cs),
(2100,34,o),
(2093,46,o),
(2083,53,cs)
);
}
);
width = 2200;
},
{
layerId = "C4A30611-87D3-4B41-A69F-FBC49DBA4127";
shapes = (
{
closed = 1;
nodes = (
(560,1052,ls),
(560,1520,o),
(908,1632,o),
(908,2116,cs),
(908,2388,o),
(776,2580,o),
(548,2812,cs),
(516,2844,o),
(472,2864,o),
(420,2864,cs),
(320,2864,o),
(240,2784,o),
(240,2684,cs),
(240,2632,o),
(260,2588,o),
(292,2556,cs),
(484,2368,o),
(548,2268,o),
(548,2116,cs),
(548,1848,o),
(200,1800,o),
(200,1052,cs),
(200,116,ls),
(200,16,o),
(280,-64,o),
(380,-64,cs),
(480,-64,o),
(560,16,o),
(560,116,cs)
);
},
{
closed = 1;
nodes = (
(1000,2864,o),
(788,2860,o),
(536,2800,cs),
(456,2780,o),
(400,2712,o),
(400,2624,cs),
(400,2508,o),
(508,2424,o),
(620,2452,cs),
(820,2500,o),
(980,2504,o),
(1448,2504,cs),
(1544,2504,o),
(1628,2584,o),
(1628,2684,cs),
(1628,2784,o),
(1544,2864,o),
(1444,2864,cs)
);
},
{
closed = 1;
nodes = (
(1364,848,o),
(1220,1156,o),
(1220,1492,cs),
(1220,1504,o),
(1220,1504,o),
(1308,1504,cs),
(1692,1504,o),
(1892,1692,o),
(1892,1956,cs),
(1892,2212,o),
(1704,2416,o),
(1308,2416,cs),
(868,2416,ls),
(768,2416,o),
(688,2336,o),
(688,2236,cs),
(688,2136,o),
(768,2056,o),
(868,2056,cs),
(1308,2056,ls),
(1512,2056,o),
(1532,2044,o),
(1532,1956,cs),
(1532,1876,o),
(1516,1864,o),
(1308,1864,cs),
(936,1864,o),
(860,1752,o),
(860,1492,cs),
(860,1056,o),
(1060,628,o),
(1940,-28,cs),
(1972,-52,o),
(2008,-64,o),
(2048,-64,cs),
(2148,-64,o),
(2228,16,o),
(2228,116,cs),
(2228,176,o),
(2200,228,o),
(2156,260,cs)
);
}
);
width = 2300;
}
);
unicode = 88;
},
{
glyphname = Y;
lastChange = "2023-06-27 09:47:50 +0000";
layers = (
{
layerId = m01;
shapes = (
{
closed = 1;
nodes = (
(1080,899,o),
(765,1706,o),
(615,2523,cs),
(599,2626,o),
(601,2628,o),
(724,2628,cs),
(1588,2628,ls),
(1610,2628,o),
(1628,2646,o),
(1628,2668,cs),
(1628,2690,o),
(1610,2708,o),
(1588,2708,cs),
(724,2708,ls),
(559,2708,o),
(512,2660,o),
(537,2509,cs),
(688,1683,o),
(1012,851,o),
(2067,3,cs),
(2074,-2,o),
(2082,-6,o),
(2092,-6,cs),
(2114,-6,o),
(2132,12,o),
(2132,34,cs),
(2132,47,o),
(2126,58,o),
(2117,66,cs)
);
},
{
closed = 1;
nodes = (
(120,2292,ls),
(98,2292,o),
(80,2274,o),
(80,2252,cs),
(80,2230,o),
(98,2212,o),
(120,2212,cs),
(1704,2212,ls),
(1726,2212,o),
(1744,2230,o),
(1744,2252,cs),
(1744,2274,o),
(1726,2292,o),
(1704,2292,cs)
);
},
{
closed = 1;
nodes = (
(470,766,o),
(549,1016,o),
(923,1279,cs),
(1226,1491,o),
(1667,1483,o),
(1732,2084,cs),
(1735,2106,o),
(1717,2128,o),
(1693,2128,cs),
(1672,2128,o),
(1655,2113,o),
(1653,2093,cs),
(1594,1556,o),
(1209,1577,o),
(877,1345,cs),
(478,1063,o),
(391,782,o),
(388,40,cs),
(388,18,o),
(406,0,o),
(428,0,cs),
(450,0,o),
(468,18,o),
(468,40,cs)
);
}
);
width = 2200;
},
{
layerId = "C4A30611-87D3-4B41-A69F-FBC49DBA4127";
shapes = (
{
closed = 1;
nodes = (
(1258,1032,o),
(978,1772,o),
(854,2436,cs),
(846,2476,o),
(858,2488,o),
(902,2488,cs),
(1546,2488,ls),
(1642,2488,o),
(1726,2568,o),
(1726,2668,cs),
(1726,2768,o),
(1642,2848,o),
(1546,2848,cs),
(806,2848,ls),
(554,2848,o),
(442,2724,o),
(482,2484,cs),
(630,1664,o),
(950,824,o),
(1962,-24,cs),
(1994,-48,o),
(2034,-64,o),
(2078,-64,cs),
(2174,-64,o),
(2258,16,o),
(2258,116,cs),
(2258,168,o),
(2230,220,o),
(2194,252,cs)
);
},
{
closed = 1;
nodes = (
(330,2396,ls),
(230,2396,o),
(150,2316,o),
(150,2216,cs),
(150,2116,o),
(230,2036,o),
(330,2036,cs),
(1662,2036,ls),
(1758,2036,o),
(1842,2116,o),
(1842,2216,cs),
(1842,2316,o),
(1758,2396,o),
(1662,2396,cs)
);
},
{
closed = 1;
nodes = (
(702,768,o),
(770,944,o),
(1086,1164,cs),
(1334,1336,o),
(1802,1340,o),
(1922,1776,cs),
(1954,1888,o),
(1870,1996,o),
(1754,1996,cs),
(1670,1996,o),
(1598,1936,o),
(1566,1856,cs),
(1498,1680,o),
(1238,1712,o),
(878,1460,cs),
(458,1164,o),
(346,852,o),
(330,168,cs),
(330,72,o),
(406,-16,o),
(510,-16,cs),
(610,-16,o),
(690,68,o),
(690,164,cs)
);
}
);
width = 2300;
}
);
unicode = 89;
},
{
glyphname = Z;
lastChange = "2023-06-27 09:48:37 +0000";
layers = (
{
layerId = m01;
shapes = (
{
closed = 1;
nodes = (
(716,343,o),
(700,440,o),
(700,664,cs),
(700,1177,o),
(1052,1585,o),
(1052,2020,cs),
(1052,2335,o),
(891,2542,o),
(682,2787,c),
(674,2795,o),
(664,2801,o),
(651,2801,cs),
(629,2801,o),
(611,2783,o),
(611,2761,cs),
(611,2751,o),
(615,2742,o),
(621,2735,cs),
(828,2493,o),
(972,2307,o),
(972,2020,cs),
(972,1615,o),
(620,1207,o),
(620,664,cs),
(620,432,o),
(639,324,o),
(691,162,cs),
(706,115,o),
(721,103,o),
(739,103,cs),
(767,103,o),
(785,130,o),
(777,155,cs)
);
},
{
closed = 1;
nodes = (
(296,168,ls),
(274,168,o),
(256,150,o),
(256,128,cs),
(256,106,o),
(274,88,o),
(296,88,cs),
(1904,88,ls),
(1926,88,o),
(1944,106,o),
(1944,128,cs),
(1944,150,o),
(1926,168,o),
(1904,168,cs)
);
},
{
closed = 1;
nodes = (
(1805,1444,ls),
(1817,1451,o),
(1825,1463,o),
(1825,1478,cs),
(1825,1500,o),
(1807,1518,o),
(1785,1518,cs),
(1777,1518,o),
(1770,1516,o),
(1764,1512,cs),
(666,879,ls),
(654,872,o),
(646,860,o),
(646,845,cs),
(646,823,o),
(664,805,o),
(686,805,cs),
(694,805,o),
(701,807,o),
(732,828,cs)
);
}
);
width = 2200;
},
{
layerId = "C4A30611-87D3-4B41-A69F-FBC49DBA4127";
shapes = (
{
closed = 1;
nodes = (
(936,424,o),
(928,508,o),
(928,660,cs),
(928,1120,o),
(1280,1528,o),
(1280,2016,cs),
(1280,2332,o),
(1136,2556,o),
(960,2776,cs),
(928,2816,o),
(876,2840,o),
(820,2840,cs),
(720,2840,o),
(640,2760,o),
(640,2660,cs),
(640,2616,o),
(656,2576,o),
(680,2544,cs),
(836,2360,o),
(920,2220,o),
(920,2016,cs),
(920,1664,o),
(568,1256,o),
(568,660,cs),
(568,480,o),
(580,364,o),
(612,208,cs),
(628,132,o),
(696,72,o),
(784,72,cs),
(900,72,o),
(984,180,o),
(960,292,cs)
);
},
{
closed = 1;
nodes = (
(412,304,ls),
(312,304,o),
(232,224,o),
(232,124,cs),
(232,24,o),
(312,-56,o),
(412,-56,cs),
(1888,-56,ls),
(1984,-56,o),
(2068,24,o),
(2068,124,cs),
(2068,224,o),
(1984,304,o),
(1888,304,cs)
);
},
{
closed = 1;
nodes = (
(1816,1256,ls),
(1867,1285,o),
(1904,1344,o),
(1904,1412,cs),
(1904,1512,o),
(1824,1592,o),
(1724,1592,cs),
(1688,1592,o),
(1663,1582,o),
(1632,1564,cs),
(716,1044,ls),
(665,1015,o),
(628,960,o),
(628,892,cs),
(628,792,o),
(708,712,o),
(808,712,cs),
(844,712,o),
(872,724,o),
(900,740,cs)
);
}
);
width = 2300;
}
);
unicode = 90;
},
{
glyphname = a;
kernLeft = lowercase;
kernRight = lowercase;
lastChange = "2023-06-29 21:24:39 +0000";
layers = (
{
layerId = m01;
shapes = (
{
closed = 1;
nodes = (
(1911,137,o),
(1929,155,o),
(1929,177,cs),
(1929,189,o),
(1923,200,o),
(1915,208,c),
(1526,529,o),
(1137,1031,o),
(895,1529,cs),
(637,2057,o),
(589,2571,o),
(375,2571,cs),
(289,2571,o),
(197,2473,o),
(91,2357,cs),
(84,2349,o),
(80,2340,o),
(80,2330,cs),
(80,2307,o),
(98,2290,o),
(120,2290,cs),
(132,2290,o),
(142,2295,o),
(150,2303,cs),
(254,2416,o),
(325,2491,o),
(375,2491,cs),
(513,2491,o),
(570,2013,o),
(823,1493,cs),
(1069,988,o),
(1468,474,o),
(1864,146,cs),
(1871,140,o),
(1879,137,o),
(1889,137,cs)
);
},
{
closed = 1;
nodes = (
(542,117,o),
(559,135,o),
(559,157,cs),
(559,162,o),
(558,167,o),
(557,172,c),
(200,1086,o),
(1369,1433,o),
(1407,2186,cs),
(1408,2209,o),
(1390,2228,o),
(1367,2228,cs),
(1346,2228,o),
(1328,2211,o),
(1327,2190,cs),
(1289,1508,o),
(100,1120,o),
(482,143,cs),
(488,128,o),
(502,117,o),
(519,117,cs)
);
},
{
closed = 1;
nodes = (
(746,1793,o),
(756,1798,o),
(764,1806,cs),
(931,1985,o),
(1148,2221,o),
(1158,2723,cs),
(1158,2745,o),
(1140,2764,o),
(1118,2764,cs),
(1096,2764,o),
(1078,2746,o),
(1078,2724,cs),
(1068,2254,o),
(871,2039,o),
(704,1860,c),
(698,1852,o),
(694,1843,o),
(694,1833,cs),
(694,1811,o),
(712,1793,o),
(734,1793,cs)
);
}
);
width = 2000;
},
{
layerId = "C4A30611-87D3-4B41-A69F-FBC49DBA4127";
shapes = (
{
closed = 1;
nodes = (
(2003,41,o),
(2092,131,o),
(2092,241,cs),
(2092,300,o),
(2067,353,o),
(2028,390,cs),
(1669,727,o),
(1345,1159,o),
(1131,1599,cs),
(816,2245,o),
(830,2731,o),
(467,2731,cs),
(354,2731,o),
(265,2669,o),
(166,2571,cs),
(130,2536,o),
(108,2487,o),
(108,2434,cs),
(108,2327,o),
(195,2240,o),
(302,2240,cs),
(371,2240,o),
(410,2269,o),
(438,2300,cs),
(460,2324,o),
(473,2327,o),
(473,2282,cs),
(473,2186,o),
(506,1967,o),
(771,1423,cs),
(1003,947,o),
(1364,465,o),
(1759,93,cs),
(1793,61,o),
(1841,41,o),
(1893,41,cs)
);
},
{
closed = 1;
nodes = (
(697,34,o),
(787,124,o),
(787,235,cs),
(787,252,o),
(785,268,o),
(781,283,cs),
(597,1019,o),
(1584,1146,o),
(1730,1846,cs),
(1765,2015,o),
(1667,2132,o),
(1539,2132,cs),
(1447,2132,o),
(1367,2072,o),
(1330,1949,cs),
(1193,1490,o),
(109,1198,o),
(392,182,cs),
(416,97,o),
(493,34,o),
(586,34,cs)
);
},
{
closed = 1;
nodes = (
(1001,1754,o),
(1057,1783,o),
(1094,1828,cs),
(1218,1980,o),
(1360,2202,o),
(1399,2558,cs),
(1412,2674,o),
(1322,2780,o),
(1201,2780,cs),
(1097,2780,o),
(1013,2702,o),
(1002,2602,cs),
(975,2354,o),
(884,2205,o),
(784,2081,cs),
(755,2047,o),
(738,2003,o),
(738,1955,cs),
(738,1844,o),
(828,1754,o),
(939,1754,cs)
);
}
);
width = 2200;
}
);
unicode = 97;
},
{
glyphname = b;
kernLeft = lowercase;
kernRight = lowercase;
lastChange = "2023-06-29 21:24:39 +0000";
layers = (
{
layerId = m01;
shapes = (
{
closed = 1;
nodes = (
(163,69,o),
(175,76,o),
(183,86,cs),
(812,978,o),
(748,1869,o),
(705,2595,cs),
(704,2616,o),
(686,2633,o),
(665,2633,cs),
(642,2633,o),
(624,2614,o),
(625,2591,cs),
(668,1865,o),
(730,1000,o),
(117,132,cs),
(113,126,o),
(110,118,o),
(110,109,cs),
(110,87,o),
(128,69,o),
(150,69,cs)
);
},
{
closed = 1;
nodes = (
(1914,71,o),
(1932,88,o),
(1932,111,cs),
(1932,125,o),
(1924,138,o),
(1912,145,cs),
(1595,329,o),
(1424,1098,o),
(1381,1262,cs),
(1334,1439,o),
(1133,1589,o),
(889,1604,cs),
(866,1605,o),
(847,1587,o),
(847,1564,cs),
(847,1543,o),
(864,1525,o),
(885,1524,cs),
(1099,1512,o),
(1265,1388,o),
(1303,1242,cs),
(1345,1081,o),
(1520,282,o),
(1872,76,cs),
(1878,73,o),
(1885,71,o),
(1892,71,cs)
);
},
{
closed = 1;
nodes = (
(1174,2005,ls),
(1433,2005,o),
(1549,2112,o),
(1549,2331,cs),
(1549,2549,o),
(1433,2670,o),
(1174,2670,cs),
(230,2670,ls),
(208,2670,o),
(190,2652,o),
(190,2630,cs),
(190,2608,o),
(208,2590,o),
(230,2590,cs),
(1174,2590,ls),
(1392,2590,o),
(1469,2513,o),
(1469,2331,cs),
(1469,2151,o),
(1394,2085,o),
(1174,2085,cs),
(398,2085,ls),
(376,2085,o),
(358,2067,o),
(358,2045,cs),
(358,2023,o),
(376,2005,o),
(398,2005,cs)
);
}
);
width = 2000;
},
{
layerId = "C4A30611-87D3-4B41-A69F-FBC49DBA4127";
shapes = (
{
closed = 1;
nodes = (
(427,29,o),
(489,66,o),
(525,121,cs),
(1059,959,o),
(1038,1791,o),
(999,2541,cs),
(993,2646,o),
(906,2729,o),
(800,2729,cs),
(682,2729,o),
(594,2630,o),
(600,2518,cs),
(637,1783,o),
(653,1065,o),
(188,336,cs),
(168,305,o),
(156,268,o),
(156,229,cs),
(156,118,o),
(246,29,o),
(356,29,cs)
);
},
{
closed = 1;
nodes = (
(2016,2,o),
(2104,90,o),
(2104,199,cs),
(2104,253,o),
(2083,302,o),
(2048,338,cs),
(1834,554,o),
(1701,1150,o),
(1661,1303,cs),
(1614,1484,o),
(1447,1660,o),
(1209,1732,cs),
(1084,1769,o),
(954,1676,o),
(954,1542,cs),
(954,1450,o),
(1018,1372,o),
(1104,1351,cs),
(1202,1327,o),
(1256,1273,o),
(1275,1201,cs),
(1311,1062,o),
(1451,400,o),
(1763,65,cs),
(1799,26,o),
(1850,2,o),
(1907,2,cs)
);
},
{
closed = 1;
nodes = (
(1300,1845,ls),
(1697,1845,o),
(1835,2069,o),
(1835,2331,cs),
(1835,2599,o),
(1687,2830,o),
(1300,2830,cs),
(350,2830,ls),
(240,2830,o),
(150,2740,o),
(150,2630,cs),
(150,2520,o),
(240,2430,o),
(350,2430,cs),
(1300,2430,ls),
(1405,2430,o),
(1435,2400,o),
(1435,2331,cs),
(1435,2275,o),
(1405,2245,o),
(1300,2245,cs),
(508,2245,ls),
(398,2245,o),
(308,2155,o),
(308,2045,cs),
(308,1935,o),
(398,1845,o),
(508,1845,cs)
);
}
);
width = 2200;
}
);
unicode = 98;
},
{
glyphname = c;
kernLeft = lowercase;
kernRight = lowercase;
lastChange = "2023-06-29 21:24:39 +0000";
layers = (
{
layerId = m01;
shapes = (
{
closed = 1;
nodes = (
(450,198,o),
(512,316,o),
(512,824,cs),
(512,2080,ls),
(512,2467,o),
(442,2597,o),
(192,2765,c),
(186,2770,o),
(178,2772,o),
(170,2772,cs),
(148,2772,o),
(130,2754,o),
(130,2732,cs),
(130,2718,o),
(137,2706,o),
(148,2699,cs),
(379,2544,o),
(432,2442,o),
(432,2080,cs),
(432,824,ls),
(432,343,o),
(385,245,o),
(223,69,cs),
(217,62,o),
(213,53,o),
(213,42,cs),
(213,20,o),
(230,2,o),
(253,2,cs),
(264,2,o),
(275,7,o),
(282,15,cs)
);
},
{
closed = 1;
nodes = (
(1108,867,o),
(1108,1076,o),
(1108,1496,cs),
(1108,2177,o),
(941,2383,o),
(480,2436,cs),
(458,2439,o),
(436,2421,o),
(436,2396,cs),
(436,2376,o),
(451,2359,o),
(471,2357,cs),
(896,2309,o),
(1028,2140,o),
(1028,1496,cs),
(1028,1075,o),
(1028,839,o),
(1298,518,cs),
(1305,509,o),
(1316,503,o),
(1329,503,cs),
(1351,503,o),
(1369,521,o),
(1369,543,cs),
(1369,553,o),
(1365,562,o),
(1359,569,cs)
);
},
{
closed = 1;
nodes = (
(1772,153,o),
(1641,267,o),
(1518,397,cs),
(1510,405,o),
(1500,410,o),
(1489,410,cs),
(1466,410,o),
(1449,392,o),
(1449,370,cs),
(1449,359,o),
(1453,349,o),
(1459,342,cs),
(1586,209,o),
(1723,90,o),
(1872,-13,cs),
(1878,-17,o),
(1886,-20,o),
(1894,-20,cs),
(1916,-20,o),
(1934,-2,o),
(1934,20,cs),
(1934,34,o),
(1927,46,o),
(1917,53,cs)
);
}
);
width = 2000;
},
{
layerId = "C4A30611-87D3-4B41-A69F-FBC49DBA4127";
shapes = (
{
closed = 1;
nodes = (
(718,192,o),
(770,372,o),
(770,824,cs),
(770,2080,ls),
(770,2456,o),
(698,2632,o),
(502,2796,cs),
(470,2824,o),
(434,2836,o),
(390,2836,cs),
(290,2836,o),
(210,2756,o),
(210,2660,cs),
(210,2604,o),
(238,2552,o),
(278,2520,cs),
(398,2424,o),
(410,2348,o),
(410,2080,cs),
(410,824,ls),
(410,464,o),
(394,360,o),
(310,248,cs),
(286,216,o),
(274,180,o),
(274,136,cs),
(274,40,o),
(354,-40,o),
(450,-40,cs),
(510,-40,o),
(562,-12,o),
(594,28,cs)
);
},
{
closed = 1;
nodes = (
(1366,960,o),
(1366,1128,o),
(1366,1496,cs),
(1366,2176,o),
(1186,2460,o),
(754,2552,cs),
(646,2576,o),
(538,2496,o),
(538,2376,cs),
(538,2292,o),
(602,2216,o),
(686,2204,cs),
(954,2152,o),
(1006,2024,o),
(1006,1496,cs),
(1006,1116,o),
(1006,852,o),
(1222,540,cs),
(1254,492,o),
(1310,464,o),
(1370,464,cs),
(1470,464,o),
(1550,544,o),
(1550,644,cs),
(1550,680,o),
(1538,716,o),
(1518,748,cs)
);
},
{
closed = 1;
nodes = (
(1950,292,o),
(1886,348,o),
(1822,408,cs),
(1786,440,o),
(1742,460,o),
(1694,460,cs),
(1594,460,o),
(1514,380,o),
(1514,280,cs),
(1514,228,o),
(1538,184,o),
(1570,152,cs),
(1642,80,o),
(1722,12,o),
(1802,-48,cs),
(1830,-72,o),
(1870,-84,o),
(1910,-84,cs),
(2010,-84,o),
(2090,-4,o),
(2090,96,cs),
(2090,152,o),
(2062,204,o),
(2018,236,cs)
);
}
);
width = 2200;
}
);
unicode = 99;
},
{
glyphname = d;
kernLeft = lowercase;
kernRight = lowercase;
lastChange = "2023-06-29 21:24:39 +0000";
layers = (
{
layerId = m01;
shapes = (
{
closed = 1;
nodes = (
(462,2012,o),
(617,1992,o),
(999,1992,cs),
(1440,1992,o),
(1583,2098,o),
(1583,2324,cs),
(1583,2550,o),
(1449,2656,o),
(971,2656,cs),
(564,2656,o),
(455,2596,o),
(309,2136,cs),
(184,1732,o),
(247,1340,o),
(851,1340,cs),
(1419,1340,o),
(1680,779,o),
(1855,136,cs),
(1860,119,o),
(1875,107,o),
(1894,107,cs),
(1920,107,o),
(1939,132,o),
(1932,157,cs),
(1754,810,o),
(1472,1420,o),
(851,1420,cs),
(317,1420,o),
(268,1733,o),
(388,2114,cs),
(520,2537,o),
(590,2576,o),
(971,2576,cs),
(1413,2576,o),
(1503,2505,o),
(1503,2324,cs),
(1503,2144,o),
(1406,2072,o),
(999,2072,cs),
(623,2072,o),
(485,2090,o),
(385,2147,cs),
(358,2162,o),
(325,2143,o),
(325,2112,cs),
(325,2097,o),
(334,2084,o),
(346,2077,cs)
);
},
{
closed = 1;
nodes = (
(619,760,o),
(522,425,o),
(146,165,cs),
(136,158,o),
(129,146,o),
(129,132,cs),
(129,110,o),
(147,92,o),
(169,92,cs),
(177,92,o),
(185,95,o),
(192,99,cs),
(593,377,o),
(699,745,o),
(703,1377,cs),
(703,1399,o),
(685,1417,o),
(663,1417,cs),
(641,1417,o),
(623,1399,o),
(623,1377,cs)
);
}
);
width = 2000;
},
{
layerId = "C4A30611-87D3-4B41-A69F-FBC49DBA4127";
shapes = (
{
closed = 1;
nodes = (
(668,1848,o),
(832,1840,o),
(1088,1840,cs),
(1660,1840,o),
(1812,2036,o),
(1812,2312,cs),
(1812,2592,o),
(1660,2784,o),
(1060,2784,cs),
(604,2784,o),
(432,2696,o),
(264,2164,cs),
(124,1716,o),
(200,1188,o),
(940,1188,cs),
(1388,1188,o),
(1608,776,o),
(1779,149,cs),
(1799,77,o),
(1871,21,o),
(1951,21,cs),
(2071,21,o),
(2159,137,o),
(2126,254,cs),
(1932,940,o),
(1616,1548,o),
(940,1548,cs),
(524,1548,o),
(500,1712,o),
(608,2060,cs),
(724,2424,o),
(724,2424,o),
(1060,2424,cs),
(1412,2424,o),
(1452,2380,o),
(1452,2308,cs),
(1452,2240,o),
(1408,2200,o),
(1088,2200,cs),
(824,2200,o),
(696,2208,o),
(624,2224,cs),
(512,2248,o),
(404,2164,o),
(404,2048,cs),
(404,1964,o),
(464,1892,o),
(544,1876,cs)
);
},
{
closed = 1;
nodes = (
(556,780,o),
(484,536,o),
(244,336,cs),
(204,300,o),
(180,252,o),
(180,196,cs),
(180,96,o),
(260,16,o),
(356,16,cs),
(404,16,o),
(444,32,o),
(472,60,cs),
(776,364,o),
(912,700,o),
(928,1248,cs),
(932,1344,o),
(856,1436,o),
(748,1436,cs),
(652,1436,o),
(572,1356,o),
(568,1260,cs)
);
}
);
width = 2200;
}
);
unicode = 100;
},
{
glyphname = e;
kernLeft = lowercase;
kernRight = lowercase;
lastChange = "2023-06-29 21:24:39 +0000";
layers = (
{
layerId = m01;
shapes = (
{
closed = 1;
nodes = (
(1535,1081,o),
(1644,1254,o),
(1644,1572,cs),
(1644,2728,ls),
(1644,2750,o),
(1626,2768,o),
(1604,2768,cs),
(1582,2768,o),
(1564,2750,o),
(1564,2728,cs),
(1564,1572,ls),
(1564,1284,o),
(1485,1161,o),
(1360,1161,cs),
(1233,1161,o),
(1165,1252,o),
(1165,1439,cs),
(1165,2064,o),
(797,2362,o),
(432,2381,cs),
(409,2382,o),
(390,2364,o),
(390,2341,cs),
(390,2320,o),
(407,2302,o),
(428,2301,cs),
(761,2284,o),
(1085,2020,o),
(1085,1439,cs),
(1085,1219,o),
(1188,1081,o),
(1360,1081,cs)
);
},
{
closed = 1;
nodes = (
(122,54,o),
(132,58,o),
(139,65,cs),
(382,298,o),
(436,683,o),
(436,1182,cs),
(436,2728,ls),
(436,2750,o),
(418,2768,o),
(396,2768,cs),
(374,2768,o),
(356,2750,o),
(356,2728,cs),
(356,1182,ls),
(356,689,o),
(305,335,o),
(84,123,cs),
(76,116,o),
(72,106,o),
(72,94,cs),
(72,72,o),
(90,54,o),
(112,54,cs)
);
},
{
closed = 1;
nodes = (
(1775,75,o),
(1801,94,o),
(1801,121,cs),
(1801,139,o),
(1789,154,o),
(1772,159,cs),
(1504,236,o),
(1274,562,o),
(1156,824,cs),
(1150,838,o),
(1136,848,o),
(1119,848,cs),
(1097,848,o),
(1079,830,o),
(1079,808,cs),
(1079,802,o),
(1081,797,o),
(1083,792,cs),
(1206,520,o),
(1452,169,o),
(1750,82,cs)
);
}
);
width = 2000;
},
{
layerId = "C4A30611-87D3-4B41-A69F-FBC49DBA4127";
shapes = (
{
closed = 1;
nodes = (
(1702,921,o),
(1909,1115,o),
(1909,1572,cs),
(1909,2584,ls),
(1909,2694,o),
(1819,2784,o),
(1709,2784,cs),
(1599,2784,o),
(1509,2694,o),
(1509,2584,cs),
(1509,1572,ls),
(1509,1381,o),
(1493,1321,o),
(1465,1321,cs),
(1440,1321,o),
(1430,1351,o),
(1430,1439,cs),
(1430,1957,o),
(1102,2312,o),
(633,2442,cs),
(511,2476,o),
(387,2381,o),
(387,2251,cs),
(387,2156,o),
(453,2077,o),
(539,2056,cs),
(859,1977,o),
(1030,1779,o),
(1030,1439,cs),
(1030,1092,o),
(1236,921,o),
(1465,921,cs)
);
},
{
closed = 1;
nodes = (
(378,4,o),
(438,38,o),
(474,91,cs),
(660,365,o),
(701,743,o),
(701,1182,cs),
(701,2584,ls),
(701,2694,o),
(611,2784,o),
(501,2784,cs),
(391,2784,o),
(301,2694,o),
(301,2584,cs),
(301,1182,ls),
(301,767,o),
(270,495,o),
(146,317,cs),
(123,285,o),
(110,246,o),
(110,203,cs),
(110,93,o),
(199,4,o),
(309,4,cs)
);
},
{
closed = 1;
nodes = (
(1763,-70,o),
(1933,20,o),
(1933,177,cs),
(1933,251,o),
(1892,316,o),
(1831,350,cs),
(1687,431,o),
(1558,599,o),
(1464,774,cs),
(1430,837,o),
(1364,879,o),
(1288,879,cs),
(1178,879,o),
(1089,790,o),
(1089,680,cs),
(1089,645,o),
(1098,612,o),
(1114,583,cs),
(1232,369,o),
(1411,135,o),
(1635,5,cs)
);
}
);
width = 2200;
}
);
unicode = 101;
},
{
glyphname = f;
kernLeft = lowercase;
kernRight = lowercase;
lastChange = "2023-06-29 21:24:39 +0000";
layers = (
{
layerId = m01;
shapes = (
{
closed = 1;
nodes = (
(1354,151,o),
(1502,546,o),
(1502,1232,cs),
(1502,1513,o),
(1387,1624,o),
(1025,1687,cs),
(765,1735,o),
(570,1811,o),
(570,2096,cs),
(570,2393,o),
(701,2548,o),
(994,2548,cs),
(1277,2548,o),
(1419,2405,o),
(1429,2130,cs),
(1430,2109,o),
(1448,2092,o),
(1469,2092,cs),
(1492,2092,o),
(1510,2111,o),
(1509,2134,cs),
(1496,2444,o),
(1316,2628,o),
(994,2628,cs),
(659,2628,o),
(490,2429,o),
(490,2096,cs),
(490,1755,o),
(741,1658,o),
(1011,1609,cs),
(1343,1551,o),
(1422,1475,o),
(1422,1232,cs),
(1422,565,o),
(1294,230,o),
(502,220,cs),
(480,220,o),
(462,202,o),
(462,180,cs),
(462,158,o),
(480,140,o),
(502,140,cs)
);
},
{
closed = 1;
nodes = (
(861,1031,o),
(731,1104,o),
(722,1405,cs),
(722,1427,o),
(704,1444,o),
(683,1444,cs),
(660,1444,o),
(642,1425,o),
(643,1403,cs),
(654,1053,o),
(829,952,o),
(1434,948,cs),
(1456,948,o),
(1474,966,o),
(1474,988,cs),
(1474,1010,o),
(1456,1028,o),
(1434,1028,cs)
);
}
);
width = 2000;
},
{
layerId = "C4A30611-87D3-4B41-A69F-FBC49DBA4127";
shapes = (
{
closed = 1;
nodes = (
(1586,60,o),
(1746,540,o),
(1746,1232,cs),
(1746,1588,o),
(1578,1752,o),
(1154,1824,cs),
(906,1868,o),
(814,1908,o),
(814,2096,cs),
(814,2344,o),
(870,2408,o),
(1098,2408,cs),
(1282,2408,o),
(1362,2364,o),
(1386,2224,cs),
(1398,2140,o),
(1474,2076,o),
(1558,2076,cs),
(1674,2076,o),
(1758,2180,o),
(1734,2292,cs),
(1666,2588,o),
(1442,2768,o),
(1098,2768,cs),
(678,2768,o),
(454,2500,o),
(454,2096,cs),
(454,1652,o),
(798,1524,o),
(1090,1472,cs),
(1382,1420,o),
(1386,1416,o),
(1386,1232,cs),
(1386,632,o),
(1310,396,o),
(722,364,cs),
(626,360,o),
(550,280,o),
(550,184,cs),
(550,80,o),
(642,0,o),
(742,4,cs)
);
},
{
closed = 1;
nodes = (
(1078,1082,o),
(994,1116,o),
(974,1232,cs),
(958,1316,o),
(886,1380,o),
(798,1380,cs),
(682,1380,o),
(602,1272,o),
(622,1168,cs),
(682,868,o),
(910,742,o),
(1420,722,cs),
(1516,718,o),
(1608,794,o),
(1608,898,cs),
(1608,998,o),
(1524,1078,o),
(1428,1079,cs)
);
}
);
width = 2200;
}
);
unicode = 102;
},
{
glyphname = g;
kernLeft = lowercase;
kernRight = lowercase;
lastChange = "2023-06-29 21:24:39 +0000";
layers = (
{
layerId = m01;
shapes = (
{
closed = 1;
nodes = (
(1536,92,o),
(1826,461,o),
(1826,1408,cs),
(1826,2351,o),
(1536,2720,o),
(1000,2720,cs),
(423,2720,o),
(174,2349,o),
(174,1408,cs),
(174,463,o),
(423,92,o),
(1000,92,cs)
);
},
{
closed = 1;
nodes = (
(468,172,o),
(254,497,o),
(254,1408,cs),
(254,2315,o),
(468,2640,o),
(1000,2640,cs),
(1494,2640,o),
(1746,2313,o),
(1746,1408,cs),
(1746,499,o),
(1494,172,o),
(1000,172,cs)
);
},
{
closed = 1;
nodes = (
(1040,1852,ls),
(1040,1874,o),
(1022,1892,o),
(1000,1892,cs),
(978,1892,o),
(960,1874,o),
(960,1852,cs),
(960,964,ls),
(960,942,o),
(978,924,o),
(1000,924,cs),
(1022,924,o),
(1040,942,o),
(1040,964,cs)
);
}
);
width = 2000;
},
{
layerId = "C4A30611-87D3-4B41-A69F-FBC49DBA4127";
shapes = (
{
closed = 1;
nodes = (
(1676,24,o),
(2026,456,o),
(2026,1400,cs),
(2026,2340,o),
(1676,2772,o),
(1100,2772,cs),
(524,2772,o),
(174,2340,o),
(174,1400,cs),
(174,456,o),
(524,24,o),
(1100,24,cs)
);
},
{
closed = 1;
nodes = (
(708,384,o),
(534,624,o),
(534,1400,cs),
(534,2172,o),
(708,2412,o),
(1100,2412,cs),
(1492,2412,o),
(1666,2172,o),
(1666,1400,cs),
(1666,624,o),
(1492,384,o),
(1100,384,cs)
);
},
{
closed = 1;
nodes = (
(1280,1720,ls),
(1280,1816,o),
(1200,1900,o),
(1100,1900,cs),
(1000,1900,o),
(920,1816,o),
(920,1720,cs),
(920,1084,ls),
(920,984,o),
(1000,904,o),
(1100,904,cs),
(1200,904,o),
(1280,984,o),
(1280,1084,cs)
);
}
);
width = 2200;
}
);
unicode = 103;
},
{
glyphname = h;
kernLeft = lowercase;
kernRight = lowercase;
lastChange = "2023-06-29 21:24:39 +0000";
layers = (
{
layerId = m01;
shapes = (
{
closed = 1;
nodes = (
(1770,258,o),
(1612,184,o),
(1048,184,cs),
(470,184,o),
(224,265,o),
(224,888,cs),
(224,1520,o),
(394,1652,o),
(936,1652,cs),
(1431,1652,o),
(1720,1791,o),
(1720,2152,cs),
(1720,2471,o),
(1521,2656,o),
(1172,2656,cs),
(306,2656,ls),
(284,2656,o),
(266,2638,o),
(266,2616,cs),
(266,2594,o),
(284,2576,o),
(306,2576,cs),
(1172,2576,ls),
(1484,2576,o),
(1640,2431,o),
(1640,2152,cs),
(1640,1845,o),
(1407,1732,o),
(936,1732,cs),
(360,1732,o),
(144,1566,o),
(144,888,cs),
(144,203,o),
(454,104,o),
(1048,104,cs),
(1636,104,o),
(1849,202,o),
(1856,908,cs),
(1856,930,o),
(1838,948,o),
(1816,948,cs),
(1794,948,o),
(1776,930,o),
(1776,908,cs)
);
}
);
width = 2000;
},
{
layerId = "C4A30611-87D3-4B41-A69F-FBC49DBA4127";
shapes = (
{
closed = 1;
nodes = (
(1726,344,o),
(1638,324,o),
(1150,324,cs),
(594,324,o),
(466,368,o),
(466,888,cs),
(466,1452,o),
(542,1512,o),
(1038,1512,cs),
(1594,1512,o),
(1962,1692,o),
(1962,2152,cs),
(1962,2552,o),
(1698,2796,o),
(1274,2796,cs),
(386,2796,ls),
(286,2796,o),
(206,2716,o),
(206,2616,cs),
(206,2516,o),
(286,2436,o),
(386,2436,cs),
(1274,2436,ls),
(1530,2436,o),
(1602,2368,o),
(1602,2152,cs),
(1602,1932,o),
(1478,1872,o),
(1038,1872,cs),
(394,1872,o),
(106,1656,o),
(106,888,cs),
(106,88,o),
(522,-36,o),
(1150,-36,cs),
(1754,-36,o),
(2054,80,o),
(2094,772,cs),
(2098,872,o),
(2022,964,o),
(1914,964,cs),
(1818,964,o),
(1738,884,o),
(1738,788,cs)
);
}
);
width = 2200;
}
);
unicode = 104;
},
{
glyphname = i;
kernLeft = lowercase;
kernRight = lowercase;
lastChange = "2023-06-29 21:24:39 +0000";
layers = (
{
layerId = m01;
shapes = (
{
closed = 1;
nodes = (
(476,1272,o),
(532,1432,o),
(792,1641,cs),
(1071,1865,o),
(1519,2024,o),
(1519,2316,cs),
(1519,2593,o),
(1364,2725,o),
(1072,2735,cs),
(1050,2736,o),
(1031,2718,o),
(1031,2695,cs),
(1031,2674,o),
(1048,2656,o),
(1070,2655,cs),
(1327,2648,o),
(1439,2550,o),
(1439,2316,cs),
(1439,2080,o),
(1031,1935,o),
(742,1703,cs),
(461,1478,o),
(397,1288,o),
(391,1061,cs),
(391,1039,o),
(409,1020,o),
(431,1020,cs),
(453,1020,o),
(471,1037,o),
(471,1059,cs)
);
},
{
closed = 1;
nodes = (
(349,359,o),
(422,507,o),
(549,649,cs),
(737,861,o),
(1283,1147,o),
(1283,1488,cs),
(1283,1706,o),
(1203,1810,o),
(925,1819,cs),
(903,1820,o),
(884,1802,o),
(884,1779,cs),
(884,1758,o),
(901,1740,o),
(923,1739,cs),
(1158,1734,o),
(1203,1671,o),
(1203,1488,cs),
(1203,1196,o),
(686,924,o),
(489,703,cs),
(353,551,o),
(270,381,o),
(263,81,cs),
(263,59,o),
(281,40,o),
(303,40,cs),
(325,40,o),
(343,58,o),
(343,80,cs)
);
},
{
closed = 1;
nodes = (
(1381,232,o),
(1103,578,o),
(1091,1127,cs),
(1091,1149,o),
(1073,1166,o),
(1051,1166,cs),
(1029,1166,o),
(1011,1147,o),
(1012,1125,cs),
(1025,543,o),
(1337,153,o),
(1886,137,cs),
(1908,136,o),
(1927,154,o),
(1927,177,cs),
(1927,198,o),
(1910,216,o),
(1888,217,cs)
);
},
{
closed = 1;
nodes = (
(824,2564,o),
(482,2377,o),
(460,2014,cs),
(459,1992,o),
(477,1972,o),
(500,1972,cs),
(521,1972,o),
(539,1989,o),
(540,2010,cs),
(559,2325,o),
(852,2485,o),
(1416,2496,cs),
(1438,2496,o),
(1456,2514,o),
(1456,2536,cs),
(1456,2558,o),
(1438,2576,o),
(1416,2576,cs)
);
}
);
width = 2000;
},
{
layerId = "C4A30611-87D3-4B41-A69F-FBC49DBA4127";
shapes = (
{
closed = 1;
nodes = (
(775,1248,o),
(839,1344,o),
(1019,1492,cs),
(1347,1756,o),
(1799,1892,o),
(1799,2276,cs),
(1799,2584,o),
(1695,2708,o),
(1463,2852,cs),
(1371,2908,o),
(1243,2872,o),
(1203,2764,cs),
(1175,2680,o),
(1211,2584,o),
(1287,2540,c),
(1391,2496,o),
(1439,2412,o),
(1439,2276,cs),
(1439,2140,o),
(1103,2020,o),
(795,1772,cs),
(535,1564,o),
(435,1372,o),
(403,1172,cs),
(387,1064,o),
(471,964,o),
(583,964,cs),
(671,964,o),
(747,1032,o),
(759,1120,cs)
);
},
{
closed = 1;
nodes = (
(647,320,o),
(699,408,o),
(795,516,cs),
(963,708,o),
(1563,1024,o),
(1563,1448,cs),
(1563,1684,o),
(1475,1840,o),
(1203,1924,cs),
(1091,1960,o),
(983,1872,o),
(983,1760,cs),
(983,1676,o),
(1039,1608,o),
(1107,1580,cs),
(1203,1544,o),
(1203,1520,o),
(1203,1448,cs),
(1203,1240,o),
(739,996,o),
(523,756,cs),
(395,608,o),
(303,440,o),
(271,184,cs),
(259,80,o),
(343,-16,o),
(451,-16,cs),
(543,-16,o),
(619,56,o),
(631,148,cs)
);
},
{
closed = 1;
nodes = (
(1591,408,o),
(1411,584,o),
(1359,1044,cs),
(1347,1136,o),
(1271,1208,o),
(1179,1208,cs),
(1071,1208,o),
(991,1112,o),
(1003,1008,cs),
(1079,412,o),
(1383,84,o),
(1875,8,cs),
(1983,-8,o),
(2083,80,o),
(2083,188,cs),
(2083,276,o),
(2015,352,o),
(1927,364,cs)
);
},
{
closed = 1;
nodes = (
(919,2524,o),
(587,2356,o),
(487,2040,cs),
(451,1944,o),
(531,1808,o),
(659,1808,cs),
(739,1808,o),
(807,1860,o),
(831,1936,cs),
(879,2100,o),
(1051,2184,o),
(1411,2200,cs),
(1507,2204,o),
(1583,2284,o),
(1583,2380,cs),
(1583,2484,o),
(1491,2564,o),
(1391,2560,cs)
);
}
);
width = 2200;
}
);
unicode = 105;
},
{
glyphname = j;
kernLeft = lowercase;
kernRight = lowercase;
lastChange = "2023-06-29 21:24:39 +0000";
layers = (
{
layerId = m01;
shapes = (
{
closed = 1;
nodes = (
(523,719,o),
(541,1369,o),
(460,2726,cs),
(459,2747,o),
(441,2764,o),
(420,2764,cs),
(397,2764,o),
(379,2745,o),
(380,2722,cs),
(460,1369,o),
(443,742,o),
(36,104,cs),
(32,98,o),
(30,90,o),
(30,82,cs),
(30,60,o),
(47,42,o),
(70,42,cs),
(84,42,o),
(96,50,o),
(103,61,cs)
);
},
{
closed = 1;
nodes = (
(1282,1708,ls),
(1554,1708,o),
(1678,1823,o),
(1678,2040,cs),
(1678,2260,o),
(1550,2360,o),
(1282,2360,cs),
(466,2360,ls),
(444,2360,o),
(426,2342,o),
(426,2320,cs),
(426,2298,o),
(444,2280,o),
(466,2280,cs),
(1282,2280,ls),
(1516,2280,o),
(1598,2216,o),
(1598,2040,cs),
(1598,1862,o),
(1515,1788,o),
(1282,1788,cs),
(778,1788,ls),
(756,1788,o),
(738,1770,o),
(738,1748,cs),
(738,1726,o),
(756,1708,o),
(778,1708,cs)
);
},
{
closed = 1;
nodes = (
(1546,772,ls),
(1546,425,o),
(1337,280,o),
(1170,280,cs),
(1003,280,o),
(810,424,o),
(810,772,cs),
(810,1464,ls),
(810,1486,o),
(792,1504,o),
(770,1504,cs),
(748,1504,o),
(730,1486,o),
(730,1464,cs),
(730,772,ls),
(730,378,o),
(971,200,o),
(1170,200,cs),
(1369,200,o),
(1626,378,o),
(1626,772,cs),
(1626,1464,ls),
(1626,1486,o),
(1608,1504,o),
(1586,1504,cs),
(1564,1504,o),
(1546,1486,o),
(1546,1464,cs)
);
},
{
closed = 1;
nodes = (
(796,1180,ls),
(774,1180,o),
(756,1162,o),
(756,1140,cs),
(756,1118,o),
(774,1100,o),
(796,1100,cs),
(1560,1100,ls),
(1582,1100,o),
(1600,1118,o),
(1600,1140,cs),
(1600,1162,o),
(1582,1180,o),
(1560,1180,cs)
);
}
);
width = 2000;
},
{
layerId = "C4A30611-87D3-4B41-A69F-FBC49DBA4127";
shapes = (
{
closed = 1;
nodes = (
(720,736,o),
(740,1396,o),
(672,2608,cs),
(668,2704,o),
(588,2780,o),
(492,2780,cs),
(388,2780,o),
(308,2688,o),
(312,2588,cs),
(380,1404,o),
(360,832,o),
(44,280,cs),
(28,252,o),
(20,224,o),
(20,188,cs),
(20,92,o),
(100,12,o),
(200,12,cs),
(268,12,o),
(328,48,o),
(356,100,cs)
);
},
{
closed = 1;
nodes = (
(1348,1568,ls),
(1688,1568,o),
(1884,1740,o),
(1884,2036,cs),
(1884,2268,o),
(1768,2500,o),
(1348,2500,cs),
(582,2500,ls),
(482,2500,o),
(402,2420,o),
(402,2320,cs),
(402,2220,o),
(482,2140,o),
(582,2140,cs),
(1348,2140,ls),
(1484,2140,o),
(1524,2100,o),
(1524,2036,cs),
(1524,1968,o),
(1484,1928,o),
(1348,1928,cs),
(972,1928,ls),
(872,1928,o),
(792,1848,o),
(792,1748,cs),
(792,1648,o),
(872,1568,o),
(972,1568,cs)
);
},
{
closed = 1;
nodes = (
(1592,752,ls),
(1592,480,o),
(1480,400,o),
(1356,400,cs),
(1236,400,o),
(1136,476,o),
(1136,752,cs),
(1136,1320,ls),
(1136,1416,o),
(1056,1500,o),
(956,1500,cs),
(856,1500,o),
(776,1416,o),
(776,1320,cs),
(776,752,ls),
(776,268,o),
(1092,40,o),
(1356,40,cs),
(1624,40,o),
(1952,272,o),
(1952,752,cs),
(1952,1320,ls),
(1952,1416,o),
(1872,1500,o),
(1772,1500,cs),
(1672,1500,o),
(1592,1416,o),
(1592,1320,cs)
);
},
{
closed = 1;
nodes = (
(1040,1220,ls),
(940,1220,o),
(860,1140,o),
(860,1040,cs),
(860,940,o),
(940,860,o),
(1040,860,cs),
(1692,860,ls),
(1788,860,o),
(1872,940,o),
(1872,1040,cs),
(1872,1140,o),
(1788,1220,o),
(1692,1220,cs)
);
}
);
width = 2200;
}
);
unicode = 106;
},
{
glyphname = k;
kernLeft = lowercase;
kernRight = lowercase;
lastChange = "2023-06-29 21:24:39 +0000";
layers = (
{
layerId = m01;
shapes = (
{
closed = 1;
nodes = (
(533,2099,o),
(705,2371,o),
(819,2705,cs),
(828,2730,o),
(810,2758,o),
(782,2758,cs),
(764,2758,o),
(749,2747,o),
(744,2731,cs),
(633,2407,o),
(470,2148,o),
(242,1918,cs),
(235,1910,o),
(230,1900,o),
(230,1889,cs),
(230,1867,o),
(248,1849,o),
(270,1849,cs),
(282,1849,o),
(292,1854,o),
(299,1861,cs)
);
},
{
closed = 1;
nodes = (
(446,915,o),
(638,1416,o),
(864,1627,cs),
(1090,1837,o),
(1365,1854,o),
(1365,2144,cs),
(1365,2353,o),
(1295,2436,o),
(973,2436,cs),
(651,2436,ls),
(629,2436,o),
(611,2418,o),
(611,2396,cs),
(611,2374,o),
(629,2356,o),
(651,2356,cs),
(973,2356,ls),
(1251,2356,o),
(1285,2317,o),
(1285,2144,cs),
(1285,1920,o),
(1064,1922,o),
(810,1685,cs),
(568,1460,o),
(367,934,o),
(361,88,cs),
(361,66,o),
(379,48,o),
(401,48,cs),
(423,48,o),
(441,66,o),
(441,88,cs)
);
},
{
closed = 1;
nodes = (
(1349,409,o),
(1124,762,o),
(1117,1520,cs),
(1117,1542,o),
(1099,1560,o),
(1077,1560,cs),
(1055,1560,o),
(1037,1542,o),
(1037,1520,cs),
(1044,734,o),
(1291,347,o),
(1796,126,cs),
(1820,115,o),
(1852,131,o),
(1852,162,cs),
(1852,179,o),
(1842,193,o),
(1828,199,cs)
);
}
);
width = 2000;
},
{
layerId = "C4A30611-87D3-4B41-A69F-FBC49DBA4127";
shapes = (
{
closed = 1;
nodes = (
(728,2060,o),
(864,2280,o),
(986,2556,cs),
(1029,2653,o),
(965,2801,o),
(821,2801,cs),
(745,2801,o),
(681,2753,o),
(653,2689,cs),
(548,2448,o),
(436,2268,o),
(284,2100,cs),
(256,2068,o),
(240,2028,o),
(240,1980,cs),
(240,1880,o),
(320,1800,o),
(420,1800,cs),
(472,1800,o),
(520,1824,o),
(556,1864,cs)
);
},
{
closed = 1;
nodes = (
(668,932,o),
(832,1344,o),
(1024,1524,cs),
(1276,1760,o),
(1568,1772,o),
(1568,2144,cs),
(1568,2424,o),
(1444,2576,o),
(1036,2576,cs),
(762,2576,ls),
(662,2576,o),
(582,2496,o),
(582,2396,cs),
(582,2296,o),
(662,2216,o),
(762,2216,cs),
(1036,2216,ls),
(1168,2216,o),
(1208,2206,o),
(1208,2144,cs),
(1208,2028,o),
(1084,2072,o),
(776,1788,cs),
(516,1544,o),
(312,1028,o),
(288,220,cs),
(284,120,o),
(360,32,o),
(468,32,cs),
(564,32,o),
(644,112,o),
(648,208,cs)
);
},
{
closed = 1;
nodes = (
(1584,556,o),
(1424,828,o),
(1404,1400,cs),
(1400,1496,o),
(1320,1576,o),
(1224,1576,cs),
(1120,1576,o),
(1040,1484,o),
(1044,1384,cs),
(1076,692,o),
(1312,296,o),
(1756,60,cs),
(1864,0,o),
(2020,64,o),
(2020,216,cs),
(2020,284,o),
(1984,344,o),
(1924,376,cs)
);
}
);
width = 2200;
}
);
unicode = 107;
},
{
glyphname = l;
kernLeft = lowercase;
kernRight = lowercase;
lastChange = "2023-06-29 21:24:39 +0000";
layers = (
{
layerId = m01;
shapes = (
{
closed = 1;
nodes = (
(1422,303,o),
(1133,775,o),
(1133,1752,cs),
(1133,1853,o),
(1151,1868,o),
(1257,1868,cs),
(1482,1868,o),
(1669,1955,o),
(1669,2196,cs),
(1669,2431,o),
(1562,2528,o),
(1349,2528,cs),
(1103,2528,o),
(952,2484,o),
(745,2484,cs),
(497,2484,o),
(383,2520,o),
(292,2712,cs),
(285,2726,o),
(272,2735,o),
(256,2735,cs),
(223,2735,o),
(209,2700,o),
(220,2678,cs),
(327,2452,o),
(480,2404,o),
(745,2404,cs),
(963,2404,o),
(1115,2448,o),
(1349,2448,cs),
(1526,2448,o),
(1589,2390,o),
(1589,2196,cs),
(1589,2009,o),
(1460,1948,o),
(1257,1948,cs),
(1117,1948,o),
(1053,1897,o),
(1053,1752,cs),
(1053,747,o),
(1364,240,o),
(1852,44,cs),
(1878,34,o),
(1907,52,o),
(1907,81,cs),
(1907,98,o),
(1897,112,o),
(1882,118,cs)
);
},
{
closed = 1;
nodes = (
(421,441,o),
(581,629,o),
(581,1040,cs),
(581,1336,o),
(634,1557,o),
(810,1664,cs),
(822,1671,o),
(829,1684,o),
(829,1699,cs),
(829,1721,o),
(812,1739,o),
(789,1739,cs),
(782,1739,o),
(775,1736,o),
(769,1733,cs),
(561,1607,o),
(501,1348,o),
(501,1040,cs),
(501,659,o),
(360,493,o),
(104,210,cs),
(97,202,o),
(93,193,o),
(93,183,cs),
(93,161,o),
(111,143,o),
(133,143,cs),
(145,143,o),
(156,148,o),
(163,156,cs)
);
}
);
width = 2000;
},
{
layerId = "C4A30611-87D3-4B41-A69F-FBC49DBA4127";
shapes = (
{
closed = 1;
nodes = (
(1694,480,o),
(1486,888,o),
(1486,1700,cs),
(1486,1720,o),
(1494,1728,o),
(1510,1728,cs),
(1810,1728,o),
(2022,1904,o),
(2022,2196,cs),
(2022,2512,o),
(1850,2668,o),
(1562,2668,cs),
(1294,2668,o),
(1146,2624,o),
(958,2624,cs),
(786,2624,o),
(692,2658,o),
(644,2726,cs),
(612,2770,o),
(560,2798,o),
(500,2798,cs),
(344,2798,o),
(276,2614,o),
(360,2510,cs),
(496,2338,o),
(710,2264,o),
(958,2264,cs),
(1198,2264,o),
(1346,2308,o),
(1562,2308,cs),
(1634,2308,o),
(1662,2276,o),
(1662,2196,cs),
(1662,2120,o),
(1634,2088,o),
(1470,2088,cs),
(1218,2088,o),
(1126,1944,o),
(1126,1752,cs),
(1126,780,o),
(1414,228,o),
(1882,-24,cs),
(1986,-80,o),
(2146,-16,o),
(2146,132,cs),
(2146,204,o),
(2106,264,o),
(2050,292,cs)
);
},
{
closed = 1;
nodes = (
(742,404,o),
(894,628,o),
(894,1040,cs),
(894,1272,o),
(918,1412,o),
(998,1500,cs),
(1026,1532,o),
(1046,1572,o),
(1046,1620,cs),
(1046,1720,o),
(966,1800,o),
(866,1800,cs),
(814,1800,o),
(766,1776,o),
(734,1740,cs),
(578,1564,o),
(534,1308,o),
(534,1040,cs),
(534,748,o),
(450,616,o),
(254,396,cs),
(226,364,o),
(210,324,o),
(210,276,cs),
(210,176,o),
(290,96,o),
(390,96,cs),
(446,96,o),
(494,120,o),
(526,156,cs)
);
}
);
width = 2200;
}
);
unicode = 108;
},
{
glyphname = m;
kernLeft = lowercase;
kernRight = lowercase;
lastChange = "2023-06-29 21:24:39 +0000";
layers = (
{
layerId = m01;
shapes = (
{
closed = 1;
nodes = (
(277,269,o),
(333,579,o),
(333,872,cs),
(333,2692,ls),
(333,2714,o),
(315,2732,o),
(293,2732,cs),
(271,2732,o),
(253,2714,o),
(253,2692,cs),
(253,872,ls),
(253,588,o),
(201,305,o),
(25,117,cs),
(18,110,o),
(14,100,o),
(14,90,cs),
(14,68,o),
(32,50,o),
(54,50,cs),
(66,50,o),
(76,55,o),
(84,62,c)
);
},
{
closed = 1;
nodes = (
(597,2520,ls),
(575,2520,o),
(557,2502,o),
(557,2480,cs),
(557,2458,o),
(575,2440,o),
(597,2440,cs),
(1613,2440,ls),
(1635,2440,o),
(1653,2458,o),
(1653,2480,cs),
(1653,2502,o),
(1635,2520,o),
(1613,2520,cs)
);
},
{
closed = 1;
nodes = (
(1141,2444,ls),
(1141,2466,o),
(1123,2484,o),
(1101,2484,cs),
(1079,2484,o),
(1061,2466,o),
(1061,2444,cs),
(1061,1932,ls),
(1061,1910,o),
(1079,1892,o),
(1101,1892,cs),
(1123,1892,o),
(1141,1910,o),
(1141,1932,cs)
);
},
{
closed = 1;
nodes = (
(1626,247,o),
(1473,528,o),
(1473,820,cs),
(1473,1324,ls),
(1473,1622,o),
(1421,1936,o),
(1101,1936,cs),
(785,1936,o),
(685,1627,o),
(685,1324,cs),
(685,820,ls),
(685,574,o),
(620,381,o),
(471,180,cs),
(466,174,o),
(463,166,o),
(463,157,cs),
(463,135,o),
(481,117,o),
(503,117,cs),
(516,117,o),
(528,123,o),
(535,133,cs),
(692,346,o),
(765,559,o),
(765,820,cs),
(765,1324,ls),
(765,1610,o),
(846,1856,o),
(1101,1856,cs),
(1351,1856,o),
(1393,1613,o),
(1393,1324,cs),
(1393,820,ls),
(1393,504,o),
(1573,171,o),
(1943,149,cs),
(1966,148,o),
(1985,166,o),
(1985,189,cs),
(1985,210,o),
(1968,228,o),
(1947,229,cs)
);
}
);
width = 2000;
},
{
layerId = "C4A30611-87D3-4B41-A69F-FBC49DBA4127";
shapes = (
{
closed = 1;
nodes = (
(492,324,o),
(536,612,o),
(536,872,cs),
(536,2568,ls),
(536,2664,o),
(456,2748,o),
(356,2748,cs),
(256,2748,o),
(176,2664,o),
(176,2568,cs),
(176,872,ls),
(176,640,o),
(144,440,o),
(44,288,cs),
(28,260,o),
(16,224,o),
(16,188,cs),
(16,88,o),
(96,8,o),
(196,8,cs),
(256,8,o),
(312,40,o),
(344,92,cs)
);
},
{
closed = 1;
nodes = (
(908,2660,ls),
(808,2660,o),
(728,2580,o),
(728,2480,cs),
(728,2380,o),
(808,2300,o),
(908,2300,cs),
(1672,2300,ls),
(1768,2300,o),
(1852,2380,o),
(1852,2480,cs),
(1852,2580,o),
(1768,2660,o),
(1672,2660,cs)
);
},
{
closed = 1;
nodes = (
(1464,2320,ls),
(1464,2416,o),
(1384,2500,o),
(1284,2500,cs),
(1184,2500,o),
(1104,2416,o),
(1104,2320,cs),
(1104,2032,ls),
(1104,1932,o),
(1184,1852,o),
(1284,1852,cs),
(1384,1852,o),
(1464,1932,o),
(1464,2032,cs)
);
},
{
closed = 1;
nodes = (
(1872,428,o),
(1796,596,o),
(1796,820,cs),
(1796,1324,ls),
(1796,1720,o),
(1688,2076,o),
(1284,2076,cs),
(896,2076,o),
(728,1728,o),
(728,1324,cs),
(728,820,ls),
(728,636,o),
(692,500,o),
(604,356,cs),
(588,328,o),
(576,296,o),
(576,260,cs),
(576,160,o),
(656,80,o),
(756,80,cs),
(820,80,o),
(880,116,o),
(908,168,cs),
(1032,368,o),
(1088,576,o),
(1088,820,cs),
(1088,1324,ls),
(1088,1588,o),
(1132,1716,o),
(1284,1716,cs),
(1416,1716,o),
(1436,1600,o),
(1436,1324,cs),
(1436,820,ls),
(1436,492,o),
(1608,140,o),
(1956,36,cs),
(2072,4,o),
(2184,88,o),
(2184,208,cs),
(2184,292,o),
(2128,360,o),
(2052,380,cs)
);
}
);
width = 2200;
}
);
unicode = 109;
},
{
glyphname = n;
kernLeft = lowercase;
kernRight = lowercase;
lastChange = "2023-06-29 21:24:39 +0000";
layers = (
{
layerId = m01;
shapes = (
{
closed = 1;
nodes = (
(1037,2726,ls),
(1037,2748,o),
(1019,2766,o),
(997,2766,cs),
(975,2766,o),
(957,2748,o),
(957,2726,cs),
(957,82,ls),
(957,60,o),
(975,42,o),
(997,42,cs),
(1019,42,o),
(1037,60,o),
(1037,82,cs)
);
},
{
closed = 1;
nodes = (
(1392,2442,o),
(608,2442,o),
(203,2050,cs),
(196,2043,o),
(191,2033,o),
(191,2022,cs),
(191,2000,o),
(209,1982,o),
(231,1982,cs),
(242,1982,o),
(252,1986,o),
(259,1993,cs),
(636,2359,o),
(1364,2359,o),
(1741,1993,cs),
(1748,1986,o),
(1758,1982,o),
(1769,1982,cs),
(1791,1982,o),
(1809,2000,o),
(1809,2022,cs),
(1809,2033,o),
(1804,2043,o),
(1797,2050,cs)
);
},
{
closed = 1;
nodes = (
(2233,2471,o),
(-233,2471,o),
(406,557,cs),
(412,542,o),
(427,530,o),
(444,530,cs),
(466,530,o),
(484,548,o),
(484,570,cs),
(484,574,o),
(484,579,o),
(482,583,c),
(-117,2376,o),
(2117,2376,o),
(1518,583,c),
(1516,579,o),
(1516,574,o),
(1516,570,cs),
(1516,548,o),
(1534,530,o),
(1556,530,cs),
(1573,530,o),
(1588,542,o),
(1594,557,cs)
);
}
);
width = 2000;
},
{
layerId = "C4A30611-87D3-4B41-A69F-FBC49DBA4127";
shapes = (
{
closed = 1;
nodes = (
(1297,2622,ls),
(1297,2732,o),
(1207,2822,o),
(1097,2822,cs),
(987,2822,o),
(897,2732,o),
(897,2622,cs),
(897,166,ls),
(897,56,o),
(987,-34,o),
(1097,-34,cs),
(1207,-34,o),
(1297,56,o),
(1297,166,cs)
);
},
{
closed = 1;
nodes = (
(1434,2610,o),
(766,2610,o),
(328,2306,cs),
(276,2270,o),
(242,2211,o),
(242,2143,cs),
(242,2033,o),
(331,1944,o),
(441,1944,cs),
(485,1944,o),
(525,1958,o),
(558,1982,cs),
(866,2206,o),
(1334,2206,o),
(1642,1982,cs),
(1675,1958,o),
(1715,1944,o),
(1759,1944,cs),
(1869,1944,o),
(1958,2033,o),
(1958,2143,cs),
(1958,2211,o),
(1924,2270,o),
(1872,2306,cs)
);
},
{
closed = 1;
nodes = (
(2429,2494,o),
(-229,2494,o),
(310,506,cs),
(332,420,o),
(410,358,o),
(503,358,cs),
(613,358,o),
(703,447,o),
(703,558,cs),
(703,576,o),
(700,593,o),
(696,610,cs),
(312,2024,o),
(1888,2024,o),
(1504,610,cs),
(1500,593,o),
(1497,576,o),
(1497,558,cs),
(1497,447,o),
(1587,358,o),
(1697,358,cs),
(1790,358,o),
(1868,420,o),
(1890,506,cs)
);
}
);
width = 2200;
}
);
unicode = 110;
},
{
glyphname = o;
kernLeft = lowercase;
kernRight = lowercase;
lastChange = "2023-06-29 21:24:39 +0000";
layers = (
{
layerId = m01;
shapes = (
{
closed = 1;
nodes = (
(-104,846,o),
(534,1557,o),
(714,1813,cs),
(894,2070,o),
(1009,2339,o),
(782,2740,cs),
(775,2752,o),
(762,2760,o),
(747,2760,cs),
(725,2760,o),
(707,2742,o),
(707,2720,cs),
(707,2713,o),
(709,2706,o),
(712,2700,cs),
(919,2336,o),
(822,2107,o),
(648,1859,cs),
(471,1607,o),
(-196,864,o),
(94,70,cs),
(99,55,o),
(114,44,o),
(131,44,cs),
(153,44,o),
(171,62,o),
(171,84,cs),
(171,88,o),
(170,93,o),
(169,97,cs)
);
},
{
closed = 1;
nodes = (
(1307,280,o),
(821,830,o),
(611,1655,cs),
(607,1672,o),
(591,1685,o),
(573,1685,cs),
(547,1685,o),
(528,1660,o),
(534,1635,cs),
(750,788,o),
(1261,207,o),
(1945,80,cs),
(1970,75,o),
(1993,94,o),
(1993,119,cs),
(1993,139,o),
(1978,155,o),
(1960,158,cs)
);
}
);
width = 2000;
},
{
layerId = "C4A30611-87D3-4B41-A69F-FBC49DBA4127";
shapes = (
{
closed = 1;
nodes = (
(324,884,o),
(849,1472,o),
(1024,1721,cs),
(1200,1972,o),
(1338,2268,o),
(1174,2667,cs),
(1144,2740,o),
(1073,2791,o),
(990,2791,cs),
(880,2791,o),
(791,2702,o),
(791,2592,cs),
(791,2564,o),
(796,2538,o),
(807,2514,cs),
(903,2288,o),
(839,2154,o),
(696,1951,cs),
(535,1721,o),
(-113,996,o),
(74,177,cs),
(95,88,o),
(174,22,o),
(269,22,cs),
(380,22,o),
(469,111,o),
(469,222,cs),
(469,237,o),
(468,252,o),
(465,266,cs)
);
},
{
closed = 1;
nodes = (
(1544,485,o),
(1178,906,o),
(943,1664,cs),
(917,1746,o),
(841,1806,o),
(750,1806,cs),
(614,1806,o),
(520,1675,o),
(560,1549,cs),
(830,692,o),
(1302,144,o),
(1936,-40,cs),
(2064,-77,o),
(2191,19,o),
(2191,152,cs),
(2191,243,o),
(2130,321,o),
(2046,344,cs)
);
}
);
width = 2200;
}
);
unicode = 111;
},
{
glyphname = p;
kernLeft = lowercase;
kernRight = lowercase;
lastChange = "2023-06-29 21:24:39 +0000";
layers = (
{
layerId = m01;
shapes = (
{
closed = 1;
nodes = (
(1659,767,o),
(1485,1186,o),
(1040,1477,cs),
(699,1704,o),
(446,1759,o),
(446,2120,cs),
(446,2716,ls),
(446,2738,o),
(428,2756,o),
(406,2756,cs),
(384,2756,o),
(366,2738,o),
(366,2716,cs),
(366,2120,ls),
(366,1701,o),
(670,1627,o),
(996,1411,cs),
(1418,1134,o),
(1581,745,o),
(1631,89,cs),
(1633,68,o),
(1650,52,o),
(1671,52,cs),
(1695,52,o),
(1713,73,o),
(1711,95,cs)
);
},
{
closed = 1;
nodes = (
(422,2328,ls),
(400,2328,o),
(382,2310,o),
(382,2288,cs),
(382,2266,o),
(400,2248,o),
(422,2248,cs),
(1486,2248,ls),
(1508,2248,o),
(1526,2266,o),
(1526,2288,cs),
(1526,2310,o),
(1508,2328,o),
(1486,2328,cs)
);
},
{
closed = 1;
nodes = (
(628,339,o),
(738,570,o),
(738,1064,cs),
(738,1624,ls),
(738,1646,o),
(720,1664,o),
(698,1664,cs),
(676,1664,o),
(658,1646,o),
(658,1624,cs),
(658,1064,ls),
(658,592,o),
(563,391,o),
(318,229,cs),
(307,222,o),
(300,209,o),
(300,195,cs),
(300,173,o),
(318,155,o),
(340,155,cs),
(348,155,o),
(356,158,o),
(362,162,cs)
);
}
);
width = 2000;
},
{
layerId = "C4A30611-87D3-4B41-A69F-FBC49DBA4127";
shapes = (
{
closed = 1;
nodes = (
(1914,868,o),
(1718,1296,o),
(1262,1596,cs),
(886,1840,o),
(730,1856,o),
(730,2120,cs),
(730,2592,ls),
(730,2688,o),
(650,2772,o),
(550,2772,cs),
(450,2772,o),
(370,2688,o),
(370,2592,cs),
(370,2120,ls),
(370,1592,o),
(758,1496,o),
(1062,1292,cs),
(1422,1056,o),
(1570,752,o),
(1626,200,cs),
(1634,108,o),
(1710,36,o),
(1806,36,cs),
(1910,36,o),
(1994,132,o),
(1982,236,cs)
);
},
{
closed = 1;
nodes = (
(634,2468,ls),
(534,2468,o),
(454,2388,o),
(454,2288,cs),
(454,2188,o),
(534,2108,o),
(634,2108,cs),
(1506,2108,ls),
(1602,2108,o),
(1686,2188,o),
(1686,2288,cs),
(1686,2388,o),
(1602,2468,o),
(1506,2468,cs)
);
},
{
closed = 1;
nodes = (
(922,332,o),
(1022,596,o),
(1022,1064,cs),
(1022,1582,ls),
(1022,1678,o),
(942,1762,o),
(842,1762,cs),
(742,1762,o),
(662,1678,o),
(662,1582,cs),
(662,1064,ls),
(662,688,o),
(614,532,o),
(438,380,cs),
(398,348,o),
(374,296,o),
(374,244,cs),
(374,144,o),
(454,64,o),
(554,64,cs),
(598,64,o),
(638,80,o),
(670,108,cs)
);
}
);
width = 2200;
}
);
unicode = 112;
},
{
glyphname = q;
kernLeft = lowercase;
kernRight = lowercase;
lastChange = "2023-06-29 21:24:39 +0000";
layers = (
{
layerId = m01;
shapes = (
{
closed = 1;
nodes = (
(360,1076,ls),
(360,1432,o),
(476,1698,o),
(579,1876,cs),
(684,2059,o),
(710,2347,o),
(712,2732,cs),
(712,2754,o),
(694,2772,o),
(672,2772,cs),
(650,2772,o),
(632,2754,o),
(632,2732,cs),
(631,2353,o),
(606,2083,o),
(509,1916,cs),
(404,1733,o),
(280,1449,o),
(280,1076,cs),
(280,192,ls),
(280,170,o),
(298,152,o),
(320,152,cs),
(342,152,o),
(360,170,o),
(360,192,cs)
);
},
{
closed = 1;
nodes = (
(1218,286,o),
(896,737,o),
(896,1156,cs),
(896,1322,o),
(969,1411,o),
(1152,1491,cs),
(1310,1560,o),
(1496,1654,o),
(1496,1876,cs),
(1496,2095,o),
(1370,2216,o),
(1128,2216,cs),
(672,2216,ls),
(650,2216,o),
(632,2198,o),
(632,2176,cs),
(632,2154,o),
(650,2136,o),
(672,2136,cs),
(1128,2136,ls),
(1332,2136,o),
(1416,2055,o),
(1416,1876,cs),
(1416,1704,o),
(1275,1632,o),
(1120,1565,cs),
(915,1475,o),
(816,1354,o),
(816,1156,cs),
(816,707,o),
(1167,215,o),
(1789,91,cs),
(1813,86,o),
(1837,106,o),
(1837,131,cs),
(1837,150,o),
(1823,166,o),
(1804,170,cs)
);
}
);
width = 2000;
},
{
layerId = "C4A30611-87D3-4B41-A69F-FBC49DBA4127";
shapes = (
{
closed = 1;
nodes = (
(710,1092,ls),
(710,1420,o),
(830,1652,o),
(930,1820,cs),
(1038,2012,o),
(1074,2284,o),
(1082,2620,cs),
(1082,2716,o),
(1006,2804,o),
(902,2804,cs),
(802,2804,o),
(722,2724,o),
(722,2624,cs),
(714,2324,o),
(690,2128,o),
(618,2004,cs),
(506,1808,o),
(350,1496,o),
(350,1092,cs),
(350,336,ls),
(350,236,o),
(430,156,o),
(530,156,cs),
(630,156,o),
(710,236,o),
(710,336,cs)
);
},
{
closed = 1;
nodes = (
(1494,480,o),
(1266,824,o),
(1266,1172,cs),
(1266,1288,o),
(1286,1312,o),
(1438,1380,cs),
(1650,1472,o),
(1866,1608,o),
(1866,1892,cs),
(1866,2188,o),
(1674,2372,o),
(1358,2372,cs),
(998,2372,ls),
(898,2372,o),
(818,2292,o),
(818,2192,cs),
(818,2092,o),
(898,2012,o),
(998,2012,cs),
(1358,2012,ls),
(1506,2012,o),
(1506,2012,o),
(1506,1892,cs),
(1506,1808,o),
(1446,1776,o),
(1294,1708,cs),
(1046,1600,o),
(906,1432,o),
(906,1172,cs),
(906,692,o),
(1250,184,o),
(1854,4,cs),
(2002,-32,o),
(2086,80,o),
(2086,176,cs),
(2086,260,o),
(2030,328,o),
(1954,348,cs)
);
}
);
width = 2200;
}
);
unicode = 113;
},
{
glyphname = r;
kernLeft = lowercase;
kernRight = lowercase;
lastChange = "2023-06-29 21:24:39 +0000";
layers = (
{
layerId = m01;
shapes = (
{
closed = 1;
nodes = (
(808,677,o),
(887,1004,o),
(1360,1451,cs),
(1782,1848,o),
(1865,1977,o),
(1865,2204,cs),
(1865,2503,o),
(1679,2672,o),
(1349,2672,cs),
(851,2672,o),
(454,2320,o),
(73,1344,cs),
(63,1319,o),
(81,1290,o),
(110,1290,cs),
(127,1290,o),
(141,1300,o),
(147,1315,cs),
(519,2268,o),
(886,2592,o),
(1349,2592,cs),
(1642,2592,o),
(1785,2462,o),
(1785,2204,cs),
(1785,2004,o),
(1718,1898,o),
(1306,1509,cs),
(813,1044,o),
(728,689,o),
(725,88,cs),
(725,66,o),
(743,48,o),
(765,48,cs),
(787,48,o),
(805,66,o),
(805,88,cs)
);
},
{
closed = 1;
nodes = (
(803,2065,ls),
(796,2072,o),
(786,2076,o),
(776,2076,cs),
(754,2076,o),
(736,2058,o),
(736,2036,cs),
(736,2024,o),
(741,2014,o),
(749,2006,cs),
(1155,1639,ls),
(1162,1632,o),
(1172,1628,o),
(1182,1628,cs),
(1204,1628,o),
(1222,1646,o),
(1222,1668,cs),
(1222,1680,o),
(1217,1690,o),
(1209,1698,cs)
);
}
);
width = 2000;
},
{
layerId = "C4A30611-87D3-4B41-A69F-FBC49DBA4127";
shapes = (
{
closed = 1;
nodes = (
(1075,676,o),
(1159,940,o),
(1571,1324,cs),
(2011,1740,o),
(2119,1904,o),
(2119,2180,cs),
(2119,2560,o),
(1867,2788,o),
(1463,2788,cs),
(919,2788,o),
(491,2424,o),
(103,1492,cs),
(59,1384,o),
(131,1244,o),
(271,1244,cs),
(347,1244,o),
(411,1288,o),
(439,1356,cs),
(775,2184,o),
(1071,2428,o),
(1463,2428,cs),
(1659,2428,o),
(1759,2316,o),
(1759,2180,cs),
(1759,2020,o),
(1723,1964,o),
(1335,1600,cs),
(831,1124,o),
(719,748,o),
(703,196,cs),
(699,96,o),
(775,8,o),
(883,8,cs),
(979,8,o),
(1059,88,o),
(1059,184,cs)
);
},
{
closed = 1;
nodes = (
(919,2228,ls),
(887,2256,o),
(847,2276,o),
(799,2276,cs),
(699,2276,o),
(619,2196,o),
(619,2096,cs),
(619,2044,o),
(643,1996,o),
(679,1964,cs),
(1255,1436,ls),
(1287,1408,o),
(1327,1388,o),
(1375,1388,cs),
(1475,1388,o),
(1555,1468,o),
(1555,1568,cs),
(1555,1620,o),
(1531,1668,o),
(1495,1700,cs)
);
}
);
width = 2200;
}
);
unicode = 114;
},
{
glyphname = s;
kernLeft = lowercase;
kernRight = lowercase;
lastChange = "2023-06-29 21:24:39 +0000";
layers = (
{
layerId = m01;
shapes = (
{
closed = 1;
nodes = (
(158,2616,ls),
(136,2616,o),
(118,2598,o),
(118,2576,cs),
(118,2554,o),
(136,2536,o),
(158,2536,cs),
(826,2536,ls),
(848,2536,o),
(866,2554,o),
(866,2576,cs),
(866,2598,o),
(848,2616,o),
(826,2616,cs)
);
},
{
closed = 1;
nodes = (
(1078,2616,ls),
(1056,2616,o),
(1038,2598,o),
(1038,2576,cs),
(1038,2554,o),
(1056,2536,o),
(1078,2536,cs),
(1746,2536,ls),
(1768,2536,o),
(1786,2554,o),
(1786,2576,cs),
(1786,2598,o),
(1768,2616,o),
(1746,2616,cs)
);
},
{
closed = 1;
nodes = (
(46,2040,ls),
(24,2040,o),
(6,2022,o),
(6,2000,cs),
(6,1978,o),
(24,1960,o),
(46,1960,cs),
(1954,1960,ls),
(1976,1960,o),
(1994,1978,o),
(1994,2000,cs),
(1994,2022,o),
(1976,2040,o),
(1954,2040,cs)
);
},
{
closed = 1;
nodes = (
(1426,2560,ls),
(1426,2582,o),
(1408,2600,o),
(1386,2600,cs),
(1364,2600,o),
(1346,2582,o),
(1346,2560,cs),
(1346,84,ls),
(1346,62,o),
(1364,44,o),
(1386,44,cs),
(1408,44,o),
(1426,62,o),
(1426,84,cs)
);
},
{
closed = 1;
nodes = (
(497,751,o),
(592,1032,o),
(594,2560,cs),
(594,2582,o),
(576,2600,o),
(554,2600,cs),
(532,2600,o),
(514,2582,o),
(514,2560,cs),
(513,1048,o),
(423,782,o),
(136,247,cs),
(133,241,o),
(131,235,o),
(131,228,cs),
(131,206,o),
(149,188,o),
(171,188,cs),
(186,188,o),
(200,196,o),
(206,209,cs)
);
}
);
width = 2000;
},
{
layerId = "C4A30611-87D3-4B41-A69F-FBC49DBA4127";
shapes = (
{
closed = 1;
nodes = (
(324,2764,ls),
(224,2764,o),
(144,2684,o),
(144,2584,cs),
(144,2484,o),
(224,2404,o),
(324,2404,cs),
(860,2404,ls),
(956,2404,o),
(1040,2484,o),
(1040,2584,cs),
(1040,2684,o),
(956,2764,o),
(860,2764,cs)
);
},
{
closed = 1;
nodes = (
(1324,2764,ls),
(1224,2764,o),
(1144,2684,o),
(1144,2584,cs),
(1144,2484,o),
(1224,2404,o),
(1324,2404,cs),
(1860,2404,ls),
(1956,2404,o),
(2040,2484,o),
(2040,2584,cs),
(2040,2684,o),
(1956,2764,o),
(1860,2764,cs)
);
},
{
closed = 1;
nodes = (
(202,2108,ls),
(102,2108,o),
(22,2028,o),
(22,1928,cs),
(22,1828,o),
(102,1748,o),
(202,1748,cs),
(1998,1748,ls),
(2094,1748,o),
(2178,1828,o),
(2178,1928,cs),
(2178,2028,o),
(2094,2108,o),
(1998,2108,cs)
);
},
{
closed = 1;
nodes = (
(1774,2424,ls),
(1774,2520,o),
(1694,2604,o),
(1594,2604,cs),
(1494,2604,o),
(1414,2520,o),
(1414,2424,cs),
(1414,220,ls),
(1414,120,o),
(1494,40,o),
(1594,40,cs),
(1694,40,o),
(1774,120,o),
(1774,220,cs)
);
},
{
closed = 1;
nodes = (
(672,740,o),
(764,1096,o),
(772,2420,cs),
(772,2520,o),
(692,2604,o),
(592,2604,cs),
(492,2604,o),
(412,2520,o),
(412,2424,cs),
(408,1168,o),
(336,872,o),
(108,428,cs),
(96,404,o),
(88,376,o),
(88,348,cs),
(88,248,o),
(168,168,o),
(268,168,cs),
(336,168,o),
(396,208,o),
(428,264,cs)
);
}
);
width = 2200;
}
);
unicode = 115;
},
{
glyphname = t;
kernLeft = lowercase;
kernRight = lowercase;
lastChange = "2023-06-29 21:24:39 +0000";
layers = (
{
layerId = m01;
shapes = (
{
closed = 1;
nodes = (
(527,680,o),
(685,1076,o),
(688,2396,cs),
(688,2418,o),
(670,2436,o),
(648,2436,cs),
(626,2436,o),
(608,2418,o),
(608,2396,cs),
(605,1096,o),
(456,719,o),
(99,265,cs),
(94,258,o),
(90,250,o),
(90,240,cs),
(90,218,o),
(108,200,o),
(130,200,cs),
(143,200,o),
(154,206,o),
(162,216,cs)
);
},
{
closed = 1;
nodes = (
(1422,743,o),
(1188,1113,o),
(1184,2624,cs),
(1184,2646,o),
(1166,2664,o),
(1144,2664,cs),
(1122,2664,o),
(1104,2646,o),
(1104,2624,cs),
(1108,1086,o),
(1358,694,o),
(1842,213,cs),
(1849,206,o),
(1859,201,o),
(1870,201,cs),
(1892,201,o),
(1910,219,o),
(1910,241,cs),
(1910,252,o),
(1906,262,o),
(1899,270,cs)
);
}
);
width = 2000;
},
{
layerId = "C4A30611-87D3-4B41-A69F-FBC49DBA4127";
shapes = (
{
closed = 1;
nodes = (
(734,664,o),
(882,1104,o),
(894,2268,cs),
(894,2368,o),
(814,2452,o),
(714,2452,cs),
(614,2452,o),
(534,2368,o),
(534,2272,cs),
(522,1192,o),
(410,828,o),
(126,448,cs),
(106,416,o),
(94,380,o),
(94,340,cs),
(94,240,o),
(174,160,o),
(274,160,cs),
(334,160,o),
(386,188,o),
(418,236,cs)
);
},
{
closed = 1;
nodes = (
(1666,864,o),
(1486,1228,o),
(1470,2500,cs),
(1470,2596,o),
(1390,2680,o),
(1290,2680,cs),
(1190,2680,o),
(1110,2596,o),
(1110,2496,cs),
(1130,1104,o),
(1366,656,o),
(1798,208,cs),
(1830,172,o),
(1878,152,o),
(1930,152,cs),
(2026,152,o),
(2106,232,o),
(2106,332,cs),
(2106,380,o),
(2090,424,o),
(2058,456,cs)
);
}
);
width = 2200;
}
);
unicode = 116;
},
{
glyphname = u;
kernLeft = lowercase;
kernRight = lowercase;
lastChange = "2023-06-29 21:24:39 +0000";
layers = (
{
layerId = m01;
shapes = (
{
closed = 1;
nodes = (
(370,392,o),
(626,96,o),
(994,96,cs),
(1368,96,o),
(1622,350,o),
(1622,784,cs),
(1622,1225,o),
(1308,1388,o),
(958,1388,cs),
(729,1388,o),
(682,1430,o),
(682,1564,cs),
(682,1701,o),
(724,1748,o),
(914,1748,cs),
(1122,1748,ls),
(1430,1748,o),
(1546,1826,o),
(1546,2084,cs),
(1546,2318,o),
(1430,2396,o),
(1122,2396,cs),
(854,2396,ls),
(709,2396,o),
(614,2404,o),
(574,2456,cs),
(533,2509,o),
(540,2571,o),
(625,2713,cs),
(629,2719,o),
(631,2726,o),
(631,2733,cs),
(631,2755,o),
(613,2773,o),
(591,2773,cs),
(577,2773,o),
(564,2765,o),
(557,2754,cs),
(459,2589,o),
(449,2491,o),
(510,2408,cs),
(574,2328,o),
(702,2316,o),
(854,2316,cs),
(1122,2316,ls),
(1398,2316,o),
(1466,2271,o),
(1466,2084,cs),
(1466,1873,o),
(1398,1828,o),
(1122,1828,cs),
(914,1828,ls),
(682,1828,o),
(602,1737,o),
(602,1564,cs),
(602,1388,o),
(693,1308,o),
(958,1308,cs),
(1284,1308,o),
(1542,1172,o),
(1542,784,cs),
(1542,389,o),
(1329,176,o),
(994,176,cs),
(667,176,o),
(448,430,o),
(435,793,cs),
(434,815,o),
(416,832,o),
(395,832,cs),
(372,832,o),
(354,813,o),
(355,791,cs)
);
}
);
width = 2000;
},
{
layerId = "C4A30611-87D3-4B41-A69F-FBC49DBA4127";
shapes = (
{
closed = 1;
nodes = (
(404,264,o),
(696,-24,o),
(1096,-24,cs),
(1548,-24,o),
(1864,292,o),
(1864,804,cs),
(1864,1340,o),
(1464,1548,o),
(1060,1548,cs),
(936,1548,o),
(924,1560,o),
(924,1588,cs),
(924,1616,o),
(936,1628,o),
(1016,1628,cs),
(1224,1628,ls),
(1648,1628,o),
(1788,1788,o),
(1788,2092,cs),
(1788,2372,o),
(1656,2556,o),
(1224,2556,cs),
(956,2556,ls),
(840,2556,o),
(802,2545,o),
(788,2551,cs),
(781,2554,o),
(782,2567,o),
(792,2577,cs),
(805,2590,o),
(812,2620,o),
(812,2648,cs),
(812,2744,o),
(732,2824,o),
(636,2824,cs),
(560,2824,o),
(500,2776,o),
(472,2712,cs),
(404,2548,o),
(432,2436,o),
(500,2344,cs),
(592,2228,o),
(736,2196,o),
(956,2196,cs),
(1224,2196,ls),
(1388,2196,o),
(1428,2156,o),
(1428,2092,cs),
(1428,2028,o),
(1388,1988,o),
(1224,1988,cs),
(1016,1988,ls),
(664,1988,o),
(564,1800,o),
(564,1588,cs),
(564,1356,o),
(692,1188,o),
(1060,1188,cs),
(1352,1188,o),
(1504,1108,o),
(1504,804,cs),
(1504,468,o),
(1372,336,o),
(1096,336,cs),
(864,336,o),
(720,468,o),
(684,716,cs),
(672,800,o),
(600,868,o),
(508,868,cs),
(396,868,o),
(316,760,o),
(332,656,cs)
);
}
);
width = 2200;
}
);
unicode = 117;
},
{
glyphname = v;
kernLeft = lowercase;
kernRight = lowercase;
lastChange = "2023-06-29 21:24:39 +0000";
layers = (
{
layerId = m01;
shapes = (
{
closed = 1;
nodes = (
(300,856,o),
(415,1148,o),
(566,1361,cs),
(712,1567,o),
(839,1704,o),
(1173,1704,cs),
(1544,1704,o),
(1641,1761,o),
(1641,2040,cs),
(1641,2316,o),
(1546,2400,o),
(1205,2400,cs),
(773,2400,ls),
(460,2400,o),
(393,2449,o),
(480,2722,cs),
(488,2748,o),
(469,2774,o),
(442,2774,cs),
(424,2774,o),
(409,2762,o),
(404,2746,cs),
(300,2413,o),
(422,2320,o),
(773,2320,cs),
(1205,2320,ls),
(1510,2320,o),
(1561,2274,o),
(1561,2040,cs),
(1561,1811,o),
(1514,1784,o),
(1173,1784,cs),
(802,1784,o),
(651,1619,o),
(500,1407,cs),
(343,1185,o),
(221,875,o),
(190,61,cs),
(189,39,o),
(208,20,o),
(230,20,cs),
(252,20,o),
(269,37,o),
(270,58,cs)
);
},
{
closed = 1;
nodes = (
(1665,680,o),
(1575,917,o),
(1441,1100,cs),
(1308,1279,o),
(1173,1380,o),
(861,1380,cs),
(541,1380,ls),
(519,1380,o),
(501,1362,o),
(501,1340,cs),
(501,1318,o),
(519,1300,o),
(541,1300,cs),
(861,1300,ls),
(1144,1300,o),
(1252,1219,o),
(1377,1052,cs),
(1503,880,o),
(1586,660,o),
(1642,56,cs),
(1644,36,o),
(1661,20,o),
(1682,20,cs),
(1706,20,o),
(1724,41,o),
(1722,64,cs)
);
}
);
width = 2000;
},
{
layerId = "C4A30611-87D3-4B41-A69F-FBC49DBA4127";
shapes = (
{
closed = 1;
nodes = (
(592,856,o),
(688,1092,o),
(824,1280,cs),
(964,1480,o),
(1044,1564,o),
(1316,1564,cs),
(1740,1564,o),
(1924,1660,o),
(1924,2040,cs),
(1924,2400,o),
(1764,2540,o),
(1348,2540,cs),
(916,2540,ls),
(772,2540,o),
(728,2540,o),
(732,2596,cs),
(744,2700,o),
(660,2796,o),
(556,2796,cs),
(464,2796,o),
(388,2728,o),
(376,2640,cs),
(332,2312,o),
(536,2180,o),
(916,2180,cs),
(1348,2180,ls),
(1524,2180,o),
(1564,2140,o),
(1564,2040,cs),
(1564,1964,o),
(1524,1924,o),
(1316,1924,cs),
(872,1924,o),
(688,1708,o),
(528,1488,cs),
(364,1256,o),
(240,948,o),
(200,196,cs),
(196,96,o),
(272,4,o),
(380,4,cs),
(476,4,o),
(552,80,o),
(560,176,cs)
);
},
{
closed = 1;
nodes = (
(1932,756,o),
(1836,992,o),
(1696,1184,cs),
(1544,1388,o),
(1372,1520,o),
(1004,1520,cs),
(812,1520,ls),
(712,1520,o),
(632,1440,o),
(632,1340,cs),
(632,1240,o),
(712,1160,o),
(812,1160,cs),
(1004,1160,ls),
(1240,1160,o),
(1296,1120,o),
(1408,968,cs),
(1512,824,o),
(1580,656,o),
(1632,168,cs),
(1644,76,o),
(1720,4,o),
(1812,4,cs),
(1920,4,o),
(2004,100,o),
(1992,204,cs)
);
}
);
width = 2200;
}
);
unicode = 118;
},
{
glyphname = w;
kernLeft = lowercase;
kernRight = lowercase;
lastChange = "2023-06-29 21:24:39 +0000";
layers = (
{
layerId = m01;
shapes = (
{
closed = 1;
nodes = (
(1986,2057,o),
(1984,2289,o),
(1791,2466,cs),
(1548,2688,o),
(746,2689,o),
(261,2479,cs),
(247,2473,o),
(237,2459,o),
(237,2443,cs),
(237,2412,o),
(269,2396,o),
(293,2406,cs),
(760,2608,o),
(1521,2603,o),
(1737,2406,cs),
(1901,2256,o),
(1904,2067,o),
(1789,1788,cs),
(1780,1766,o),
(1794,1733,o),
(1826,1733,cs),
(1843,1733,o),
(1857,1743,o),
(1863,1758,cs)
);
},
{
closed = 1;
nodes = (
(185,658,o),
(300,960,o),
(497,1254,cs),
(624,1442,o),
(758,1516,o),
(1032,1516,cs),
(1337,1516,o),
(1460,1624,o),
(1460,1908,cs),
(1460,2130,o),
(1415,2351,o),
(1292,2599,cs),
(1286,2612,o),
(1272,2621,o),
(1256,2621,cs),
(1228,2621,o),
(1206,2592,o),
(1221,2563,cs),
(1338,2326,o),
(1380,2121,o),
(1380,1908,cs),
(1380,1666,o),
(1301,1596,o),
(1032,1596,cs),
(734,1596,o),
(570,1505,o),
(431,1298,cs),
(228,996,o),
(105,674,o),
(100,108,cs),
(100,86,o),
(118,68,o),
(140,68,cs),
(162,68,o),
(180,86,o),
(180,108,cs)
);
}
);
width = 2000;
},
{
layerId = "C4A30611-87D3-4B41-A69F-FBC49DBA4127";
shapes = (
{
closed = 1;
nodes = (
(2253,2120,o),
(2225,2372,o),
(2009,2568,cs),
(1737,2820,o),
(885,2832,o),
(361,2656,cs),
(293,2636,o),
(241,2568,o),
(241,2488,cs),
(241,2352,o),
(373,2284,o),
(477,2316,cs),
(913,2468,o),
(1605,2452,o),
(1769,2304,cs),
(1869,2212,o),
(1885,2124,o),
(1825,1948,cs),
(1793,1864,o),
(1845,1712,o),
(1993,1712,cs),
(2073,1712,o),
(2141,1764,o),
(2165,1836,cs)
);
},
{
closed = 1;
nodes = (
(365,672,o),
(465,916,o),
(637,1176,cs),
(745,1336,o),
(821,1376,o),
(1057,1376,cs),
(1433,1376,o),
(1625,1540,o),
(1625,1908,cs),
(1625,2104,o),
(1593,2308,o),
(1485,2576,cs),
(1457,2644,o),
(1393,2688,o),
(1317,2688,cs),
(1173,2688,o),
(1109,2540,o),
(1149,2444,cs),
(1241,2220,o),
(1265,2072,o),
(1265,1908,cs),
(1265,1736,o),
(1265,1736,o),
(1057,1736,cs),
(713,1736,o),
(505,1620,o),
(341,1376,cs),
(141,1080,o),
(13,760,o),
(-11,240,cs),
(-15,144,o),
(65,52,o),
(169,52,cs),
(265,52,o),
(345,132,o),
(349,228,cs)
);
}
);
width = 2200;
}
);
unicode = 119;
},
{
glyphname = x;
kernLeft = lowercase;
kernRight = lowercase;
lastChange = "2023-06-29 21:24:39 +0000";
layers = (
{
layerId = m01;
shapes = (
{
closed = 1;
nodes = (
(374,407,o),
(575,646,o),
(575,1112,cs),
(575,1488,ls),
(575,1726,o),
(683,1926,o),
(683,2164,cs),
(683,2393,o),
(548,2589,o),
(405,2731,cs),
(398,2738,o),
(388,2743,o),
(377,2743,cs),
(355,2743,o),
(337,2725,o),
(337,2703,cs),
(337,2692,o),
(341,2682,o),
(349,2675,cs),
(484,2540,o),
(603,2366,o),
(603,2164,cs),
(603,1946,o),
(495,1746,o),
(495,1488,cs),
(495,1112,ls),
(495,679,o),
(317,465,o),
(42,277,cs),
(32,270,o),
(25,258,o),
(25,244,cs),
(25,222,o),
(43,204,o),
(65,204,cs),
(73,204,o),
(81,207,o),
(87,211,cs)
);
},
{
closed = 1;
nodes = (
(1085,691,o),
(943,1067,o),
(943,1364,cs),
(943,1601,o),
(1029,1700,o),
(1295,1700,cs),
(1593,1700,o),
(1783,1795,o),
(1783,2116,cs),
(1783,2387,o),
(1653,2512,o),
(1331,2512,cs),
(883,2512,ls),
(861,2512,o),
(843,2494,o),
(843,2472,cs),
(843,2450,o),
(861,2432,o),
(883,2432,cs),
(1331,2432,ls),
(1615,2432,o),
(1703,2347,o),
(1703,2116,cs),
(1703,1848,o),
(1569,1780,o),
(1295,1780,cs),
(987,1780,o),
(863,1637,o),
(863,1364,cs),
(863,1048,o),
(1015,641,o),
(1923,39,c),
(1929,34,o),
(1937,32,o),
(1945,32,cs),
(1967,32,o),
(1985,50,o),
(1985,72,cs),
(1985,86,o),
(1978,98,o),
(1967,105,cs)
);
}
);
width = 2000;
},
{
layerId = "C4A30611-87D3-4B41-A69F-FBC49DBA4127";
shapes = (
{
closed = 1;
nodes = (
(568,380,o),
(752,652,o),
(752,1112,cs),
(752,1488,ls),
(752,1692,o),
(860,1892,o),
(860,2164,cs),
(860,2388,o),
(756,2576,o),
(636,2724,cs),
(604,2764,o),
(556,2792,o),
(500,2792,cs),
(400,2792,o),
(320,2708,o),
(320,2612,cs),
(320,2568,o),
(336,2528,o),
(360,2496,cs),
(444,2396,o),
(500,2288,o),
(500,2164,cs),
(500,1980,o),
(392,1780,o),
(392,1488,cs),
(392,1112,ls),
(392,780,o),
(292,612,o),
(92,460,cs),
(52,428,o),
(24,376,o),
(24,316,cs),
(24,220,o),
(104,140,o),
(204,140,cs),
(244,140,o),
(284,152,o),
(316,176,cs)
);
},
{
closed = 1;
nodes = (
(1348,808,o),
(1240,1104,o),
(1240,1364,cs),
(1240,1548,o),
(1248,1560,o),
(1452,1560,cs),
(1804,1560,o),
(2080,1696,o),
(2080,2116,cs),
(2080,2468,o),
(1888,2652,o),
(1488,2652,cs),
(1168,2652,ls),
(1068,2652,o),
(988,2572,o),
(988,2472,cs),
(988,2372,o),
(1068,2292,o),
(1168,2292,cs),
(1488,2292,ls),
(1716,2292,o),
(1720,2288,o),
(1720,2116,cs),
(1720,1936,o),
(1692,1920,o),
(1452,1920,cs),
(1060,1920,o),
(880,1708,o),
(880,1364,cs),
(880,1020,o),
(1032,592,o),
(1896,-4,cs),
(1924,-24,o),
(1960,-36,o),
(1996,-36,cs),
(2096,-36,o),
(2176,44,o),
(2176,144,cs),
(2176,204,o),
(2148,260,o),
(2100,292,cs)
);
}
);
width = 2200;
}
);
unicode = 120;
},
{
glyphname = y;
kernLeft = lowercase;
kernRight = lowercase;
lastChange = "2023-06-29 21:24:39 +0000";
layers = (
{
layerId = m01;
shapes = (
{
closed = 1;
nodes = (
(1440,353,o),
(1276,619,o),
(1276,1284,cs),
(1276,1376,o),
(1229,1416,o),
(1144,1416,cs),
(663,1416,o),
(460,1598,o),
(460,1980,cs),
(460,2192,o),
(530,2414,o),
(730,2668,cs),
(734,2674,o),
(737,2682,o),
(737,2691,cs),
(737,2713,o),
(719,2731,o),
(697,2731,cs),
(683,2731,o),
(671,2724,o),
(664,2714,cs),
(456,2448,o),
(380,2206,o),
(380,1980,cs),
(380,1560,o),
(623,1336,o),
(1144,1336,cs),
(1193,1336,o),
(1196,1334,o),
(1196,1284,cs),
(1196,591,o),
(1381,294,o),
(1740,66,cs),
(1768,48,o),
(1797,69,o),
(1797,97,cs),
(1797,113,o),
(1788,127,o),
(1775,135,cs)
);
},
{
closed = 1;
nodes = (
(880,1996,ls),
(955,1996,o),
(995,2029,o),
(1011,2099,cs),
(1062,2327,o),
(1258,2611,o),
(1474,2632,cs),
(1494,2634,o),
(1510,2651,o),
(1510,2672,cs),
(1510,2697,o),
(1489,2714,o),
(1466,2712,cs),
(1212,2686,o),
(989,2365,o),
(933,2117,cs),
(924,2078,o),
(922,2076,o),
(880,2076,cs),
(436,2076,ls),
(414,2076,o),
(396,2058,o),
(396,2036,cs),
(396,2014,o),
(414,1996,o),
(436,1996,cs)
);
}
);
width = 2000;
},
{
layerId = "C4A30611-87D3-4B41-A69F-FBC49DBA4127";
shapes = (
{
closed = 1;
nodes = (
(1678,512,o),
(1586,736,o),
(1586,1284,cs),
(1586,1452,o),
(1478,1556,o),
(1314,1556,cs),
(886,1556,o),
(770,1660,o),
(770,1980,cs),
(770,2140,o),
(810,2292,o),
(993,2540,cs),
(1008,2560,o),
(1020,2592,o),
(1020,2624,cs),
(1020,2724,o),
(940,2804,o),
(840,2804,cs),
(772,2804,o),
(716,2768,o),
(684,2723,cs),
(470,2420,o),
(410,2192,o),
(410,1980,cs),
(410,1476,o),
(726,1196,o),
(1206,1196,cs),
(1218,1196,o),
(1226,1188,o),
(1226,1176,cs),
(1226,624,o),
(1394,280,o),
(1690,80,cs),
(1794,8,o),
(1970,68,o),
(1970,228,cs),
(1970,292,o),
(1934,348,o),
(1886,380,cs)
);
},
{
closed = 1;
nodes = (
(1150,1856,ls),
(1290,1856,o),
(1386,1936,o),
(1418,2068,cs),
(1454,2236,o),
(1554,2380,o),
(1674,2428,cs),
(1742,2452,o),
(1790,2516,o),
(1790,2592,cs),
(1790,2736,o),
(1634,2800,o),
(1538,2756,cs),
(1298,2648,o),
(1122,2384,o),
(1086,2232,cs),
(1082,2220,o),
(1074,2216,o),
(1066,2216,cs),
(684,2216,ls),
(584,2216,o),
(504,2136,o),
(504,2036,cs),
(504,1936,o),
(584,1856,o),
(684,1856,cs)
);
}
);
width = 2200;
}
);
unicode = 121;
},
{
glyphname = z;
kernLeft = lowercase;
kernRight = lowercase;
lastChange = "2023-06-29 21:24:39 +0000";
layers = (
{
layerId = m01;
shapes = (
{
closed = 1;
nodes = (
(196,168,ls),
(174,168,o),
(156,150,o),
(156,128,cs),
(156,106,o),
(174,88,o),
(196,88,cs),
(1804,88,ls),
(1826,88,o),
(1844,106,o),
(1844,128,cs),
(1844,150,o),
(1826,168,o),
(1804,168,cs)
);
},
{
closed = 1;
nodes = (
(1040,2764,ls),
(1040,2786,o),
(1022,2804,o),
(1000,2804,cs),
(978,2804,o),
(960,2786,o),
(960,2764,cs),
(960,144,ls),
(960,122,o),
(978,104,o),
(1000,104,cs),
(1022,104,o),
(1040,122,o),
(1040,144,cs)
);
},
{
closed = 1;
nodes = (
(589,618,o),
(510,899,o),
(508,2044,cs),
(508,2066,o),
(490,2084,o),
(468,2084,cs),
(446,2084,o),
(428,2066,o),
(428,2044,cs),
(430,882,o),
(519,562,o),
(974,354,cs),
(1003,341,o),
(1031,363,o),
(1031,390,cs),
(1031,407,o),
(1021,421,o),
(1008,427,cs)
);
},
{
closed = 1;
nodes = (
(1579,884,o),
(1783,1270,o),
(1695,2447,cs),
(1693,2468,o),
(1676,2484,o),
(1655,2484,cs),
(1632,2484,o),
(1613,2464,o),
(1615,2441,cs),
(1701,1294,o),
(1518,944,o),
(994,709,cs),
(980,703,o),
(970,689,o),
(970,672,cs),
(970,639,o),
(1003,626,o),
(1026,636,cs)
);
}
);
width = 2000;
},
{
layerId = "C4A30611-87D3-4B41-A69F-FBC49DBA4127";
shapes = (
{
closed = 1;
nodes = (
(302,308,ls),
(202,308,o),
(122,228,o),
(122,128,cs),
(122,28,o),
(202,-52,o),
(302,-52,cs),
(1898,-52,ls),
(1994,-52,o),
(2078,28,o),
(2078,128,cs),
(2078,228,o),
(1994,308,o),
(1898,308,cs)
);
},
{
closed = 1;
nodes = (
(1278,2640,ls),
(1278,2736,o),
(1198,2820,o),
(1098,2820,cs),
(998,2820,o),
(918,2736,o),
(918,2640,cs),
(918,292,ls),
(918,192,o),
(998,112,o),
(1098,112,cs),
(1198,112,o),
(1278,192,o),
(1278,292,cs)
);
},
{
closed = 1;
nodes = (
(802,920,o),
(746,1104,o),
(746,1920,cs),
(746,2016,o),
(666,2100,o),
(566,2100,cs),
(466,2100,o),
(386,2016,o),
(386,1916,cs),
(386,1020,o),
(486,696,o),
(934,436,cs),
(1050,368,o),
(1206,448,o),
(1206,592,cs),
(1206,656,o),
(1170,716,o),
(1118,744,cs)
);
},
{
closed = 1;
nodes = (
(1806,1000,o),
(1994,1424,o),
(1942,2328,cs),
(1934,2424,o),
(1858,2500,o),
(1762,2500,cs),
(1658,2500,o),
(1574,2412,o),
(1582,2308,cs),
(1630,1540,o),
(1522,1252,o),
(1094,1024,cs),
(1038,992,o),
(1002,936,o),
(1002,864,cs),
(1002,716,o),
(1162,652,o),
(1266,708,cs)
);
}
);
width = 2200;
}
);
unicode = 122;
},
{
glyphname = zero;
lastChange = "2023-06-27 09:58:57 +0000";
layers = (
{
layerId = m01;
shapes = (
{
closed = 1;
nodes = (
(933,2664,o),
(872,2608,o),
(667,2478,cs),
(510,2378,o),
(100,2121,o),
(100,1627,cs),
(100,1112,o),
(486,742,o),
(1043,946,cs),
(1058,951,o),
(1069,966,o),
(1069,983,cs),
(1069,1010,o),
(1046,1028,o),
(1016,1021,cs),
(509,835,o),
(180,1156,o),
(180,1627,cs),
(180,2076,o),
(553,2311,o),
(709,2410,cs),
(931,2551,o),
(1047,2664,o),
(872,2833,cs),
(865,2840,o),
(855,2844,o),
(845,2844,cs),
(823,2844,o),
(805,2826,o),
(805,2804,cs),
(805,2793,o),
(809,2782,o),
(817,2775,cs)
);
},
{
closed = 1;
nodes = (
(750,417,o),
(871,494,o),
(1146,658,cs),
(1303,750,o),
(1542,944,o),
(1542,1332,cs),
(1542,1884,o),
(1061,2175,o),
(547,1923,cs),
(534,1917,o),
(525,1903,o),
(525,1887,cs),
(525,1865,o),
(543,1847,o),
(565,1847,cs),
(571,1847,o),
(577,1849,o),
(583,1852,cs),
(1050,2081,o),
(1462,1831,o),
(1462,1332,cs),
(1462,984,o),
(1255,815,o),
(1106,726,cs),
(829,562,o),
(660,457,o),
(773,-42,cs),
(777,-60,o),
(793,-73,o),
(812,-73,cs),
(837,-73,o),
(856,-49,o),
(851,-24,cs)
);
}
);
width = 1642;
},
{
layerId = "C4A30611-87D3-4B41-A69F-FBC49DBA4127";
shapes = (
{
closed = 1;
nodes = (
(841,2677,o),
(814,2659,o),
(741,2613,cs),
(581,2512,o),
(100,2212,o),
(100,1627,cs),
(100,1061,o),
(449,719,o),
(885,739,cs),
(1013,745,o),
(1082,847,o),
(1082,943,cs),
(1082,1053,o),
(993,1142,o),
(883,1142,cs),
(598,1142,o),
(500,1271,o),
(500,1627,cs),
(500,1988,o),
(799,2176,o),
(955,2275,cs),
(1196,2428,o),
(1276,2677,o),
(1152,2905,cs),
(1119,2965,o),
(1056,3006,o),
(983,3006,cs),
(876,3006,o),
(790,2919,o),
(790,2813,cs),
(790,2775,o),
(802,2740,o),
(821,2709,cs)
);
},
{
closed = 1;
nodes = (
(1225,308,o),
(1289,402,o),
(1488,520,cs),
(1662,623,o),
(1962,860,o),
(1962,1332,cs),
(1962,1923,o),
(1458,2255,o),
(979,2149,cs),
(897,2131,o),
(839,2051,o),
(839,1961,cs),
(839,1852,o),
(928,1763,o),
(1037,1763,cs),
(1060,1763,o),
(1082,1769,o),
(1103,1773,cs),
(1349,1819,o),
(1562,1681,o),
(1562,1332,cs),
(1562,1060,o),
(1423,946,o),
(1284,864,cs),
(970,678,o),
(816,416,o),
(885,-54,cs),
(899,-150,o),
(982,-224,o),
(1082,-224,cs),
(1209,-224,o),
(1299,-108,o),
(1278,9,cs)
);
}
);
width = 2062;
}
);
unicode = 48;
},
{
glyphname = one;
lastChange = "2023-06-27 09:58:57 +0000";
layers = (
{
layerId = m01;
shapes = (
{
closed = 1;
nodes = (
(517,167,o),
(738,516,o),
(738,1071,cs),
(738,2333,ls),
(738,2609,o),
(848,2681,o),
(1013,2689,cs),
(1034,2690,o),
(1051,2708,o),
(1051,2729,cs),
(1051,2752,o),
(1031,2770,o),
(1009,2769,cs),
(818,2758,o),
(658,2660,o),
(658,2333,cs),
(658,1071,ls),
(658,544,o),
(461,231,o),
(127,114,cs),
(111,108,o),
(100,94,o),
(100,76,cs),
(100,54,o),
(118,36,o),
(140,36,cs),
(145,36,o),
(149,37,o),
(153,38,cs)
);
}
);
width = 1151;
},
{
layerId = "C4A30611-87D3-4B41-A69F-FBC49DBA4127";
shapes = (
{
closed = 1;
nodes = (
(730,153,o),
(926,534,o),
(926,1071,cs),
(926,2273,ls),
(926,2403,o),
(972,2497,o),
(1055,2527,cs),
(1117,2549,o),
(1172,2622,o),
(1172,2707,cs),
(1172,2851,o),
(1022,2924,o),
(941,2900,cs),
(679,2817,o),
(526,2618,o),
(526,2273,cs),
(526,1071,ls),
(526,652,o),
(418,424,o),
(204,309,cs),
(142,275,o),
(100,210,o),
(100,134,cs),
(100,24,o),
(189,-64,o),
(298,-64,cs),
(334,-64,o),
(368,-55,o),
(397,-38,cs)
);
}
);
width = 1272;
}
);
unicode = 49;
},
{
glyphname = two;
lastChange = "2023-06-27 09:58:57 +0000";
layers = (
{
layerId = m01;
shapes = (
{
closed = 1;
nodes = (
(1843,585,o),
(1636,807,o),
(1105,907,cs),
(545,1013,o),
(405,1153,o),
(405,1363,cs),
(405,1572,o),
(546,1704,o),
(1054,1881,cs),
(1500,2037,o),
(1663,2143,o),
(1663,2421,cs),
(1663,2629,o),
(1542,2723,o),
(1326,2723,cs),
(1074,2723,o),
(665,2558,o),
(115,2140,c),
(106,2132,o),
(100,2121,o),
(100,2108,cs),
(100,2086,o),
(118,2068,o),
(140,2068,cs),
(149,2068,o),
(157,2071,o),
(164,2076,cs),
(704,2487,o),
(1092,2643,o),
(1326,2643,cs),
(1508,2643,o),
(1583,2585,o),
(1583,2421,cs),
(1583,2189,o),
(1460,2108,o),
(1028,1957,cs),
(499,1772,o),
(325,1611,o),
(325,1363,cs),
(325,1113,o),
(501,940,o),
(1091,829,cs),
(1592,734,o),
(1773,540,o),
(1942,-25,cs),
(1946,-41,o),
(1962,-53,o),
(1980,-53,cs),
(2006,-53,o),
(2026,-27,o),
(2018,-2,cs)
);
}
);
width = 2120;
},
{
layerId = "C4A30611-87D3-4B41-A69F-FBC49DBA4127";
shapes = (
{
closed = 1;
nodes = (
(2024,723,o),
(1771,961,o),
(1220,1065,cs),
(708,1161,o),
(650,1219,o),
(650,1363,cs),
(650,1502,o),
(716,1564,o),
(1192,1730,cs),
(1731,1919,o),
(1908,2083,o),
(1908,2421,cs),
(1908,2670,o),
(1767,2883,o),
(1411,2883,cs),
(1137,2883,o),
(710,2749,o),
(183,2416,cs),
(132,2384,o),
(100,2320,o),
(100,2254,cs),
(100,2143,o),
(190,2054,o),
(300,2054,cs),
(344,2054,o),
(384,2071,o),
(418,2092,cs),
(887,2385,o),
(1223,2483,o),
(1381,2483,cs),
(1468,2483,o),
(1508,2463,o),
(1508,2381,cs),
(1508,2275,o),
(1474,2253,o),
(1060,2108,cs),
(480,1905,o),
(250,1698,o),
(250,1363,cs),
(250,1025,o),
(486,796,o),
(1146,671,cs),
(1555,594,o),
(1693,481,o),
(1832,60,cs),
(1859,-19,o),
(1933,-76,o),
(2021,-76,cs),
(2161,-76,o),
(2254,62,o),
(2210,189,cs)
);
}
);
width = 2321;
}
);
unicode = 50;
},
{
glyphname = three;
lastChange = "2023-06-27 09:58:57 +0000";
layers = (
{
layerId = m01;
shapes = (
{
closed = 1;
nodes = (
(1044,1215,o),
(1592,1428,o),
(1592,2061,cs),
(1592,2672,o),
(1044,2884,o),
(131,2673,cs),
(113,2669,o),
(100,2653,o),
(100,2634,cs),
(100,2609,o),
(124,2590,o),
(149,2595,cs),
(1029,2799,o),
(1512,2611,o),
(1512,2061,cs),
(1512,1488,o),
(1029,1300,o),
(149,1504,cs),
(124,1509,o),
(100,1490,o),
(100,1465,cs),
(100,1446,o),
(113,1430,o),
(131,1426,cs)
);
},
{
closed = 1;
nodes = (
(141,2101,ls),
(119,2101,o),
(101,2083,o),
(101,2061,cs),
(101,2039,o),
(119,2021,o),
(141,2021,cs),
(1514,2021,ls),
(1536,2021,o),
(1554,2039,o),
(1554,2061,cs),
(1554,2083,o),
(1536,2101,o),
(1514,2101,cs)
);
},
{
closed = 1;
nodes = (
(1627,264,o),
(1525,883,o),
(1591,2023,cs),
(1592,2046,o),
(1574,2065,o),
(1551,2065,cs),
(1530,2065,o),
(1512,2048,o),
(1511,2027,cs),
(1445,877,o),
(1550,223,o),
(1905,-57,cs),
(1912,-62,o),
(1921,-66,o),
(1930,-66,cs),
(1952,-66,o),
(1970,-48,o),
(1970,-26,cs),
(1970,-13,o),
(1964,-1,o),
(1955,6,cs)
);
}
);
width = 2070;
},
{
layerId = "C4A30611-87D3-4B41-A69F-FBC49DBA4127";
shapes = (
{
closed = 1;
nodes = (
(1167,1070,o),
(1771,1337,o),
(1771,2061,cs),
(1771,2764,o),
(1167,3029,o),
(263,2860,cs),
(170,2843,o),
(100,2762,o),
(100,2664,cs),
(100,2538,o),
(217,2444,o),
(339,2469,cs),
(1071,2618,o),
(1371,2477,o),
(1371,2061,cs),
(1371,1624,o),
(1071,1481,o),
(339,1630,cs),
(215,1655,o),
(100,1561,o),
(100,1435,cs),
(100,1337,o),
(170,1256,o),
(263,1239,cs)
);
},
{
closed = 1;
nodes = (
(304,2261,ls),
(194,2261,o),
(104,2171,o),
(104,2061,cs),
(104,1951,o),
(194,1861,o),
(304,1861,cs),
(1389,1861,ls),
(1499,1861,o),
(1589,1951,o),
(1589,2061,cs),
(1589,2171,o),
(1499,2261,o),
(1389,2261,cs)
);
},
{
closed = 1;
nodes = (
(1788,446,o),
(1717,937,o),
(1772,2062,cs),
(1777,2173,o),
(1689,2271,o),
(1572,2271,cs),
(1465,2271,o),
(1377,2187,o),
(1372,2081,cs),
(1318,921,o),
(1400,299,o),
(1693,-54,cs),
(1730,-98,o),
(1785,-125,o),
(1846,-125,cs),
(1956,-125,o),
(2045,-36,o),
(2045,74,cs),
(2045,123,o),
(2027,169,o),
(1997,204,cs)
);
}
);
width = 2145;
}
);
unicode = 51;
},
{
glyphname = four;
lastChange = "2023-06-27 09:58:57 +0000";
layers = (
{
layerId = m01;
shapes = (
{
closed = 1;
nodes = (
(367,27,o),
(565,223,o),
(686,503,cs),
(787,737,o),
(794,1176,o),
(769,1645,cs),
(737,2215,o),
(777,2698,o),
(1049,2903,c),
(1058,2911,o),
(1065,2922,o),
(1065,2935,cs),
(1065,2957,o),
(1047,2975,o),
(1025,2975,cs),
(1016,2975,o),
(1007,2972,o),
(1000,2967,cs),
(699,2738,o),
(657,2218,o),
(689,1641,cs),
(714,1175,o),
(707,754,o),
(612,535,cs),
(498,271,o),
(319,93,o),
(146,25,cs),
(131,19,o),
(121,5,o),
(121,-12,cs),
(121,-34,o),
(139,-52,o),
(161,-52,cs),
(166,-52,o),
(171,-51,o),
(176,-49,cs)
);
},
{
closed = 1;
nodes = (
(1447,2047,o),
(1176,1638,o),
(729,1638,cs),
(278,1638,o),
(34,1933,o),
(267,2499,cs),
(269,2503,o),
(270,2508,o),
(270,2514,cs),
(270,2536,o),
(252,2554,o),
(230,2554,cs),
(213,2554,o),
(199,2544,o),
(193,2529,cs),
(-60,1911,o),
(233,1558,o),
(729,1558,cs),
(1225,1558,o),
(1538,2030,o),
(1351,2524,cs),
(1345,2539,o),
(1331,2550,o),
(1313,2550,cs),
(1291,2550,o),
(1273,2532,o),
(1273,2510,cs),
(1273,2505,o),
(1274,2500,o),
(1276,2495,cs)
);
}
);
width = 1506;
},
{
layerId = "C4A30611-87D3-4B41-A69F-FBC49DBA4127";
shapes = (
{
closed = 1;
nodes = (
(730,8,o),
(887,197,o),
(992,440,cs),
(1109,711,o),
(1113,1178,o),
(1088,1654,cs),
(1060,2150,o),
(1083,2520,o),
(1237,2710,cs),
(1264,2744,o),
(1281,2788,o),
(1281,2835,cs),
(1281,2945,o),
(1192,3035,o),
(1082,3035,cs),
(1018,3035,o),
(961,3004,o),
(924,2957,cs),
(685,2649,o),
(660,2145,o),
(688,1632,cs),
(713,1172,o),
(707,788,o),
(624,598,cs),
(544,412,o),
(444,290,o),
(337,220,cs),
(283,185,o),
(247,124,o),
(247,54,cs),
(247,-55,o),
(336,-144,o),
(446,-144,cs),
(487,-144,o),
(526,-131,o),
(558,-110,cs)
);
},
{
closed = 1;
nodes = (
(1392,2017,o),
(1212,1798,o),
(888,1798,cs),
(546,1798,o),
(401,1934,o),
(529,2318,cs),
(535,2337,o),
(539,2358,o),
(539,2380,cs),
(539,2490,o),
(450,2578,o),
(340,2578,cs),
(250,2578,o),
(174,2518,o),
(150,2436,cs),
(-40,1792,o),
(331,1398,o),
(888,1398,cs),
(1438,1398,o),
(1811,1877,o),
(1708,2411,cs),
(1690,2503,o),
(1610,2572,o),
(1513,2572,cs),
(1403,2572,o),
(1314,2483,o),
(1314,2373,cs),
(1314,2358,o),
(1316,2343,o),
(1320,2329,cs)
);
}
);
width = 1825;
}
);
unicode = 52;
},
{
glyphname = five;
lastChange = "2023-06-27 09:58:57 +0000";
layers = (
{
layerId = m01;
shapes = (
{
closed = 1;
nodes = (
(140,2747,ls),
(118,2747,o),
(100,2729,o),
(100,2707,cs),
(100,2685,o),
(118,2667,o),
(140,2667,cs),
(1744,2667,ls),
(1766,2667,o),
(1784,2685,o),
(1784,2707,cs),
(1784,2729,o),
(1766,2747,o),
(1744,2747,cs)
);
},
{
closed = 1;
nodes = (
(308,475,o),
(507,63,o),
(1049,63,cs),
(1598,63,o),
(1889,448,o),
(1889,1022,cs),
(1889,1595,o),
(1631,1953,o),
(1144,1953,cs),
(872,1953,o),
(698,2002,o),
(641,2120,cs),
(583,2241,o),
(620,2435,o),
(696,2659,cs),
(697,2663,o),
(698,2667,o),
(698,2672,cs),
(698,2694,o),
(680,2712,o),
(658,2712,cs),
(641,2712,o),
(626,2701,o),
(620,2685,cs),
(542,2453,o),
(498,2232,o),
(569,2086,cs),
(644,1930,o),
(858,1873,o),
(1144,1873,cs),
(1586,1873,o),
(1809,1563,o),
(1809,1022,cs),
(1809,481,o),
(1554,143,o),
(1049,143,cs),
(561,143,o),
(387,499,o),
(379,987,cs),
(379,1009,o),
(361,1027,o),
(339,1027,cs),
(317,1027,o),
(299,1009,o),
(299,987,cs)
);
}
);
width = 1989;
},
{
layerId = "C4A30611-87D3-4B41-A69F-FBC49DBA4127";
shapes = (
{
closed = 1;
nodes = (
(300,2907,ls),
(190,2907,o),
(100,2817,o),
(100,2707,cs),
(100,2597,o),
(190,2507,o),
(300,2507,cs),
(1786,2507,ls),
(1896,2507,o),
(1986,2597,o),
(1986,2707,cs),
(1986,2817,o),
(1896,2907,o),
(1786,2907,cs)
);
},
{
closed = 1;
nodes = (
(215,325,o),
(469,-97,o),
(1065,-97,cs),
(1716,-97,o),
(2065,373,o),
(2065,1022,cs),
(2065,1599,o),
(1750,2043,o),
(1160,2043,cs),
(910,2043,o),
(819,2104,o),
(793,2158,cs),
(765,2216,o),
(768,2342,o),
(840,2542,cs),
(846,2560,o),
(848,2578,o),
(848,2597,cs),
(848,2707,o),
(758,2797,o),
(648,2797,cs),
(556,2797,o),
(483,2733,o),
(456,2650,cs),
(363,2363,o),
(367,2100,o),
(441,1946,cs),
(539,1743,o),
(777,1643,o),
(1160,1643,cs),
(1520,1643,o),
(1665,1441,o),
(1665,1022,cs),
(1665,535,o),
(1490,303,o),
(1065,303,cs),
(717,303,o),
(587,494,o),
(560,859,cs),
(553,962,o),
(467,1043,o),
(362,1043,cs),
(243,1043,o),
(153,940,o),
(165,825,cs)
);
}
);
width = 2165;
}
);
unicode = 53;
},
{
glyphname = six;
lastChange = "2023-06-27 09:58:57 +0000";
layers = (
{
layerId = m01;
shapes = (
{
closed = 1;
nodes = (
(897,752,ls),
(501,752,o),
(180,845,o),
(180,1399,cs),
(180,1781,o),
(306,2021,o),
(860,2070,cs),
(1279,2108,o),
(1431,2211,o),
(1431,2432,cs),
(1431,2655,o),
(1284,2729,o),
(1008,2729,cs),
(353,2729,ls),
(331,2729,o),
(313,2711,o),
(313,2689,cs),
(313,2667,o),
(331,2649,o),
(353,2649,cs),
(1008,2649,ls),
(1258,2649,o),
(1351,2602,o),
(1351,2432,cs),
(1351,2259,o),
(1245,2185,o),
(852,2150,cs),
(251,2096,o),
(100,1806,o),
(100,1399,cs),
(100,783,o),
(485,672,o),
(897,672,cs),
(1384,672,ls),
(1406,672,o),
(1424,690,o),
(1424,712,cs),
(1424,734,o),
(1406,752,o),
(1384,752,cs)
);
},
{
closed = 1;
nodes = (
(1811,-15,o),
(1620,104,o),
(1535,270,cs),
(1444,445,o),
(1451,771,o),
(1451,1072,cs),
(1451,1396,o),
(1237,1600,o),
(943,1600,cs),
(728,1600,o),
(413,1580,o),
(151,1427,cs),
(140,1420,o),
(132,1408,o),
(132,1393,cs),
(132,1371,o),
(150,1353,o),
(172,1353,cs),
(179,1353,o),
(186,1355,o),
(192,1358,cs),
(436,1501,o),
(731,1520,o),
(943,1520,cs),
(1199,1520,o),
(1371,1356,o),
(1371,1072,cs),
(1371,771,o),
(1363,427,o),
(1463,234,cs),
(1561,45,o),
(1781,-92,o),
(2050,-116,cs),
(2073,-118,o),
(2094,-101,o),
(2094,-76,cs),
(2094,-56,o),
(2078,-38,o),
(2058,-37,cs)
);
}
);
width = 2194;
},
{
layerId = "C4A30611-87D3-4B41-A69F-FBC49DBA4127";
shapes = (
{
closed = 1;
nodes = (
(1057,982,ls),
(683,982,o),
(500,1035,o),
(500,1469,cs),
(500,1812,o),
(567,1939,o),
(1034,1981,cs),
(1577,2029,o),
(1751,2220,o),
(1751,2502,cs),
(1751,2788,o),
(1570,2959,o),
(1168,2959,cs),
(657,2959,ls),
(547,2959,o),
(457,2869,o),
(457,2759,cs),
(457,2649,o),
(547,2559,o),
(657,2559,cs),
(1168,2559,ls),
(1321,2559,o),
(1351,2539,o),
(1351,2487,cs),
(1351,2432,o),
(1338,2409,o),
(998,2379,cs),
(290,2316,o),
(100,1935,o),
(100,1469,cs),
(100,725,o),
(605,582,o),
(1057,582,cs),
(1400,582,ls),
(1510,582,o),
(1600,672,o),
(1600,782,cs),
(1600,892,o),
(1510,982,o),
(1400,982,cs)
);
},
{
closed = 1;
nodes = (
(1979,242,o),
(1889,312,o),
(1837,414,cs),
(1765,553,o),
(1771,839,o),
(1771,1082,cs),
(1771,1476,o),
(1483,1750,o),
(1103,1750,cs),
(916,1750,o),
(643,1736,o),
(385,1631,cs),
(312,1602,o),
(261,1530,o),
(261,1446,cs),
(261,1336,o),
(350,1247,o),
(460,1247,cs),
(487,1247,o),
(513,1252,o),
(537,1262,cs),
(723,1339,o),
(929,1350,o),
(1103,1350,cs),
(1295,1350,o),
(1371,1277,o),
(1371,1082,cs),
(1371,846,o),
(1360,466,o),
(1481,230,cs),
(1582,35,o),
(1780,-112,o),
(2024,-176,cs),
(2148,-208,o),
(2272,-114,o),
(2272,16,cs),
(2272,111,o),
(2207,189,o),
(2118,210,cs)
);
}
);
width = 2372;
}
);
unicode = 54;
},
{
glyphname = seven;
lastChange = "2023-06-27 09:58:57 +0000";
layers = (
{
layerId = m01;
shapes = (
{
closed = 1;
nodes = (
(140,2743,ls),
(118,2743,o),
(100,2725,o),
(100,2703,cs),
(100,2681,o),
(118,2663,o),
(140,2663,cs),
(1769,2663,ls),
(1791,2663,o),
(1809,2681,o),
(1809,2703,cs),
(1809,2725,o),
(1791,2743,o),
(1769,2743,cs)
);
},
{
closed = 1;
nodes = (
(269,135,ls),
(269,715,o),
(491,1074,o),
(1116,1595,cs),
(1550,1957,o),
(1578,2311,o),
(1501,2693,cs),
(1497,2712,o),
(1481,2726,o),
(1461,2726,cs),
(1436,2726,o),
(1417,2703,o),
(1422,2678,cs),
(1497,2310,o),
(1470,1995,o),
(1064,1657,cs),
(427,1126,o),
(189,740,o),
(189,135,cs),
(189,-102,ls),
(189,-124,o),
(207,-142,o),
(229,-142,cs),
(251,-142,o),
(269,-124,o),
(269,-102,cs)
);
},
{
closed = 1;
nodes = (
(906,674,o),
(1168,1071,o),
(1536,1231,cs),
(1550,1237,o),
(1560,1251,o),
(1560,1267,cs),
(1560,1289,o),
(1542,1307,o),
(1520,1307,cs),
(1514,1307,o),
(1509,1306,o),
(1504,1304,cs),
(1111,1133,o),
(829,705,o),
(779,242,cs),
(776,220,o),
(794,198,o),
(818,198,cs),
(839,198,o),
(856,213,o),
(858,234,cs)
);
}
);
width = 1909;
},
{
layerId = "C4A30611-87D3-4B41-A69F-FBC49DBA4127";
shapes = (
{
closed = 1;
nodes = (
(325,2903,ls),
(215,2903,o),
(125,2813,o),
(125,2703,cs),
(125,2593,o),
(215,2503,o),
(325,2503,cs),
(1996,2503,ls),
(2106,2503,o),
(2196,2593,o),
(2196,2703,cs),
(2196,2813,o),
(2106,2903,o),
(1996,2903,cs)
);
},
{
closed = 1;
nodes = (
(500,135,ls),
(500,669,o),
(684,968,o),
(1289,1472,cs),
(1719,1831,o),
(1797,2196,o),
(1753,2594,cs),
(1742,2695,o),
(1657,2773,o),
(1554,2773,cs),
(1432,2773,o),
(1342,2667,o),
(1357,2551,cs),
(1396,2240,o),
(1339,2035,o),
(1033,1780,cs),
(365,1223,o),
(100,795,o),
(100,135,cs),
(100,42,ls),
(100,-68,o),
(190,-158,o),
(300,-158,cs),
(410,-158,o),
(500,-68,o),
(500,42,cs)
);
},
{
closed = 1;
nodes = (
(1188,501,o),
(1352,750,o),
(1586,891,cs),
(1644,925,o),
(1683,989,o),
(1683,1061,cs),
(1683,1171,o),
(1594,1261,o),
(1484,1261,cs),
(1445,1261,o),
(1409,1250,o),
(1379,1231,cs),
(1055,1030,o),
(822,674,o),
(737,281,cs),
(709,158,o),
(805,40,o),
(932,40,cs),
(1028,40,o),
(1109,109,o),
(1127,200,cs)
);
}
);
width = 2296;
}
);
unicode = 55;
},
{
glyphname = eight;
lastChange = "2023-06-27 09:58:57 +0000";
layers = (
{
layerId = m01;
shapes = (
{
closed = 1;
nodes = (
(1385,1652,o),
(1644,1911,o),
(1644,2230,cs),
(1644,2549,o),
(1385,2808,o),
(1066,2808,cs),
(747,2808,o),
(488,2549,o),
(488,2230,cs),
(488,1911,o),
(747,1652,o),
(1066,1652,cs)
);
},
{
closed = 1;
nodes = (
(786,1732,o),
(568,1950,o),
(568,2230,cs),
(568,2510,o),
(786,2728,o),
(1066,2728,cs),
(1346,2728,o),
(1564,2510,o),
(1564,2230,cs),
(1564,1950,o),
(1346,1732,o),
(1066,1732,cs)
);
},
{
closed = 1;
nodes = (
(1722,14,o),
(2047,233,o),
(2047,733,cs),
(2047,1232,o),
(1722,1451,o),
(1329,1451,cs),
(819,1451,ls),
(425,1451,o),
(100,1232,o),
(100,733,cs),
(100,233,o),
(425,14,o),
(819,14,cs),
(1329,14,ls)
);
},
{
closed = 1;
nodes = (
(819,94,ls),
(456,94,o),
(180,279,o),
(180,733,cs),
(180,1186,o),
(456,1371,o),
(819,1371,cs),
(1329,1371,ls),
(1691,1371,o),
(1967,1186,o),
(1967,733,cs),
(1967,279,o),
(1691,94,o),
(1329,94,cs)
);
},
{
closed = 1;
nodes = (
(576,773,ls),
(554,773,o),
(536,755,o),
(536,733,cs),
(536,711,o),
(554,693,o),
(576,693,cs),
(1571,693,ls),
(1593,693,o),
(1611,711,o),
(1611,733,cs),
(1611,755,o),
(1593,773,o),
(1571,773,cs)
);
}
);
width = 2147;
},
{
layerId = "C4A30611-87D3-4B41-A69F-FBC49DBA4127";
shapes = (
{
closed = 1;
nodes = (
(1613,1552,o),
(1914,1853,o),
(1914,2240,cs),
(1914,2627,o),
(1613,2928,o),
(1226,2928,cs),
(839,2928,o),
(538,2627,o),
(538,2240,cs),
(538,1853,o),
(839,1552,o),
(1226,1552,cs)
);
},
{
closed = 1;
nodes = (
(1052,1952,o),
(938,2066,o),
(938,2240,cs),
(938,2414,o),
(1052,2528,o),
(1226,2528,cs),
(1400,2528,o),
(1514,2414,o),
(1514,2240,cs),
(1514,2066,o),
(1400,1952,o),
(1226,1952,cs)
);
},
{
closed = 1;
nodes = (
(1956,-106,o),
(2367,171,o),
(2367,683,cs),
(2367,1194,o),
(1956,1471,o),
(1589,1471,cs),
(879,1471,ls),
(511,1471,o),
(100,1194,o),
(100,683,cs),
(100,171,o),
(511,-106,o),
(879,-106,cs),
(1589,-106,ls)
);
},
{
closed = 1;
nodes = (
(879,294,ls),
(665,294,o),
(500,405,o),
(500,683,cs),
(500,960,o),
(665,1071,o),
(879,1071,cs),
(1589,1071,ls),
(1802,1071,o),
(1967,960,o),
(1967,683,cs),
(1967,405,o),
(1802,294,o),
(1589,294,cs)
);
},
{
closed = 1;
nodes = (
(928,849,ls),
(833,849,o),
(755,771,o),
(755,676,cs),
(755,581,o),
(833,503,o),
(928,503,cs),
(1539,503,ls),
(1634,503,o),
(1712,581,o),
(1712,676,cs),
(1712,771,o),
(1634,849,o),
(1539,849,cs)
);
}
);
width = 2467;
}
);
unicode = 56;
},
{
glyphname = nine;
lastChange = "2023-06-27 09:58:57 +0000";
layers = (
{
layerId = m01;
shapes = (
{
closed = 1;
nodes = (
(420,486,o),
(457,844,o),
(650,1196,cs),
(848,1556,o),
(1366,1881,o),
(1366,2252,cs),
(1366,2591,o),
(1132,2816,o),
(746,2816,cs),
(334,2816,o),
(100,2591,o),
(100,2244,cs),
(100,1882,o),
(333,1611,o),
(748,1611,cs),
(1653,1611,ls),
(1675,1611,o),
(1693,1629,o),
(1693,1651,cs),
(1693,1673,o),
(1675,1691,o),
(1653,1691,cs),
(748,1691,ls),
(374,1691,o),
(180,1918,o),
(180,2244,cs),
(180,2551,o),
(372,2736,o),
(746,2736,cs),
(1094,2736,o),
(1286,2551,o),
(1286,2252,cs),
(1286,1925,o),
(786,1609,o),
(580,1234,cs),
(379,868,o),
(340,492,o),
(338,-69,cs),
(338,-91,o),
(356,-109,o),
(378,-109,cs),
(400,-109,o),
(418,-91,o),
(418,-69,cs)
);
}
);
width = 1793;
},
{
layerId = "C4A30611-87D3-4B41-A69F-FBC49DBA4127";
shapes = (
{
closed = 1;
nodes = (
(747,534,o),
(789,825,o),
(950,1119,cs),
(1126,1439,o),
(1686,1793,o),
(1686,2242,cs),
(1686,2674,o),
(1385,2976,o),
(906,2976,cs),
(394,2976,o),
(100,2668,o),
(100,2234,cs),
(100,1795,o),
(403,1451,o),
(898,1451,cs),
(1789,1451,ls),
(1899,1451,o),
(1989,1541,o),
(1989,1651,cs),
(1989,1761,o),
(1899,1851,o),
(1789,1851,cs),
(898,1851,ls),
(658,1851,o),
(500,1997,o),
(500,2234,cs),
(500,2453,o),
(647,2576,o),
(896,2576,cs),
(1169,2576,o),
(1286,2453,o),
(1286,2242,cs),
(1286,1943,o),
(828,1728,o),
(600,1311,cs),
(400,947,o),
(348,577,o),
(339,78,cs),
(338,-30,o),
(424,-125,o),
(539,-125,cs),
(649,-125,o),
(738,-37,o),
(739,72,cs)
);
}
);
width = 2089;
}
);
unicode = 57;
},
{
export = 0;
glyphname = "bone-1";
lastChange = "2023-05-21 16:26:17 +0000";
layers = (
{
layerId = m01;
shapes = (
{
closed = 0;
nodes = (
(941,2730,l),
(748,2730,o),
(592,2652,o),
(592,2333,cs),
(592,1071,ls),
(592,515,o),
(367,177,o),
(0,65,cs)
);
}
);
width = 941;
},
{
layerId = "C4A30611-87D3-4B41-A69F-FBC49DBA4127";
width = 600;
}
);
},
{
export = 0;
glyphname = "bone-2";
lastChange = "2023-05-21 16:26:17 +0000";
layers = (
{
layerId = m01;
shapes = (
{
closed = 0;
nodes = (
(0,2086,l),
(559,2516,o),
(969,2683,o),
(1215,2683,cs),
(1411,2683,o),
(1512,2605,o),
(1512,2421,cs),
(1512,2167,o),
(1367,2072,o),
(930,1919,cs),
(414,1739,o),
(254,1589,o),
(254,1363,cs),
(254,1136,o),
(415,976,o),
(987,868,cs),
(1512,769,o),
(1705,552,o),
(1879,-48,c)
);
}
);
width = 1879;
},
{
layerId = "C4A30611-87D3-4B41-A69F-FBC49DBA4127";
width = 600;
}
);
},
{
export = 0;
glyphname = "bone-3";
lastChange = "2023-05-21 16:26:17 +0000";
layers = (
{
layerId = m01;
shapes = (
{
closed = 0;
nodes = (
(0,2626,l),
(914,2846,o),
(1447,2646,o),
(1447,2061,cs),
(1447,1453,o),
(914,1253,o),
(0,1473,cs)
);
},
{
closed = 0;
nodes = (
(0,2061,l),
(1445,2061,l)
);
},
{
closed = 0;
nodes = (
(1448,2061,l),
(1376,863,o),
(1487,210,o),
(1854,-47,cs)
);
}
);
width = 1854;
},
{
layerId = "C4A30611-87D3-4B41-A69F-FBC49DBA4127";
width = 600;
}
);
},
{
export = 0;
glyphname = "bone-4";
lastChange = "2023-06-24 08:31:02 +0000";
layers = (
{
layerId = m01;
shapes = (
{
closed = 0;
nodes = (
(927,2956,l),
(615,2752,o),
(569,2234,o),
(602,1643,cs),
(627,1176,o),
(620,745,o),
(522,519,cs),
(398,231,o),
(191,37,o),
(0,-24,c)
);
},
{
closed = 0;
nodes = (
(117,2547,l),
(-148,1938,o),
(123,1598,o),
(602,1598,cs),
(1081,1598,o),
(1378,2063,o),
(1173,2543,cs)
);
}
);
width = 1239;
},
{
layerId = "C4A30611-87D3-4B41-A69F-FBC49DBA4127";
width = 600;
}
);
},
{
export = 0;
glyphname = "bone-5";
lastChange = "2023-06-24 09:02:01 +0000";
layers = (
{
layerId = m01;
shapes = (
{
closed = 0;
nodes = (
(0,2707,l),
(1676,2707,l)
);
},
{
closed = 0;
nodes = (
(566,2706,l),
(481,2465,o),
(434,2242,o),
(501,2103,cs),
(566,1968,o),
(762,1913,o),
(1040,1913,cs),
(1502,1913,o),
(1745,1576,o),
(1745,1022,cs),
(1745,468,o),
(1470,103,o),
(945,103,cs),
(420,103,o),
(235,508,o),
(235,1023,c)
);
}
);
width = 1745;
},
{
layerId = "C4A30611-87D3-4B41-A69F-FBC49DBA4127";
width = 600;
}
);
},
{
export = 0;
glyphname = "bone-6";
lastChange = "2023-06-29 21:51:28 +0000";
layers = (
{
layerId = m01;
shapes = (
{
closed = 0;
nodes = (
(177,2689,l),
(868,2689,ls),
(1128,2689,o),
(1251,2626,o),
(1251,2432,cs),
(1251,2238,o),
(1119,2146,o),
(716,2110,cs),
(141,2059,o),
(0,1791,o),
(0,1399,cs),
(0,815,o),
(355,712,o),
(757,712,cs),
(1280,712,l)
);
},
{
closed = 0;
nodes = (
(1,1374,l),
(259,1539,o),
(581,1560,o),
(803,1560,cs),
(1075,1560,o),
(1271,1373,o),
(1271,1072,cs),
(1271,771,o),
(1264,436,o),
(1359,252,cs),
(1454,68,o),
(1677,-65,o),
(1950,-79,c)
);
}
);
width = 1950;
},
{
layerId = "C4A30611-87D3-4B41-A69F-FBC49DBA4127";
width = 600;
}
);
},
{
export = 0;
glyphname = "bone-7";
lastChange = "2023-06-29 21:51:28 +0000";
layers = (
{
layerId = m01;
shapes = (
{
closed = 0;
nodes = (
(0,2703,l),
(1701,2703,l)
);
},
{
closed = 0;
nodes = (
(1360,2701,l),
(1435,2334,o),
(1419,1987,o),
(986,1626,cs),
(356,1101,o),
(125,726,o),
(125,135,cs),
(125,-138,l)
);
},
{
closed = 0;
nodes = (
(1449,1281,l),
(1043,1123,o),
(750,679,o),
(711,202,cs)
);
}
);
width = 1701;
},
{
layerId = "C4A30611-87D3-4B41-A69F-FBC49DBA4127";
width = 600;
}
);
},
{
export = 0;
glyphname = "bone-8";
lastChange = "2023-06-24 09:49:24 +0000";
layers = (
{
layerId = m01;
shapes = (
{
closed = 1;
nodes = (
(1223,1692,o),
(1464,1933,o),
(1464,2230,cs),
(1464,2527,o),
(1223,2768,o),
(926,2768,cs),
(629,2768,o),
(388,2527,o),
(388,2230,cs),
(388,1933,o),
(629,1692,o),
(926,1692,cs)
);
},
{
closed = 1;
nodes = (
(1563,54,o),
(1867,258,o),
(1867,733,cs),
(1867,1207,o),
(1563,1411,o),
(1189,1411,cs),
(679,1411,ls),
(304,1411,o),
(0,1207,o),
(0,733,cs),
(0,258,o),
(304,54,o),
(679,54,cs),
(1189,54,ls)
);
},
{
closed = 0;
nodes = (
(400,733,l),
(1467,733,l)
);
}
);
width = 1867;
},
{
layerId = "C4A30611-87D3-4B41-A69F-FBC49DBA4127";
width = 600;
}
);
},
{
export = 0;
glyphname = "bone-9";
lastChange = "2023-06-24 09:11:30 +0000";
layers = (
{
layerId = m01;
shapes = (
{
closed = 0;
nodes = (
(1549,1651,l),
(608,1651,ls),
(216,1651,o),
(0,1903,o),
(0,2244,cs),
(0,2568,o),
(216,2776,o),
(606,2776,cs),
(970,2776,o),
(1186,2568,o),
(1186,2252,cs),
(1186,1903,o),
(676,1581,o),
(475,1215,cs),
(274,849,o),
(238,473,o),
(238,-105,c)
);
}
);
width = 1549;
},
{
layerId = "C4A30611-87D3-4B41-A69F-FBC49DBA4127";
width = 600;
}
);
},
{
export = 0;
glyphname = "bone-A";
lastChange = "2023-05-08 00:23:17 +0000";
layers = (
{
backgroundImage = {
imagePath = "//A.png";
pos = (-96,-88);
scale = (35.896,35.896);
};
layerId = m01;
shapes = (
{
closed = 0;
nodes = (
(0,2352,l),
(160,2468,o),
(260,2608,o),
(328,2608,cs),
(396,2608,o),
(536,2412,o),
(536,2280,cs),
(536,1536,o),
(824,788,o),
(1328,308,cs),
(1432,212,o),
(1476,108,o),
(1476,-32,c)
);
},
{
closed = 0;
nodes = (
(1300,2176,l),
(1264,1752,o),
(1120,1404,o),
(804,1116,cs),
(424,768,o),
(208,364,o),
(208,0,cs)
);
},
{
closed = 0;
nodes = (
(1484,2508,l),
(1408,2576,o),
(1344,2680,o),
(1264,2680,cs),
(1184,2680,o),
(1116,2620,o),
(1096,2504,cs),
(1048,2244,o),
(924,1796,o),
(628,1548,c)
);
}
);
width = 1484;
},
{
layerId = "C4A30611-87D3-4B41-A69F-FBC49DBA4127";
width = 2400;
}
);
},
{
export = 0;
glyphname = "bone-B";
lastChange = "2023-05-08 00:23:17 +0000";
layers = (
{
backgroundImage = {
imagePath = "/B.jpg";
pos = (-104,-96);
scale = (126.7752,126.7752);
};
layerId = m01;
shapes = (
{
attr = {
lineCapEnd = 2;
lineCapStart = 2;
};
closed = 0;
nodes = (
(8,2560,l),
(248,2260,o),
(248,1848,o),
(0,1544,cs)
);
},
{
attr = {
lineCapEnd = 2;
lineCapStart = 2;
};
closed = 0;
nodes = (
(272,2764,l),
(584,2352,o),
(584,1844,o),
(348,1452,cs),
(60,976,o),
(0,300,o),
(360,8,cs)
);
},
{
closed = 0;
nodes = (
(736,2380,l),
(872,2552,o),
(1012,2664,o),
(1224,2664,cs),
(1420,2664,o),
(1512,2584,o),
(1512,2400,cs),
(1512,2148,o),
(1264,2136,o),
(1120,2036,cs),
(980,1936,o),
(876,1788,o),
(812,1528,c)
);
},
{
closed = 0;
nodes = (
(1324,2136,l),
(1464,2060,o),
(1508,2000,o),
(1508,1848,cs),
(1508,1676,o),
(1376,1688,o),
(1248,1560,cs),
(1108,1428,o),
(1068,1376,o),
(1068,916,cs),
(1068,356,o),
(992,280,o),
(648,-20,c)
);
},
{
closed = 0;
nodes = (
(1452,1692,l),
(1620,1596,o),
(1712,1480,o),
(1712,1028,cs),
(1712,576,o),
(1540,288,o),
(1340,16,c)
);
}
);
width = 1712;
},
{
layerId = "C4A30611-87D3-4B41-A69F-FBC49DBA4127";
width = 2400;
}
);
},
{
export = 0;
glyphname = "bone-C";
lastChange = "2023-05-08 00:23:17 +0000";
layers = (
{
backgroundImage = {
imagePath = "/C.jpg";
pos = (-164,-176);
scale = (107.648,107.648);
};
layerId = m01;
shapes = (
{
closed = 0;
nodes = (
(4,2796,l),
(380,2332,o),
(788,2332,o),
(1160,1928,cs),
(1452,1608,o),
(1104,996,o),
(1604,488,cs)
);
},
{
closed = 0;
nodes = (
(304,2512,l),
(304,876,ls),
(304,496,o),
(216,256,o),
(0,0,cs)
);
},
{
closed = 0;
nodes = (
(904,2152,l),
(904,1244,ls),
(904,904,o),
(940,696,o),
(1104,512,cs)
);
},
{
closed = 0;
nodes = (
(1212,396,l),
(1352,244,o),
(1504,112,o),
(1672,0,cs)
);
}
);
width = 1672;
},
{
layerId = "C4A30611-87D3-4B41-A69F-FBC49DBA4127";
width = 2400;
}
);
},
{
export = 0;
glyphname = "bone-D";
lastChange = "2023-05-11 13:25:26 +0000";
layers = (
{
layerId = m01;
shapes = (
{
closed = 0;
nodes = (
(0,2796,l),
(108,2648,o),
(196,2532,o),
(196,2256,cs),
(196,1980,o),
(108,1748,o),
(184,1676,cs),
(260,1604,o),
(388,1620,o),
(608,1620,cs),
(984,1620,o),
(1116,1536,o),
(1276,1272,cs),
(1432,1012,o),
(1512,728,o),
(1512,-32,c)
);
},
{
closed = 0;
nodes = (
(1124,1876,l),
(292,968,o),
(192,448,o),
(192,-32,cs)
);
},
{
closed = 0;
nodes = (
(160,2536,l),
(976,2724,o),
(1204,2600,o),
(1204,2344,cs),
(1204,2088,o),
(892,2000,o),
(192,2052,c)
);
},
{
closed = 0;
nodes = (
(1176,1396,l),
(840,948,o),
(712,756,o),
(712,328,cs)
);
}
);
width = 1512;
},
{
layerId = "C4A30611-87D3-4B41-A69F-FBC49DBA4127";
width = 2400;
}
);
},
{
export = 0;
glyphname = "bone-E";
lastChange = "2023-05-08 00:23:17 +0000";
layers = (
{
backgroundImage = {
angle = 20;
imagePath = "//E.jpg";
pos = (220,-592);
scale = (19.7204,19.7204);
};
layerId = m01;
shapes = (
{
closed = 0;
nodes = (
(0,2752,l),
(264,2580,o),
(332,2468,o),
(332,2080,cs),
(332,824,ls),
(332,308,o),
(272,212,o),
(88,16,cs)
);
},
{
closed = 0;
nodes = (
(300,2400,l),
(768,2356,o),
(928,2172,o),
(928,1496,cs),
(928,1064,o),
(928,840,o),
(1212,516,cs)
);
},
{
closed = 0;
nodes = (
(1324,396,l),
(1464,244,o),
(1616,112,o),
(1784,0,cs)
);
},
{
closed = 0;
nodes = (
(1264,2768,l),
(1200,1264,o),
(1236,1032,o),
(1652,704,cs)
);
}
);
width = 1784;
},
{
layerId = "C4A30611-87D3-4B41-A69F-FBC49DBA4127";
width = 2400;
}
);
},
{
export = 0;
glyphname = "bone-F";
lastChange = "2023-05-08 00:23:17 +0000";
layers = (
{
backgroundImage = {
imagePath = "/F.png";
pos = (-72,-64);
scale = (48.2776,48.2776);
};
layerId = m01;
shapes = (
{
closed = 0;
nodes = (
(0,2404,l),
(536,2748,o),
(1600,2748,o),
(2192,2404,cs)
);
},
{
closed = 0;
nodes = (
(1100,1584,l),
(1100,620,l)
);
},
{
closed = 0;
nodes = (
(784,2492,l),
(724,2008,o),
(836,1820,o),
(1296,1820,cs),
(1684,1820,o),
(1860,1652,o),
(1860,1012,cs),
(1860,328,o),
(1516,92,o),
(1188,92,cs),
(784,92,o),
(556,216,o),
(556,976,c)
);
},
{
closed = 0;
nodes = (
(1472,2620,l),
(1472,1804,l)
);
}
);
width = 2192;
},
{
layerId = "C4A30611-87D3-4B41-A69F-FBC49DBA4127";
width = 2400;
}
);
},
{
export = 0;
glyphname = "bone-G";
lastChange = "2023-05-08 00:23:17 +0000";
layers = (
{
layerId = m01;
shapes = (
{
closed = 0;
nodes = (
(144,2860,l),
(60,2556,o),
(140,2456,o),
(420,2456,cs),
(700,2456,o),
(824,2500,o),
(1104,2500,cs),
(1408,2500,o),
(1592,2296,o),
(1592,2076,cs),
(1592,1896,o),
(1500,1748,o),
(1220,1748,cs),
(964,1748,o),
(908,1696,o),
(908,1452,cs),
(908,684,o),
(1096,232,o),
(1456,112,cs),
(1604,64,o),
(1696,96,o),
(1696,1168,c)
);
},
{
closed = 0;
nodes = (
(428,2444,l),
(428,1636,ls),
(428,1152,o),
(368,928,o),
(188,712,cs),
(8,496,o),
(0,444,o),
(0,320,cs),
(0,172,o),
(60,96,o),
(352,96,cs),
(968,96,l)
);
}
);
width = 1696;
},
{
layerId = "C4A30611-87D3-4B41-A69F-FBC49DBA4127";
width = 2400;
}
);
},
{
export = 0;
glyphname = "bone-H";
lastChange = "2023-05-08 00:23:17 +0000";
layers = (
{
backgroundImage = {
imagePath = "/H.png";
pos = (-112,-92);
scale = (74.398,74.398);
};
layerId = m01;
shapes = (
{
closed = 0;
nodes = (
(180,2860,l),
(96,2556,o),
(176,2456,o),
(456,2456,cs),
(736,2456,o),
(860,2500,o),
(1140,2500,cs),
(1444,2500,o),
(1628,2296,o),
(1628,2076,cs),
(1628,1896,o),
(1536,1748,o),
(1256,1748,cs),
(1000,1748,o),
(944,1696,o),
(944,1452,cs),
(944,684,o),
(1072,196,o),
(1840,4,cs)
);
},
{
closed = 0;
nodes = (
(0,1404,l),
(940,1404,l)
);
},
{
closed = 0;
nodes = (
(464,2444,l),
(464,1636,ls),
(464,1152,o),
(404,928,o),
(224,712,cs),
(44,496,o),
(36,444,o),
(36,320,cs),
(36,172,o),
(96,96,o),
(388,96,cs),
(1004,96,l)
);
}
);
width = 1840;
},
{
layerId = "C4A30611-87D3-4B41-A69F-FBC49DBA4127";
width = 2400;
}
);
},
{
export = 0;
glyphname = "bone-I";
lastChange = "2023-05-16 21:51:58 +0000";
layers = (
{
layerId = m01;
shapes = (
{
closed = 0;
nodes = (
(562,2828,l),
(775,2702,o),
(997,2524,o),
(997,2342,cs),
(997,2181,o),
(821,2101,o),
(642,2012,cs),
(360,1872,o),
(228,1766,o),
(228,1567,cs),
(228,1419,o),
(315,1342,o),
(431,1342,cs),
(552,1342,o),
(666,1424,o),
(767,1505,cs),
(898,1611,o),
(1030,1691,o),
(1080,1636,cs),
(1159,1550,o),
(1169,1459,o),
(1169,1353,cs),
(1169,784,ls),
(1169,347,o),
(1068,72,o),
(642,72,cs),
(287,72,o),
(94,272,o),
(94,835,cs)
);
},
{
closed = 0;
nodes = (
(862,2602,l),
(278,2407,o),
(2,2183,o),
(0,1872,cs)
);
}
);
width = 1169;
},
{
layerId = "C4A30611-87D3-4B41-A69F-FBC49DBA4127";
width = 600;
}
);
},
{
export = 0;
glyphname = "bone-J";
lastChange = "2023-05-08 00:23:17 +0000";
layers = (
{
backgroundImage = {
imagePath = "/J.png";
pos = (-80,-112);
scale = (73.7264,73.7264);
};
layerId = m01;
shapes = (
{
closed = 0;
nodes = (
(360,2860,l),
(396,2100,o),
(360,1196,o),
(316,884,cs),
(276,592,o),
(156,272,o),
(0,52,c)
);
},
{
closed = 0;
nodes = (
(384,2572,l),
(1280,2572,ls),
(1504,2572,o),
(1604,2476,o),
(1604,2296,cs),
(1604,2116,o),
(1504,1996,o),
(1280,1996,cs),
(1008,1996,ls),
(820,1996,o),
(696,1892,o),
(696,1648,cs)
);
},
{
closed = 0;
nodes = (
(1524,1516,l),
(940,1552,o),
(760,1552,o),
(760,1228,cs),
(760,1000,o),
(892,928,o),
(1136,928,cs),
(1692,928,o),
(1784,840,o),
(1784,-60,c)
);
}
);
width = 1784;
},
{
layerId = "C4A30611-87D3-4B41-A69F-FBC49DBA4127";
width = 2400;
}
);
},
{
export = 0;
glyphname = "bone-K";
lastChange = "2023-05-11 12:55:36 +0000";
layers = (
{
layerId = "C4A30611-87D3-4B41-A69F-FBC49DBA4127";
width = 2400;
},
{
backgroundImage = {
imagePath = "/F.png";
pos = (-76,-40);
scale = (46.9436,46.9436);
};
layerId = m01;
shapes = (
{
closed = 0;
nodes = (
(796,2860,l),
(748,2360,o),
(520,2084,o),
(0,1784,cs)
);
},
{
closed = 0;
nodes = (
(712,2500,l),
(1120,2500,o),
(1284,2432,o),
(1284,2276,cs),
(1284,2120,o),
(1156,1940,o),
(896,1728,cs),
(476,1384,o),
(376,1080,o),
(448,0,cs)
);
},
{
closed = 0;
nodes = (
(392,2044,l),
(828,1672,o),
(1244,1608,o),
(2000,1608,cs)
);
},
{
closed = 0;
nodes = (
(548,1280,l),
(994,1047,o),
(1248,1028,o),
(1968,1028,cs)
);
},
{
closed = 0;
nodes = (
(640,664,l),
(1084,468,o),
(1248,468,o),
(1964,468,cs)
);
},
{
closed = 0;
nodes = (
(1276,1640,l),
(1276,492,l)
);
}
);
width = 2000;
}
);
},
{
export = 0;
glyphname = "bone-L";
lastChange = "2023-05-08 00:23:17 +0000";
layers = (
{
backgroundImage = {
imagePath = "/L.png";
pos = (-100,0);
scale = (23.8564,23.8564);
};
layerId = m01;
shapes = (
{
closed = 0;
nodes = (
(360,2860,l),
(416,2100,o),
(432,1196,o),
(356,884,cs),
(288,592,o),
(156,272,o),
(0,52,c)
);
},
{
closed = 0;
nodes = (
(396,2528,l),
(1460,2528,ls),
(1688,2528,o),
(1780,2432,o),
(1780,2252,cs),
(1780,2072,o),
(1616,1976,o),
(1372,1976,cs),
(1020,1976,ls),
(832,1976,o),
(684,1880,o),
(684,1572,cs)
);
},
{
closed = 0;
nodes = (
(580,1240,l),
(2080,1240,l)
);
},
{
closed = 0;
nodes = (
(1328,1832,l),
(1348,1116,o),
(1516,544,o),
(2040,52,cs)
);
}
);
width = 2080;
},
{
layerId = "C4A30611-87D3-4B41-A69F-FBC49DBA4127";
width = 2400;
}
);
},
{
export = 0;
glyphname = "bone-M";
lastChange = "2023-05-08 00:23:17 +0000";
layers = (
{
layerId = m01;
shapes = (
{
closed = 0;
nodes = (
(656,2672,l),
(1880,2672,l)
);
},
{
closed = 0;
nodes = (
(836,2508,l),
(896,2172,o),
(1072,1980,o),
(1280,1980,cs),
(1484,1980,o),
(1652,2172,o),
(1696,2508,cs)
);
},
{
closed = 0;
nodes = (
(1280,-60,l),
(1280,1984,l)
);
},
{
closed = 0;
nodes = (
(584,164,l),
(784,404,o),
(820,696,o),
(852,952,cs),
(892,1268,o),
(932,1524,o),
(1280,1524,cs),
(1548,1524,o),
(1664,1316,o),
(1720,1028,cs),
(1776,736,o),
(1772,364,o),
(1792,40,cs)
);
},
{
closed = 0;
nodes = (
(368,2800,l),
(368,832,ls),
(368,444,o),
(260,272,o),
(0,48,cs)
);
}
);
width = 1880;
},
{
layerId = "C4A30611-87D3-4B41-A69F-FBC49DBA4127";
width = 2400;
}
);
},
{
export = 0;
glyphname = "bone-N";
lastChange = "2023-05-08 00:23:17 +0000";
layers = (
{
backgroundImage = {
angle = 17;
imagePath = "/N.png";
pos = (88,-492);
scale = (55.9316,55.9316);
};
layerId = m01;
shapes = (
{
closed = 0;
nodes = (
(92,2672,l),
(1620,2672,l)
);
},
{
closed = 0;
nodes = (
(316,2508,l),
(392,2172,o),
(608,1980,o),
(872,1980,cs),
(1124,1980,o),
(1336,2172,o),
(1392,2508,cs)
);
},
{
closed = 0;
nodes = (
(872,-60,l),
(872,1984,l)
);
},
{
closed = 0;
nodes = (
(0,164,l),
(248,404,o),
(292,696,o),
(336,952,cs),
(388,1268,o),
(432,1524,o),
(872,1524,cs),
(1204,1524,o),
(1352,1316,o),
(1420,1028,cs),
(1492,736,o),
(1484,364,o),
(1508,40,cs)
);
}
);
width = 1620;
},
{
layerId = "C4A30611-87D3-4B41-A69F-FBC49DBA4127";
width = 2400;
}
);
},
{
export = 0;
glyphname = "bone-O";
lastChange = "2023-05-11 13:00:46 +0000";
layers = (
{
layerId = m01;
shapes = (
{
closed = 0;
nodes = (
(180,2864,l),
(-12,2404,o),
(108,2216,o),
(532,2216,cs),
(1164,2216,o),
(1388,2088,o),
(1720,1588,c)
);
},
{
closed = 0;
nodes = (
(840,2808,l),
(320,2072,o),
(256,1816,o),
(972,1416,cs),
(1504,1120,o),
(1592,864,o),
(1536,-156,c)
);
},
{
closed = 0;
nodes = (
(864,1460,l),
(688,516,o),
(484,144,o),
(204,144,cs),
(-12,144,o),
(-20,276,o),
(16,360,cs)
);
},
{
closed = 0;
nodes = (
(1164,856,l),
(1164,568,o),
(1148,248,o),
(1104,-28,cs)
);
}
);
width = 1720;
},
{
layerId = "C4A30611-87D3-4B41-A69F-FBC49DBA4127";
width = 2400;
}
);
},
{
export = 0;
glyphname = "bone-P";
lastChange = "2023-05-08 00:23:17 +0000";
layers = (
{
backgroundImage = {
imagePath = "/P.png";
pos = (-144,-44);
scale = (72.7544,72.7544);
};
layerId = m01;
shapes = (
{
closed = 0;
nodes = (
(76,2836,l),
(-68,2484,o),
(-24,2356,o),
(320,2356,cs),
(888,2356,ls),
(1136,2356,o),
(1256,2220,o),
(1256,2016,cs),
(1256,1812,o),
(1136,1756,o),
(888,1756,cs),
(472,1756,ls),
(176,1756,o),
(24,1628,o),
(24,1264,cs),
(24,704,ls),
(24,308,o),
(176,116,o),
(536,116,cs),
(972,116,ls),
(1292,116,o),
(1440,224,o),
(1440,548,cs),
(1440,844,o),
(1304,996,o),
(1040,996,cs),
(804,996,o),
(640,1132,o),
(640,1428,c)
);
}
);
width = 1440;
},
{
layerId = "C4A30611-87D3-4B41-A69F-FBC49DBA4127";
width = 2400;
}
);
},
{
color = 1;
export = 0;
glyphname = "bone-Q";
lastChange = "2023-05-08 00:23:17 +0000";
layers = (
{
backgroundImage = {
imagePath = "/Q.png";
pos = (-136,-100);
scale = (67.9776,67.9776);
};
layerId = m01;
shapes = (
{
closed = 0;
nodes = (
(812,2788,l),
(468,2444,o),
(400,2192,o),
(400,1784,cs),
(400,1436,o),
(672,1328,o),
(984,1260,cs),
(1360,1176,o),
(1528,960,o),
(1528,652,cs),
(1528,272,o),
(1144,56,o),
(500,56,c)
);
},
{
closed = 0;
nodes = (
(36,2568,l),
(36,1968,o),
(180,1888,o),
(632,1888,cs),
(1100,1888,o),
(1372,1712,o),
(1552,1288,c)
);
},
{
closed = 0;
nodes = (
(464,2268,l),
(888,2320,o),
(1416,2164,o),
(1588,1852,cs)
);
},
{
closed = 0;
nodes = (
(792,1312,l),
(792,756,o),
(644,548,o),
(0,32,cs)
);
}
);
width = 1588;
},
{
layerId = "C4A30611-87D3-4B41-A69F-FBC49DBA4127";
width = 2400;
}
);
},
{
export = 0;
glyphname = "bone-R";
lastChange = "2023-05-08 00:23:17 +0000";
layers = (
{
backgroundImage = {
imagePath = "/R.png";
pos = (-104,-88);
scale = (49.3676,49.3676);
};
layerId = m01;
shapes = (
{
closed = 0;
nodes = (
(160,2792,l),
(160,2428,o),
(268,2232,o),
(684,2232,cs),
(1168,2232,ls),
(1600,2232,o),
(1808,2064,o),
(1808,1532,cs),
(1808,824,ls),
(1808,492,o),
(1832,340,o),
(2128,60,cs)
);
},
{
closed = 0;
nodes = (
(540,2600,l),
(1168,2600,ls),
(1564,2600,o),
(1676,2492,o),
(1676,2244,cs),
(1676,1996,o),
(1476,1912,o),
(1168,1912,cs),
(236,1912,l)
);
},
{
closed = 0;
nodes = (
(0,804,l),
(460,1388,o),
(660,1592,o),
(1016,1592,cs),
(1292,1592,o),
(1400,1492,o),
(1400,1328,cs),
(1400,1164,o),
(1148,1060,o),
(1052,968,cs),
(956,876,o),
(740,744,o),
(740,500,cs),
(740,300,o),
(788,168,o),
(1012,-24,cs)
);
}
);
width = 2128;
},
{
layerId = "C4A30611-87D3-4B41-A69F-FBC49DBA4127";
width = 2400;
}
);
},
{
export = 0;
glyphname = "bone-S";
lastChange = "2023-05-08 00:23:17 +0000";
layers = (
{
backgroundImage = {
angle = 5;
imagePath = "/S.jpg";
pos = (68,-176);
scale = (116.7528,116.7528);
};
layerId = m01;
shapes = (
{
closed = 0;
nodes = (
(0,2428,l),
(204,2584,o),
(488,2684,o),
(912,2684,cs),
(1320,2684,o),
(1624,2584,o),
(1816,2428,cs)
);
},
{
closed = 0;
nodes = (
(784,2680,l),
(916,2264,o),
(816,2128,o),
(512,1840,cs),
(228,1568,o),
(116,1380,o),
(216,40,c)
);
},
{
closed = 0;
nodes = (
(1280,2652,l),
(1412,2224,o),
(1312,2088,o),
(1008,1800,cs),
(724,1528,o),
(612,1340,o),
(712,0,c)
);
},
{
closed = 0;
nodes = (
(1136,1928,l),
(1624,1628,o),
(1712,1444,o),
(1688,52,cs)
);
}
);
width = 1816;
},
{
layerId = "C4A30611-87D3-4B41-A69F-FBC49DBA4127";
width = 2400;
}
);
},
{
export = 0;
glyphname = "bone-T";
lastChange = "2023-05-08 00:23:17 +0000";
layers = (
{
backgroundImage = {
imagePath = "/T.png";
pos = (-72,0);
scale = (24.1268,24.1268);
};
layerId = m01;
shapes = (
{
closed = 0;
nodes = (
(220,2456,l),
(688,2680,o),
(1012,2732,o),
(1296,2732,cs),
(1564,2732,o),
(1812,2496,o),
(1812,2300,cs),
(1812,2104,o),
(1624,2040,o),
(1288,2040,cs),
(656,2040,o),
(340,1912,o),
(0,1612,c)
);
},
{
closed = 0;
nodes = (
(840,2680,l),
(992,2500,o),
(1092,2280,o),
(1064,2072,cs),
(1016,1728,o),
(652,1352,o),
(444,828,cs),
(348,592,o),
(340,380,o),
(340,0,c)
);
},
{
closed = 0;
nodes = (
(1176,1776,l),
(1760,1404,o),
(1812,976,o),
(1812,0,cs)
);
}
);
width = 1812;
},
{
layerId = "C4A30611-87D3-4B41-A69F-FBC49DBA4127";
width = 2400;
}
);
},
{
export = 0;
glyphname = "bone-U";
lastChange = "2023-05-18 20:02:00 +0000";
layers = (
{
layerId = m01;
shapes = (
{
closed = 0;
nodes = (
(0,2722,l),
(1763,2722,l)
);
},
{
closed = 0;
nodes = (
(1303,2722,l),
(1428,2391,o),
(1393,2084,o),
(983,2084,cs),
(763,2084,o),
(587,2111,o),
(453,2111,cs),
(319,2111,o),
(211,2016,o),
(211,1868,cs),
(211,1720,o),
(327,1628,o),
(828,1628,cs),
(1370,1629,o),
(1577,1486,o),
(1577,954,cs),
(1577,422,o),
(1192,103,o),
(800,103,cs),
(368,103,o),
(40,368,o),
(40,1140,c)
);
},
{
closed = 0;
nodes = (
(799,1294,l),
(799,602,l)
);
}
);
width = 1763;
},
{
layerId = "C4A30611-87D3-4B41-A69F-FBC49DBA4127";
width = 600;
}
);
},
{
export = 0;
glyphname = "bone-V";
lastChange = "2023-05-18 20:02:00 +0000";
layers = (
{
layerId = m01;
shapes = (
{
closed = 0;
nodes = (
(297,1140,l),
(297,368,o),
(625,103,o),
(1057,103,cs),
(1449,103,o),
(1834,422,o),
(1834,954,cs),
(1834,1486,o),
(1548,1616,o),
(1180,1655,cs),
(896,1685,o),
(819,1747,o),
(819,1895,cs),
(819,2026,o),
(890,2109,o),
(1240,2084,cs),
(1517,2064,o),
(1639,2214,o),
(1639,2414,cs),
(1639,2614,o),
(1515,2727,o),
(1173,2727,cs),
(0,2727,l)
);
},
{
closed = 0;
nodes = (
(34,1406,l),
(243,1482,o),
(424,1550,o),
(424,1968,cs),
(424,2526,l)
);
}
);
width = 1834;
},
{
layerId = "C4A30611-87D3-4B41-A69F-FBC49DBA4127";
width = 600;
}
);
},
{
export = 0;
glyphname = "bone-W";
lastChange = "2023-05-08 00:23:17 +0000";
layers = (
{
backgroundImage = {
angle = -33;
imagePath = "/W.png";
pos = (-1172,1048);
scale = (63.9984,63.9984);
};
layerId = m01;
shapes = (
{
closed = 0;
nodes = (
(16,2688,l),
(1184,2688,ls),
(1660,2688,o),
(1800,2572,o),
(1800,2200,cs),
(1800,1660,l)
);
},
{
closed = 0;
nodes = (
(1388,2676,l),
(1388,1092,ls),
(1388,340,o),
(1112,84,o),
(808,84,cs),
(488,84,o),
(236,340,o),
(236,1092,c)
);
},
{
closed = 0;
nodes = (
(420,2476,l),
(476,1588,o),
(288,1380,o),
(0,1380,cs)
);
}
);
width = 1800;
},
{
layerId = "C4A30611-87D3-4B41-A69F-FBC49DBA4127";
width = 2400;
}
);
},
{
export = 0;
glyphname = "bone-X";
lastChange = "2023-05-08 00:23:17 +0000";
layers = (
{
backgroundImage = {
imagePath = "/X.jpg";
pos = (-96,-48);
scale = (108.5212,108.5212);
};
layerId = m01;
shapes = (
{
closed = 0;
nodes = (
(0,2780,l),
(268,2528,o),
(408,2364,o),
(408,2116,cs),
(408,1764,o),
(60,1636,o),
(60,1052,cs),
(60,-4,l)
);
},
{
closed = 0;
nodes = (
(224,2552,l),
(368,2644,o),
(448,2648,o),
(1288,2648,cs)
);
},
{
closed = 0;
nodes = (
(384,2276,l),
(988,2276,ls),
(1244,2276,o),
(1392,2180,o),
(1392,1976,cs),
(1392,1772,o),
(1244,1684,o),
(988,1684,cs),
(660,1684,o),
(640,1660,o),
(640,1492,cs),
(640,1096,o),
(836,696,o),
(1808,0,c)
);
}
);
width = 1808;
},
{
layerId = "C4A30611-87D3-4B41-A69F-FBC49DBA4127";
width = 2400;
}
);
},
{
export = 0;
glyphname = "bone-Y";
lastChange = "2023-05-08 00:23:17 +0000";
layers = (
{
backgroundImage = {
imagePath = "/Y.png";
pos = (-56,-160);
scale = (76.0264,76.0264);
};
layerId = m01;
shapes = (
{
closed = 0;
nodes = (
(1540,2668,l),
(640,2668,ls),
(500,2668,o),
(472,2640,o),
(492,2516,cs),
(644,1688,o),
(968,860,o),
(2036,12,c)
);
},
{
closed = 0;
nodes = (
(0,2252,l),
(1656,2252,l)
);
},
{
closed = 0;
nodes = (
(1612,2124,l),
(1564,1524,o),
(1136,1536,o),
(816,1312,cs),
(424,1036,o),
(344,764,o),
(344,4,cs)
);
}
);
width = 2036;
},
{
layerId = "C4A30611-87D3-4B41-A69F-FBC49DBA4127";
width = 2400;
}
);
},
{
export = 0;
glyphname = "bone-Z";
lastChange = "2023-05-08 00:23:17 +0000";
layers = (
{
layerId = m01;
shapes = (
{
closed = 0;
nodes = (
(368,2788,l),
(588,2532,o),
(752,2332,o),
(752,2020,cs),
(752,1600,o),
(400,1192,o),
(400,664,cs),
(400,420,o),
(420,320,o),
(480,140,c)
);
},
{
closed = 0;
nodes = (
(0,128,l),
(1680,128,l)
);
},
{
closed = 0;
nodes = (
(1556,1496,l),
(420,844,l)
);
}
);
width = 1680;
},
{
layerId = "C4A30611-87D3-4B41-A69F-FBC49DBA4127";
width = 2400;
}
);
},
{
export = 0;
glyphname = "bone-a";
lastChange = "2023-05-18 20:31:56 +0000";
layers = (
{
layerId = m01;
shapes = (
{
closed = 0;
nodes = (
(0,2303,l),
(117,2431,o),
(207,2531,o),
(279,2531,cs),
(452,2531,o),
(513,2024,o),
(763,1511,cs),
(1013,998,o),
(1420,477,o),
(1821,154,c)
);
},
{
closed = 0;
nodes = (
(1022,2760,l),
(1022,2221,o),
(785,1992,o),
(632,1819,cs)
);
},
{
closed = 0;
nodes = (
(1272,2224,l),
(1272,1483,o),
(23,1102,o),
(437,124,cs)
);
}
);
width = 1821;
},
{
layerId = "C4A30611-87D3-4B41-A69F-FBC49DBA4127";
width = 600;
}
);
},
{
export = 0;
glyphname = "bone-b";
lastChange = "2023-05-19 19:52:25 +0000";
layers = (
{
layerId = m01;
shapes = (
{
closed = 0;
nodes = (
(65,2630,l),
(1045,2630,ls),
(1280,2630,o),
(1380,2529,o),
(1380,2331,cs),
(1380,2133,o),
(1280,2045,o),
(1045,2045,cs),
(233,2045,l)
);
},
{
closed = 0;
nodes = (
(534,2629,l),
(577,1888,o),
(654,984,o),
(0,80,cs)
);
},
{
closed = 0;
nodes = (
(722,1565,l),
(965,1565,o),
(1169,1420,o),
(1213,1252,cs),
(1257,1084,o),
(1441,255,o),
(1795,94,cs)
);
}
);
width = 1795;
},
{
layerId = "C4A30611-87D3-4B41-A69F-FBC49DBA4127";
width = 600;
}
);
},
{
export = 0;
glyphname = "bone-c";
lastChange = "2023-05-08 00:23:17 +0000";
layers = (
{
layerId = m01;
shapes = (
{
closed = 0;
nodes = (
(0,2752,l),
(264,2580,o),
(332,2468,o),
(332,2080,cs),
(332,824,ls),
(332,308,o),
(272,212,o),
(88,16,cs)
);
},
{
closed = 0;
nodes = (
(300,2400,l),
(768,2356,o),
(928,2172,o),
(928,1496,cs),
(928,1064,o),
(928,840,o),
(1212,516,cs)
);
},
{
closed = 0;
nodes = (
(1324,396,l),
(1464,244,o),
(1616,112,o),
(1784,0,cs)
);
}
);
width = 1784;
},
{
layerId = "C4A30611-87D3-4B41-A69F-FBC49DBA4127";
width = 2400;
}
);
},
{
export = 0;
glyphname = "bone-d";
lastChange = "2023-05-08 00:23:17 +0000";
layers = (
{
backgroundImage = {
imagePath = "//D.jpg";
pos = (-116,0);
scale = (193.7232,193.7232);
};
layerId = m01;
shapes = (
{
closed = 0;
nodes = (
(1764,112,l),
(1588,772,o),
(1316,1380,o),
(712,1380,cs),
(144,1380,o),
(88,1736,o),
(208,2124,cs),
(348,2564,o),
(440,2616,o),
(832,2616,cs),
(1288,2616,o),
(1404,2524,o),
(1404,2324,cs),
(1404,2124,o),
(1280,2032,o),
(860,2032,cs),
(440,2032,o),
(304,2056,o),
(208,2124,c)
);
},
{
closed = 0;
nodes = (
(0,112,l),
(420,388,o),
(524,752,o),
(524,1396,cs)
);
}
);
width = 1764;
},
{
layerId = "C4A30611-87D3-4B41-A69F-FBC49DBA4127";
width = 2400;
}
);
},
{
export = 0;
glyphname = "bone-e";
lastChange = "2023-05-19 20:13:49 +0000";
layers = (
{
layerId = m01;
shapes = (
{
closed = 0;
nodes = (
(311,2764,l),
(311,1182,ls),
(311,668,o),
(253,288,o),
(0,70,cs)
);
},
{
closed = 0;
nodes = (
(309,2342,l),
(667,2342,o),
(1040,2060,o),
(1040,1439,cs),
(1040,1239,o),
(1128,1121,o),
(1275,1121,cs),
(1422,1121,o),
(1519,1272,o),
(1519,1572,cs),
(1519,2764,l)
);
},
{
closed = 0;
nodes = (
(1020,841,l),
(1139,560,o),
(1402,177,o),
(1711,112,cs)
);
}
);
width = 1711;
},
{
layerId = "C4A30611-87D3-4B41-A69F-FBC49DBA4127";
width = 600;
}
);
},
{
export = 0;
glyphname = "bone-f";
lastChange = "2023-05-08 00:23:17 +0000";
layers = (
{
backgroundImage = {
imagePath = "//F.jpg";
pos = (-132,0);
scale = (175.2712,175.2712);
};
layerId = m01;
shapes = (
{
closed = 0;
nodes = (
(1004,2096,l),
(1004,2408,o),
(840,2588,o),
(528,2588,cs),
(216,2588,o),
(64,2408,o),
(64,2096,cs),
(64,1784,o),
(288,1696,o),
(552,1648,cs),
(896,1588,o),
(996,1492,o),
(996,1232,cs),
(996,548,o),
(852,180,o),
(0,180,c)
);
},
{
closed = 0;
nodes = (
(216,1440,l),
(216,1080,o),
(368,988,o),
(988,988,c)
);
}
);
width = 1004;
},
{
layerId = "C4A30611-87D3-4B41-A69F-FBC49DBA4127";
width = 2400;
}
);
},
{
export = 0;
glyphname = "bone-g";
lastChange = "2023-05-08 00:23:17 +0000";
layers = (
{
layerId = m01;
shapes = (
{
closed = 1;
nodes = (
(1448,132,o),
(1672,384,o),
(1672,1408,cs),
(1672,2428,o),
(1448,2680,o),
(836,2680,cs),
(184,2680,o),
(0,2428,o),
(0,1408,cs),
(0,384,o),
(184,132,o),
(836,132,cs)
);
},
{
closed = 0;
nodes = (
(836,1888,l),
(836,928,l)
);
}
);
width = 1672;
},
{
layerId = "C4A30611-87D3-4B41-A69F-FBC49DBA4127";
width = 2400;
}
);
},
{
export = 0;
glyphname = "bone-h";
lastChange = "2023-05-08 00:23:17 +0000";
layers = (
{
backgroundImage = {
imagePath = "//H.png";
pos = (-76,-40);
scale = (98.2108,98.2108);
};
layerId = m01;
shapes = (
{
closed = 0;
nodes = (
(0,2616,l),
(1092,2616,ls),
(1420,2616,o),
(1600,2448,o),
(1600,2152,cs),
(1600,1820,o),
(1336,1692,o),
(856,1692,cs),
(300,1692,o),
(104,1540,o),
(104,888,cs),
(104,236,o),
(384,144,o),
(968,144,cs),
(1552,144,o),
(1736,236,o),
(1736,944,c)
);
}
);
width = 1736;
},
{
layerId = "C4A30611-87D3-4B41-A69F-FBC49DBA4127";
width = 2400;
}
);
},
{
export = 0;
glyphname = "bone-i";
lastChange = "2023-05-08 00:23:17 +0000";
layers = (
{
backgroundImage = {
imagePath = "//I.png";
pos = (-140,0);
scale = (91.0732,91.0732);
};
layerId = m01;
shapes = (
{
closed = 0;
nodes = (
(732,2696,l),
(1028,2696,o),
(1176,2580,o),
(1176,2316,cs),
(1176,2052,o),
(748,1900,o),
(464,1672,cs),
(180,1444,o),
(128,1260,o),
(128,1024,cs)
);
},
{
closed = 0;
nodes = (
(616,1780,l),
(868,1780,o),
(940,1696,o),
(940,1488,cs),
(940,1172,o),
(408,892,o),
(216,676,cs),
(80,524,o),
(0,356,o),
(0,44,c)
);
},
{
closed = 0;
nodes = (
(748,1136,l),
(748,568,o),
(1060,176,o),
(1620,176,cs)
);
},
{
closed = 0;
nodes = (
(196,1976,l),
(196,2344,o),
(532,2532,o),
(1124,2532,cs)
);
}
);
width = 1620;
},
{
layerId = "C4A30611-87D3-4B41-A69F-FBC49DBA4127";
width = 2400;
}
);
},
{
export = 0;
glyphname = "bone-j";
lastChange = "2023-05-08 00:23:17 +0000";
layers = (
{
backgroundImage = {
imagePath = "//J.png";
pos = (-92,28);
scale = (85.166,85.166);
};
layerId = m01;
shapes = (
{
closed = 0;
nodes = (
(368,2760,l),
(452,1360,o),
(436,716,o),
(0,52,cs)
);
},
{
closed = 0;
nodes = (
(420,2320,l),
(1232,2320,ls),
(1480,2320,o),
(1588,2236,o),
(1588,2040,cs),
(1588,1844,o),
(1480,1748,o),
(1232,1748,cs),
(692,1748,l)
);
},
{
closed = 0;
nodes = (
(720,1500,l),
(720,772,ls),
(720,404,o),
(940,240,o),
(1120,240,cs),
(1300,240,o),
(1536,404,o),
(1536,772,cs),
(1536,1500,l)
);
},
{
closed = 0;
nodes = (
(720,1140,l),
(1536,1140,l)
);
}
);
width = 1588;
},
{
layerId = "C4A30611-87D3-4B41-A69F-FBC49DBA4127";
width = 2400;
}
);
},
{
export = 0;
glyphname = "bone-k";
lastChange = "2023-05-08 00:23:17 +0000";
layers = (
{
backgroundImage = {
imagePath = "//K.png";
pos = (-68,0);
scale = (85.5352,85.5352);
};
layerId = m01;
shapes = (
{
closed = 0;
nodes = (
(548,2752,l),
(432,2396,o),
(252,2112,o),
(0,1864,cs)
);
},
{
closed = 0;
nodes = (
(400,2396,l),
(728,2396,ls),
(1024,2396,o),
(1080,2332,o),
(1080,2144,cs),
(1080,1892,o),
(828,1876,o),
(592,1656,cs),
(356,1436,o),
(156,908,o),
(156,52,c)
);
},
{
closed = 0;
nodes = (
(832,1556,l),
(832,744,o),
(1080,364,o),
(1600,148,cs)
);
}
);
width = 1600;
},
{
layerId = "C4A30611-87D3-4B41-A69F-FBC49DBA4127";
width = 2400;
}
);
},
{
export = 0;
glyphname = "bone-l";
lastChange = "2023-05-08 00:23:17 +0000";
layers = (
{
backgroundImage = {
imagePath = "//L.png";
pos = (-116,-28);
scale = (85.8516,85.8516);
};
layerId = m01;
shapes = (
{
closed = 0;
nodes = (
(132,2728,l),
(232,2492,o),
(368,2444,o),
(636,2444,cs),
(848,2444,o),
(1000,2488,o),
(1240,2488,cs),
(1432,2488,o),
(1520,2408,o),
(1520,2196,cs),
(1520,1984,o),
(1360,1908,o),
(1148,1908,cs),
(1028,1908,o),
(984,1872,o),
(984,1752,cs),
(984,740,o),
(1300,248,o),
(1792,68,c)
);
},
{
closed = 0;
nodes = (
(712,1716,l),
(496,1608,o),
(432,1356,o),
(432,1040,cs),
(432,632,o),
(272,456,o),
(0,156,c)
);
}
);
width = 1792;
},
{
layerId = "C4A30611-87D3-4B41-A69F-FBC49DBA4127";
width = 2400;
}
);
},
{
export = 0;
glyphname = "bone-m";
lastChange = "2023-05-08 00:23:17 +0000";
layers = (
{
backgroundImage = {
imagePath = "//M.png";
pos = (-132,0);
scale = (87.072,87.072);
};
layerId = m01;
shapes = (
{
closed = 0;
nodes = (
(264,2728,l),
(264,872,ls),
(264,572,o),
(204,260,o),
(0,64,cs)
);
},
{
closed = 0;
nodes = (
(532,2480,l),
(1620,2480,l)
);
},
{
closed = 0;
nodes = (
(1072,2480,l),
(1072,1896,l)
);
},
{
closed = 0;
nodes = (
(452,128,l),
(620,344,o),
(696,556,o),
(696,820,cs),
(696,1324,ls),
(696,1616,o),
(788,1896,o),
(1072,1896,cs),
(1356,1896,o),
(1404,1616,o),
(1404,1324,cs),
(1404,820,ls),
(1404,508,o),
(1584,188,o),
(1952,188,cs)
);
}
);
width = 1952;
},
{
layerId = "C4A30611-87D3-4B41-A69F-FBC49DBA4127";
width = 2400;
}
);
},
